<svg xmlns="http://www.w3.org/2000/svg" viewBox="0 0 960 484" font-family="Inter,system-ui,sans-serif" font-size="12" role="img">
<rect width="960" height="484" fill="#ffffff"/>
<text x="12" y="22" font-size="15" font-weight="700" fill="#0f172a">Nvidia · 1D</text>
<text x="890" y="22" font-size="11" fill="#64748b" text-anchor="end">Yahoo Finance · 2026-03-02 → 2026-10-07</text>
<line x1="12" x2="890" y1="444" y2="444" stroke="#eef1f4"/><text x="898" y="448" fill="#64748b">159.52</text>
<line x1="12" x2="890" y1="364.00000000000006" y2="364.00000000000006" stroke="#eef1f4"/><text x="898" y="368.00000000000006" fill="#64748b">177.24</text>
<line x1="12" x2="890" y1="284" y2="284" stroke="#eef1f4"/><text x="898" y="288" fill="#64748b">194.96</text>
<line x1="12" x2="890" y1="204" y2="204" stroke="#eef1f4"/><text x="898" y="208" fill="#64748b">212.68</text>
<line x1="12" x2="890" y1="123.99999999999994" y2="123.99999999999994" stroke="#eef1f4"/><text x="898" y="127.99999999999994" fill="#64748b">230.40</text>
<line x1="12" x2="890" y1="44" y2="44" stroke="#eef1f4"/><text x="898" y="48" fill="#64748b">248.12</text>
<text x="14.869281045751634" y="472" fill="#64748b" text-anchor="start">02/03/26</text>
<text x="164.0718954248366" y="472" fill="#64748b" text-anchor="middle">08/04/26</text>
<text x="313.27450980392155" y="472" fill="#64748b" text-anchor="middle">14/05/26</text>
<text x="462.47712418300654" y="472" fill="#64748b" text-anchor="middle">23/06/26</text>
<text x="611.6797385620915" y="472" fill="#64748b" text-anchor="middle">30/07/26</text>
<text x="760.8823529411765" y="472" fill="#64748b" text-anchor="middle">04/09/26</text>
<line x1="14.869281045751634" x2="14.869281045751634" y1="335.92701524961404" y2="375.7500617778478" stroke="#16a34a"/><rect x="12.86078431372549" y="340.35184412697356" width="4.0169934640522875" height="33.727659767490366" fill="#16a34a"/>
<line x1="20.607843137254903" x2="20.607843137254903" y1="347.48568020214464" y2="365.45568285789625" stroke="#16a34a"/><rect x="18.599346405228758" y="351.3234576227112" width="4.0169934640522875" height="7.043515166844031" fill="#16a34a"/>
<line x1="26.346405228758172" x2="26.346405228758172" y1="330.32835903733644" y2="351.27833161588114" stroke="#16a34a"/><rect x="24.337908496732027" y="337.8234098511492" width="4.0169934640522875" height="11.739168979851001" fill="#16a34a"/>
<line x1="32.08496732026144" x2="32.08496732026144" y1="333.21800805180237" y2="361.12117488886395" stroke="#16a34a"/><rect x="30.076470588235296" y="336.4688718049099" width="4.0169934640522875" height="9.797717266152745" fill="#16a34a"/>
<line x1="37.82352941176471" x2="37.82352941176471" y1="339.0876269890614" y2="365.9071496101981" stroke="#dc2626"/><rect x="35.815032679738565" y="352.2716549234788" width="4.0169934640522875" height="9.120413795699562" fill="#dc2626"/>
<line x1="43.56209150326798" x2="43.56209150326798" y1="338.41032351860827" y2="371.5961956254697" stroke="#16a34a"/><rect x="41.55359477124183" y="339.5842886428602" width="4.0169934640522875" height="26.277734960507814" fill="#16a34a"/>
<line x1="49.30065359477124" x2="49.30065359477124" y1="322.4720934848821" y2="342.47393765732613" stroke="#16a34a"/><rect x="47.292156862745095" y="330.01227030552496" width="4.0169934640522875" height="10.700788560090189" fill="#16a34a"/>
<line x1="55.03921568627451" x2="55.03921568627451" y1="317.144331102919" y2="331.4571292600914" stroke="#16a34a"/><rect x="53.030718954248364" y="324.32329318492026" width="4.0169934640522875" height="1" fill="#16a34a"/>
<line x1="60.77777777777778" x2="60.77777777777778" y1="329.24471482141166" y2="343.64783388691114" stroke="#dc2626"/><rect x="58.76928104575163" y="333.2631340586325" width="4.0169934640522875" height="4.1087401455479835" fill="#dc2626"/>
<line x1="66.51633986928104" x2="66.51633986928104" y1="324.05239935460577" y2="351.82011927651007" stroke="#dc2626"/><rect x="64.5078431372549" y="329.33503572973876" width="4.0169934640522875" height="21.08541949370192" fill="#dc2626"/>
<line x1="72.25490196078431" x2="72.25490196078431" y1="311.4552850876474" y2="345.1829448551378" stroke="#16a34a"/><rect x="70.24640522875816" y="337.0106594655389" width="4.0169934640522875" height="1.1287702227548948" fill="#16a34a"/>
<line x1="77.99346405228758" x2="77.99346405228758" y1="327.1678161925561" y2="343.9639226187227" stroke="#dc2626"/><rect x="75.98496732026143" y="328.7029271607827" width="4.0169934640522875" height="14.132225235185047" fill="#dc2626"/>
<line x1="83.73202614379085" x2="83.73202614379085" y1="336.28822998825564" y2="350.0592404847991" stroke="#dc2626"/><rect x="81.7235294117647" y="340.35184412697356" width="4.0169934640522875" height="9.391376520680922" fill="#dc2626"/>
<line x1="89.47058823529412" x2="89.47058823529412" y1="351.63954635452274" y2="370.5577463110419" stroke="#16a34a"/><rect x="87.46209150326797" y="358.0509529524107" width="4.0169934640522875" height="2.4833082689942216" fill="#16a34a"/>
<line x1="95.20915032679738" x2="95.20915032679738" y1="359.40549099864995" y2="388.9340897122653" stroke="#dc2626"/><rect x="93.20065359477124" y="360.57938722823496" width="4.0169934640522875" height="23.929942501337734" fill="#dc2626"/>
<line x1="100.94771241830065" x2="100.94771241830065" y1="358.90882934485114" y2="375.2082741172189" stroke="#dc2626"/><rect x="98.93921568627451" y="363.92057188966965" width="4.0169934640522875" height="7.314408997158466" fill="#dc2626"/>
<line x1="106.68627450980392" x2="106.68627450980392" y1="368.6162257026767" y2="378.7300317006409" stroke="#16a34a"/><rect x="104.67777777777778" y="373.22162750202347" width="4.0169934640522875" height="1.6705578833839354" fill="#16a34a"/>
<line x1="112.42483660130719" x2="112.42483660130719" y1="346.04082124757826" y2="365.77170269504086" stroke="#16a34a"/><rect x="110.41633986928105" y="357.50916529178176" width="4.0169934640522875" height="7.133767180504151" fill="#16a34a"/>
<line x1="118.16339869281046" x2="118.16339869281046" y1="367.3068825579344" y2="391.55284489641673" stroke="#dc2626"/><rect x="116.15490196078431" y="369.2934602784629" width="4.0169934640522875" height="21.807848970985106" fill="#dc2626"/>
<line x1="123.90196078431373" x2="123.90196078431373" y1="392.32040038053003" y2="410.2001510226214" stroke="#dc2626"/><rect x="121.89346405228758" y="396.7000343563925" width="4.0169934640522875" height="11.197381319222075" fill="#dc2626"/>
<line x1="129.640522875817" x2="129.640522875817" y1="399.1833426253867" y2="422.57142857142856" stroke="#dc2626"/><rect x="127.63202614379085" y="402.2084385550099" width="4.0169934640522875" height="16.299444772367735" fill="#dc2626"/>
<line x1="135.37908496732027" x2="135.37908496732027" y1="375.84038268617496" y2="410.42584995143886" stroke="#16a34a"/><rect x="133.37058823529412" y="376.83370599377264" width="4.0169934640522875" height="33.547017950836164" fill="#16a34a"/>
<line x1="141.11764705882354" x2="141.11764705882354" y1="363.42391023587084" y2="375.253400124049" stroke="#dc2626"/><rect x="139.1091503267974" y="369.60954901027435" width="4.0169934640522875" height="1.1287702227549516" fill="#dc2626"/>
<line x1="146.8562091503268" x2="146.8562091503268" y1="362.8820536805749" y2="390.51439558198894" stroke="#16a34a"/><rect x="144.84771241830066" y="363.3335893275437" width="4.0169934640522875" height="23.523601755866025" fill="#16a34a"/>
<line x1="152.59477124183007" x2="152.59477124183007" y1="361.5275845290025" y2="370.6931932261992" stroke="#16a34a"/><rect x="150.58627450980393" y="362.2048191047887" width="4.0169934640522875" height="2.1672195371827456" fill="#16a34a"/>
<line x1="158.33333333333334" x2="158.33333333333334" y1="359.54093791380717" y2="380.17482176054034" stroke="#16a34a"/><rect x="156.3248366013072" y="360.12785158126627" width="4.0169934640522875" height="10.700788560090132" fill="#16a34a"/>
<line x1="164.0718954248366" x2="164.0718954248366" y1="327.79992476151216" y2="350.1946873999563" stroke="#dc2626"/><rect x="162.06339869281047" y="331.231361436607" width="4.0169934640522875" height="10.926487488907583" fill="#dc2626"/>
<line x1="169.81045751633988" x2="169.81045751633988" y1="333.12768714347527" y2="348.7498973400568" stroke="#16a34a"/><rect x="167.80196078431374" y="333.8952426275886" width="4.0169934640522875" height="9.346250513850862" fill="#16a34a"/>
<line x1="175.54901960784315" x2="175.54901960784315" y1="306.39841653599876" y2="332.1343638358776" stroke="#16a34a"/><rect x="173.540522875817" y="312.5840553104023" width="4.0169934640522875" height="19.5051825186452" fill="#16a34a"/>
<line x1="181.28758169934642" x2="181.28758169934642" y1="307.93352750422537" y2="325.63263632966255" stroke="#16a34a"/><rect x="179.27908496732027" y="309.513833373949" width="4.0169934640522875" height="14.809459810971248" fill="#16a34a"/>
<line x1="187.0261437908497" x2="187.0261437908497" y1="277.00526473754064" y2="302.92178495940686" stroke="#16a34a"/><rect x="185.01764705882354" y="277.00526473754064" width="4.0169934640522875" height="25.600500384721613" fill="#16a34a"/>
<line x1="192.76470588235296" x2="192.76470588235296" y1="259.44160282726074" y2="280.4818274194656" stroke="#16a34a"/><rect x="190.7562091503268" y="266.3496710789475" width="4.0169934640522875" height="10.52014674343593" fill="#16a34a"/>
<line x1="198.5032679738562" x2="198.5032679738562" y1="261.92484220158804" y2="280.16580758232107" stroke="#16a34a"/><rect x="196.49477124183005" y="268.69746353811763" width="4.0169934640522875" height="4.153935047044968" fill="#16a34a"/>
<line x1="204.24183006535947" x2="204.24183006535947" y1="253.57198389000177" y2="264.54359738573953" stroke="#16a34a"/><rect x="202.23333333333332" y="253.6623047983289" width="4.0169934640522875" height="8.03683847444168" fill="#16a34a"/>
<line x1="209.98039215686273" x2="209.98039215686273" y1="251.44989035964917" y2="271.00019888512446" stroke="#16a34a"/><rect x="207.9718954248366" y="251.946552013448" width="4.0169934640522875" height="9.391376520680979" fill="#16a34a"/>
<line x1="215.718954248366" x2="215.718954248366" y1="248.83113517549774" y2="265.7626885168215" stroke="#dc2626"/><rect x="213.71045751633986" y="251.63046328163654" width="4.0169934640522875" height="10.15893200479428" fill="#dc2626"/>
<line x1="221.45751633986927" x2="221.45751633986927" y1="249.95990539825263" y2="265.7626885168215" stroke="#16a34a"/><rect x="219.44901960784313" y="249.95990539825263" width="4.0169934640522875" height="6.8177473433596845" fill="#16a34a"/>
<line x1="227.19607843137254" x2="227.19607843137254" y1="243.95483954583642" y2="273.79952699126324" stroke="#dc2626"/><rect x="225.1875816993464" y="250.14047832024" width="4.0169934640522875" height="12.732561182115603" fill="#dc2626"/>
<line x1="232.9346405228758" x2="232.9346405228758" y1="211.80748564806967" y2="262.10548401824235" stroke="#16a34a"/><rect x="230.92614379084966" y="223.90786936656232" width="4.0169934640522875" height="37.5203111812269" fill="#16a34a"/>
<line x1="238.67320261437908" x2="238.67320261437908" y1="185.25878796258047" y2="227.92628860378318" stroke="#16a34a"/><rect x="236.66470588235293" y="186.2521112701782" width="4.0169934640522875" height="31.42499331515046" fill="#16a34a"/>
<line x1="244.41176470588235" x2="244.41176470588235" y1="194.7404853915886" y2="224.22395809837383" stroke="#16a34a"/><rect x="242.4032679738562" y="201.7840005584326" width="4.0169934640522875" height="16.615464609512316" fill="#16a34a"/>
<line x1="250.15032679738562" x2="250.15032679738562" y1="203.8157731804581" y2="227.0232862045126" stroke="#dc2626"/><rect x="248.14183006535947" y="203.9060940887852" width="4.0169934640522875" height="15.57701529508455" fill="#dc2626"/>
<line x1="255.88888888888889" x2="255.88888888888889" y1="214.7422606693657" y2="267.11722656306085" stroke="#dc2626"/><rect x="253.88039215686274" y="216.4128874474165" width="4.0169934640522875" height="46.77617189208371" fill="#dc2626"/>
<line x1="261.62745098039215" x2="261.62745098039215" y1="247.7023649527428" y2="274.251062638232" stroke="#dc2626"/><rect x="259.61895424836604" y="255.46830959687003" width="4.0169934640522875" height="12.77768718894572" fill="#dc2626"/>
<line x1="267.3660130718954" x2="267.3660130718954" y1="253.43653697484456" y2="284.9969083104853" stroke="#dc2626"/><rect x="265.3575163398693" y="263.50514807131174" width="4.0169934640522875" height="4.605401799346794" fill="#dc2626"/>
<line x1="273.1045751633987" x2="273.1045751633987" y1="260.16396340987706" y2="279.1724842747234" stroke="#dc2626"/><rect x="271.0960784313726" y="264.40815047058226" width="4.0169934640522875" height="12.642240273788502" fill="#dc2626"/>
<line x1="278.843137254902" x2="278.843137254902" y1="223.90786936656232" y2="267.52356730853256" stroke="#16a34a"/><rect x="276.8346405228759" y="225.89451598175768" width="4.0169934640522875" height="35.84975329784302" fill="#16a34a"/>
<line x1="284.58169934640523" x2="284.58169934640523" y1="197.1334727522557" y2="231.8995818341739" stroke="#16a34a"/><rect x="282.5732026143791" y="209.32417737907545" width="4.0169934640522875" height="14.267672150342293" fill="#16a34a"/>
<line x1="290.32026143790847" x2="290.32026143790847" y1="180.87915398671805" y2="203.04821769634475" stroke="#16a34a"/><rect x="288.31176470588235" y="192.618391861236" width="4.0169934640522875" height="9.797717266152688" fill="#16a34a"/>
<line x1="296.05882352941177" x2="296.05882352941177" y1="160.5612899771295" y2="198.5331368053251" stroke="#16a34a"/><rect x="294.05032679738565" y="173.47442408123243" width="4.0169934640522875" height="24.381478148306456" fill="#16a34a"/>
<line x1="301.797385620915" x2="301.797385620915" y1="154.01443646408433" y2="193.88260899914815" stroke="#16a34a"/><rect x="299.7888888888889" y="167.42423222198613" width="4.0169934640522875" height="10.068611096467123" fill="#16a34a"/>
<line x1="307.5359477124183" x2="307.5359477124183" y1="135.54777215453385" y2="163.85727973706707" stroke="#16a34a"/><rect x="305.5274509803922" y="144.6230599434033" width="4.0169934640522875" height="4.063614138717924" fill="#16a34a"/>
<line x1="313.27450980392155" x2="313.27450980392155" y1="96.26658218159594" y2="128.95572373999164" stroke="#16a34a"/><rect x="311.26601307189543" y="99.87859177867813" width="4.0169934640522875" height="26.59382369231929" fill="#16a34a"/>
<line x1="319.01307189542484" x2="319.01307189542484" y1="119.02255955868173" y2="151.80202202540454" stroke="#dc2626"/><rect x="317.0045751633987" y="126.87882511113605" width="4.0169934640522875" height="20.046901284607202" fill="#dc2626"/>
<line x1="324.7516339869281" x2="324.7516339869281" y1="125.79518089521127" y2="178.30559370406365" stroke="#dc2626"/><rect x="322.74313725490197" y="126.38216345733724" width="4.0169934640522875" height="34.08880561146509" fill="#dc2626"/>
<line x1="330.4901960784314" x2="330.4901960784314" y1="150.71844670414663" y2="180.38249233291918" stroke="#16a34a"/><rect x="328.48169934640526" y="168.19178770609943" width="4.0169934640522875" height="4.469954884189576" fill="#16a34a"/>
<line x1="336.2287581699346" x2="336.2287581699346" y1="143.26852189716402" y2="168.68844935989824" stroke="#16a34a"/><rect x="334.2202614379085" y="155.2786536019965" width="4.0169934640522875" height="1.3094120394091533" fill="#16a34a"/>
<line x1="341.9673202614379" x2="341.9673202614379" y1="137.5344187697292" y2="180.292240319259" stroke="#dc2626"/><rect x="339.9588235294118" y="160.60648487862647" width="4.0169934640522875" height="12.551919365461401" fill="#dc2626"/>
<line x1="347.70588235294116" x2="347.70588235294116" y1="166.38578290755834" y2="194.4243966597771" stroke="#dc2626"/><rect x="345.69738562091504" y="166.88244456135715" width="4.0169934640522875" height="25.14896473775289" fill="#dc2626"/>
<line x1="353.44444444444446" x2="353.44444444444446" y1="179.1634700965041" y2="207.0666369335656" stroke="#dc2626"/><rect x="351.43594771241834" y="186.56820000198968" width="4.0169934640522875" height="7.585302827472958" fill="#dc2626"/>
<line x1="359.1830065359477" x2="359.1830065359477" y1="197.35924057574007" y2="221.60520291422236" stroke="#dc2626"/><rect x="357.1745098039216" y="197.4946874908973" width="4.0169934640522875" height="6.862873350189744" fill="#dc2626"/>
<line x1="364.921568627451" x2="364.921568627451" y1="191.17353290666958" y2="210.58839451698762" stroke="#16a34a"/><rect x="362.9130718954249" y="196.9077049287713" width="4.0169934640522875" height="13.409795757901861" fill="#16a34a"/>
<line x1="370.66013071895424" x2="370.66013071895424" y1="180.60826015640362" y2="210.9947352624593" stroke="#dc2626"/><rect x="368.6516339869281" y="195.41771996737478" width="4.0169934640522875" height="15.531889288254462" fill="#dc2626"/>
<line x1="376.39869281045753" x2="376.39869281045753" y1="148.95756791243565" y2="190.36085141572613" stroke="#16a34a"/><rect x="374.3901960784314" y="151.2602343647756" width="4.0169934640522875" height="38.9651701357933" fill="#16a34a"/>
<line x1="382.1372549019608" x2="382.1372549019608" y1="115.50080197525972" y2="164.85060304466475" stroke="#dc2626"/><rect x="380.12875816993466" y="138.52774207732688" width="4.0169934640522875" height="19.68568654596561" fill="#dc2626"/>
<line x1="387.87581699346407" x2="387.87581699346407" y1="158.2134286232925" y2="195.7338086991863" stroke="#dc2626"/><rect x="385.86732026143795" y="163.18004516128093" width="4.0169934640522875" height="31.470119321980576" fill="#dc2626"/>
<line x1="393.6143790849673" x2="393.6143790849673" y1="163.72183282190986" y2="211.71716473974254" stroke="#16a34a"/><rect x="391.6058823529412" y="176.99618166465444" width="4.0169934640522875" height="21.44663423234354" fill="#16a34a"/>
<line x1="399.3529411764706" x2="399.3529411764706" y1="194.10837682263252" y2="241.6972991003266" stroke="#dc2626"/><rect x="397.3444444444445" y="195.64348779085915" width="4.0169934640522875" height="42.57717973287555" fill="#dc2626"/>
<line x1="405.09150326797385" x2="405.09150326797385" y1="213.9747051852524" y2="234.15712227968376" stroke="#dc2626"/><rect x="403.08300653594773" y="215.28411722466157" width="4.0169934640522875" height="6.953194258516845" fill="#dc2626"/>
<line x1="410.83006535947715" x2="410.83006535947715" y1="209.7757130260442" y2="264.2275775485949" stroke="#dc2626"/><rect x="408.82156862745103" y="213.2974706094662" width="4.0169934640522875" height="10.971613495737728" fill="#dc2626"/>
<line x1="416.5686274509804" x2="416.5686274509804" y1="228.64871808106636" y2="261.6088223644435" stroke="#dc2626"/><rect x="414.56013071895427" y="241.24583234802475" width="4.0169934640522875" height="18.10544957090889" fill="#dc2626"/>
<line x1="422.3071895424837" x2="422.3071895424837" y1="235.6922332479104" y2="263.32457514932435" stroke="#16a34a"/><rect x="420.29869281045757" y="239.25918573282942" width="4.0169934640522875" height="15.260926563273017" fill="#16a34a"/>
<line x1="428.0457516339869" x2="428.0457516339869" y1="229.32595265685256" y2="245.71571833754746" stroke="#16a34a"/><rect x="426.0372549019608" y="237.814326778263" width="4.0169934640522875" height="1.489984961396516" fill="#16a34a"/>
<line x1="433.7843137254902" x2="433.7843137254902" y1="203.8608991872882" y2="223.59184952941774" stroke="#16a34a"/><rect x="431.7758169934641" y="205.03486431154016" width="4.0169934640522875" height="15.938230033726114" fill="#16a34a"/>
<line x1="439.52287581699346" x2="439.52287581699346" y1="209.36930338590557" y2="228.33269824392178" stroke="#dc2626"/><rect x="437.51437908496735" y="210.76903633364185" width="4.0169934640522875" height="17.02180535498408" fill="#dc2626"/>
<line x1="445.26143790849676" x2="445.26143790849676" y1="219.6636823058571" y2="247.3411502141012" stroke="#dc2626"/><rect x="443.25294117647064" y="222.73397313697728" width="4.0169934640522875" height="17.518535903449816" fill="#dc2626"/>
<line x1="451" x2="451" y1="209.82083903287432" y2="231.8995818341739" stroke="#16a34a"/><rect x="448.9915032679739" y="212.9813818776547" width="4.0169934640522875" height="15.170674549612812" fill="#16a34a"/>
<line x1="456.7385620915033" x2="456.7385620915033" y1="198.08160115835634" y2="226.39117763555655" stroke="#dc2626"/><rect x="454.7300653594772" y="209.5950712093899" width="4.0169934640522875" height="12.597114266958414" fill="#dc2626"/>
<line x1="462.47712418300654" x2="462.47712418300654" y1="244.2257333761509" y2="261.24760762580183" stroke="#dc2626"/><rect x="460.4686274509804" y="251.44989035964917" width="4.0169934640522875" height="9.617144344165382" fill="#dc2626"/>
<line x1="468.21568627450984" x2="468.21568627450984" y1="253.70743080515902" y2="276.68917600572917" stroke="#dc2626"/><rect x="466.2071895424837" y="260.7058199651729" width="4.0169934640522875" height="5.05686855164862" fill="#dc2626"/>
<line x1="473.9542483660131" x2="473.9542483660131" y1="257.6355291340527" y2="296.7812721918334" stroke="#dc2626"/><rect x="471.94575163398696" y="260.88639288716024" width="4.0169934640522875" height="19.595434532305376" fill="#dc2626"/>
<line x1="479.6928104575163" x2="479.6928104575163" y1="281.33970381190613" y2="300.89001233738134" stroke="#dc2626"/><rect x="477.6843137254902" y="292.3113862023107" width="4.0169934640522875" height="2.663881190981556" fill="#dc2626"/>
<line x1="485.4313725490196" x2="485.4313725490196" y1="278.4952496989372" y2="307.3014189352693" stroke="#16a34a"/><rect x="483.4228758169935" y="283.9584589960575" width="4.0169934640522875" height="5.056868551648677" fill="#16a34a"/>
<line x1="491.16993464052285" x2="491.16993464052285" y1="258.4030846181661" y2="283.3263504271015" stroke="#16a34a"/><rect x="489.16143790849674" y="260.8412668803302" width="4.0169934640522875" height="12.867939202605953" fill="#16a34a"/>
<line x1="496.90849673202615" x2="496.90849673202615" y1="261.92484220158804" y2="290.8214012409142" stroke="#16a34a"/><rect x="494.90000000000003" y="272.1740951147095" width="4.0169934640522875" height="6.230833675900556" fill="#16a34a"/>
<line x1="502.6470588235294" x2="502.6470588235294" y1="260.9767137954874" y2="295.7879488842357" stroke="#dc2626"/><rect x="500.6385620915033" y="274.1607417299048" width="4.0169934640522875" height="10.42982583510883" fill="#dc2626"/>
<line x1="508.3856209150327" x2="508.3856209150327" y1="272.30954202986675" y2="288.3832189787501" stroke="#16a34a"/><rect x="506.3771241830066" y="281.33970381190613" width="4.0169934640522875" height="5.102063453145661" fill="#16a34a"/>
<line x1="514.124183006536" x2="514.124183006536" y1="268.4265697078031" y2="301.25122707602293" stroke="#16a34a"/><rect x="512.1156862745098" y="275.10893903067245" width="4.0169934640522875" height="20.588757839902996" fill="#16a34a"/>
<line x1="519.8627450980392" x2="519.8627450980392" y1="237.94977369342024" y2="283.55211825058586" stroke="#16a34a"/><rect x="517.854248366013" y="242.6454964010942" width="4.0169934640522875" height="40.36483418886269" fill="#16a34a"/>
<line x1="525.6013071895425" x2="525.6013071895425" y1="240.52340287074156" y2="265.9432614388089" stroke="#dc2626"/><rect x="523.5928104575163" y="241.1103165382006" width="4.0169934640522875" height="7.585371722139882" fill="#dc2626"/>
<line x1="531.3398692810457" x2="531.3398692810457" y1="211.5817178245853" y2="252.5786605824041" stroke="#16a34a"/><rect x="529.3313725490195" y="211.76229074657266" width="4.0169934640522875" height="40.455155097189845" fill="#16a34a"/>
<line x1="537.0784313725491" x2="537.0784313725491" y1="213.52316953828364" y2="247.7023649527428" stroke="#dc2626"/><rect x="535.0699346405229" y="222.6888471301472" width="4.0169934640522875" height="22.620530461928524" fill="#dc2626"/>
<line x1="542.8169934640523" x2="542.8169934640523" y1="204.58332866457138" y2="244.09028646099367" stroke="#16a34a"/><rect x="540.8084967320261" y="207.96963933283618" width="4.0169934640522875" height="16.254318765537647" fill="#16a34a"/>
<line x1="548.5555555555555" x2="548.5555555555555" y1="198.89435154396668" y2="233.9765493576964" stroke="#16a34a"/><rect x="546.5470588235294" y="204.8090964880558" width="4.0169934640522875" height="2.4381133674971522" fill="#16a34a"/>
<line x1="554.2941176470588" x2="554.2941176470588" y1="211.2205030859437" y2="234.83435685546993" stroke="#dc2626"/><rect x="552.2856209150326" y="215.3292432314917" width="4.0169934640522875" height="12.506793358631256" fill="#dc2626"/>
<line x1="560.0326797385621" x2="560.0326797385621" y1="231.22234725838774" y2="270.41321632299844" stroke="#16a34a"/><rect x="558.024183006536" y="248.56024134518324" width="4.0169934640522875" height="1" fill="#16a34a"/>
<line x1="565.7712418300654" x2="565.7712418300654" y1="226.3008567272294" y2="250.95322870585034" stroke="#dc2626"/><rect x="563.7627450980392" y="234.7441048418097" width="4.0169934640522875" height="11.694042973020942" fill="#dc2626"/>
<line x1="571.5098039215686" x2="571.5098039215686" y1="222.19218547634833" y2="243.142158054893" stroke="#dc2626"/><rect x="569.5013071895424" y="227.20392802116686" width="4.0169934640522875" height="1.1287702227549232" fill="#dc2626"/>
<line x1="577.2483660130719" x2="577.2483660130719" y1="196.27559635981524" y2="238.89797099418783" stroke="#16a34a"/><rect x="575.2398692810457" y="206.79574310325114" width="4.0169934640522875" height="28.219255568873024" fill="#16a34a"/>
<line x1="582.9869281045752" x2="582.9869281045752" y1="212.1687003867113" y2="234.3376952016711" stroke="#dc2626"/><rect x="580.978431372549" y="218.53491208310217" width="4.0169934640522875" height="3.1606117394473188" fill="#dc2626"/>
<line x1="588.7254901960785" x2="588.7254901960785" y1="207.47297767903734" y2="239.5300795631439" stroke="#dc2626"/><rect x="586.7169934640523" y="227.6102687666386" width="4.0169934640522875" height="2.754202099308685" fill="#dc2626"/>
<line x1="594.4640522875817" x2="594.4640522875817" y1="221.7406498293796" y2="281.83636546570494" stroke="#dc2626"/><rect x="592.4555555555555" y="224.22395809837383" width="4.0169934640522875" height="52.781306639166814" fill="#dc2626"/>
<line x1="600.2026143790849" x2="600.2026143790849" y1="267.11722656306085" y2="294.0270700925247" stroke="#16a34a"/><rect x="598.1941176470588" y="274.74772429203085" width="4.0169934640522875" height="9.075287788869446" fill="#16a34a"/>
<line x1="605.9411764705883" x2="605.9411764705883" y1="274.47676156704944" y2="306.3532905291686" stroke="#dc2626"/><rect x="603.9326797385621" y="279.9851657656668" width="4.0169934640522875" height="26.368124763501783" fill="#dc2626"/>
<line x1="611.6797385620915" x2="611.6797385620915" y1="273.664080076106" y2="299.53547429114207" stroke="#16a34a"/><rect x="609.6712418300654" y="283.64243915891296" width="4.0169934640522875" height="7.178962082001249" fill="#16a34a"/>
<line x1="617.4183006535948" x2="617.4183006535948" y1="252.2174458437625" y2="284.0487799043847" stroke="#16a34a"/><rect x="615.4098039215686" y="257.8612969575371" width="4.0169934640522875" height="10.429825835108772" fill="#16a34a"/>
<line x1="623.156862745098" x2="623.156862745098" y1="221.78577583620972" y2="275.4700848746471" stroke="#16a34a"/><rect x="621.1483660130718" y="231.2674732652178" width="4.0169934640522875" height="40.409960195692804" fill="#16a34a"/>
<line x1="628.8954248366014" x2="628.8954248366014" y1="202.28066221223148" y2="220.3861117831403" stroke="#16a34a"/><rect x="626.8869281045752" y="207.33753076388012" width="4.0169934640522875" height="2.8896490144659026" fill="#16a34a"/>
<line x1="634.6339869281046" x2="634.6339869281046" y1="160.92250471577108" y2="187.20030857094577" stroke="#16a34a"/><rect x="632.6254901960784" y="174.46774738883016" width="4.0169934640522875" height="10.65559365859309" fill="#16a34a"/>
<line x1="640.3725490196078" x2="640.3725490196078" y1="154.55622412471325" y2="184.49123247846723" stroke="#dc2626"/><rect x="638.3640522875817" y="164.0379215537214" width="4.0169934640522875" height="11.468275149536566" fill="#dc2626"/>
<line x1="646.1111111111111" x2="646.1111111111111" y1="149.45422956623452" y2="167.96601988261511" stroke="#16a34a"/><rect x="644.1026143790849" y="153.0662391633167" width="4.0169934640522875" height="10.926556383574564" fill="#16a34a"/>
<line x1="651.8496732026144" x2="651.8496732026144" y1="152.2535576723733" y2="185.52968179289496" stroke="#dc2626"/><rect x="649.8411764705883" y="155.59474233380797" width="4.0169934640522875" height="26.413181875665032" fill="#dc2626"/>
<line x1="657.5882352941177" x2="657.5882352941177" y1="161.01282562409818" y2="188.10331097021634" stroke="#dc2626"/><rect x="655.5797385620915" y="161.1482725392554" width="4.0169934640522875" height="21.08541949370192" fill="#dc2626"/>
<line x1="663.3267973856209" x2="663.3267973856209" y1="147.919049703341" y2="170.04298740613757" stroke="#16a34a"/><rect x="661.3183006535947" y="152.47932549585767" width="4.0169934640522875" height="13.771010496543397" fill="#16a34a"/>
<line x1="669.0653594771242" x2="669.0653594771242" y1="138.3019742538425" y2="154.19500938607166" stroke="#16a34a"/><rect x="667.056862745098" y="147.0160473040704" width="4.0169934640522875" height="1.083644215924778" fill="#16a34a"/>
<line x1="674.8039215686274" x2="674.8039215686274" y1="137.12800912959057" y2="150.62812579581953" stroke="#dc2626"/><rect x="672.7954248366012" y="140.3788728826981" width="4.0169934640522875" height="7.269282990328406" fill="#dc2626"/>
<line x1="680.5424836601308" x2="680.5424836601308" y1="135.18655741589225" y2="149.00269391926577" stroke="#dc2626"/><rect x="678.5339869281046" y="143.94582536761715" width="4.0169934640522875" height="4.3796339758624185" fill="#dc2626"/>
<line x1="686.281045751634" x2="686.281045751634" y1="163.54125989992252" y2="176.86073474949723" stroke="#dc2626"/><rect x="684.2725490196078" y="168.91421718338262" width="4.0169934640522875" height="3.2056688516105396" fill="#dc2626"/>
<line x1="692.0196078431372" x2="692.0196078431372" y1="157.98772969447504" y2="185.574876694392" stroke="#dc2626"/><rect x="690.0111111111111" y="163.40581298476525" width="4.0169934640522875" height="18.55698521787764" fill="#dc2626"/>
<line x1="697.7581699346405" x2="697.7581699346405" y1="171.57809837436423" y2="190.5414243377135" stroke="#dc2626"/><rect x="695.7496732026143" y="178.3507197108937" width="4.0169934640522875" height="6.817747343359656" fill="#dc2626"/>
<line x1="703.4967320261438" x2="703.4967320261438" y1="176.6349669260128" y2="195.77893470601643" stroke="#dc2626"/><rect x="701.4882352941177" y="178.07982588057928" width="4.0169934640522875" height="16.705785517839445" fill="#dc2626"/>
<line x1="709.2352941176471" x2="709.2352941176471" y1="190.85751306952503" y2="228.51327116590912" stroke="#dc2626"/><rect x="707.2267973856209" y="191.1284068998395" width="4.0169934640522875" height="31.83133406062217" fill="#dc2626"/>
<line x1="714.9738562091503" x2="714.9738562091503" y1="194.7404853915886" y2="215.60013706180615" stroke="#16a34a"/><rect x="712.9653594771241" y="202.3257882190616" width="4.0169934640522875" height="9.120482690366487" fill="#16a34a"/>
<line x1="720.7124183006536" x2="720.7124183006536" y1="199.84247995006737" y2="219.57343029219686" stroke="#dc2626"/><rect x="718.7039215686274" y="204.1769879190997" width="4.0169934640522875" height="13.45492176473195" fill="#dc2626"/>
<line x1="726.4509803921569" x2="726.4509803921569" y1="123.67308736485865" y2="166.88244456135715" stroke="#16a34a"/><rect x="724.4424836601307" y="134.91566358557776" width="4.0169934640522875" height="23.11719211572739" fill="#16a34a"/>
<line x1="732.1895424836601" x2="732.1895424836601" y1="129.1363655566459" y2="185.34910887090763" stroke="#dc2626"/><rect x="730.181045751634" y="137.71499169171653" width="4.0169934640522875" height="44.29293251775647" fill="#dc2626"/>
<line x1="737.9281045751634" x2="737.9281045751634" y1="165.07637086814913" y2="188.05811606871927" stroke="#16a34a"/><rect x="735.9196078431372" y="167.42423222198613" width="4.0169934640522875" height="8.62382103656762" fill="#16a34a"/>
<line x1="743.6666666666666" x2="743.6666666666666" y1="169.09479010537" y2="193.0698586135378" stroke="#16a34a"/><rect x="741.6581699346405" y="182.5045858632718" width="4.0169934640522875" height="3.115416837950306" fill="#16a34a"/>
<line x1="749.40522875817" x2="749.40522875817" y1="135.05111050073498" y2="177.8089320502648" stroke="#16a34a"/><rect x="747.3967320261438" y="151.03446654129124" width="4.0169934640522875" height="25.374801455904105" fill="#16a34a"/>
<line x1="755.1437908496732" x2="755.1437908496732" y1="123.98917609667012" y2="149.49935557306458" stroke="#16a34a"/><rect x="753.135294117647" y="132.79357005522513" width="4.0169934640522875" height="10.971613495737756" fill="#16a34a"/>
<line x1="760.8823529411765" x2="760.8823529411765" y1="104.30342065603764" y2="127.46573877859515" stroke="#dc2626"/><rect x="758.8738562091503" y="120.87375925871987" width="4.0169934640522875" height="3.2959897599375836" fill="#dc2626"/>
<line x1="766.6209150326797" x2="766.6209150326797" y1="109.04420047587473" y2="149.04781992609588" stroke="#dc2626"/><rect x="764.6124183006535" y="111.75327656835333" width="4.0169934640522875" height="33.32131902201871" fill="#dc2626"/>
<line x1="772.3594771241831" x2="772.3594771241831" y1="143.04282296834657" y2="155.32377960882656" stroke="#dc2626"/><rect x="770.3509803921569" y="147.1063682123975" width="4.0169934640522875" height="7.269282990328406" fill="#dc2626"/>
<line x1="778.0980392156863" x2="778.0980392156863" y1="166.4760349212185" y2="183.58823007919665" stroke="#dc2626"/><rect x="776.0895424836601" y="168.55300244474103" width="4.0169934640522875" height="9.797717266152688" fill="#dc2626"/>
<line x1="783.8366013071895" x2="783.8366013071895" y1="161.91582802336876" y2="179.29891701166133" stroke="#dc2626"/><rect x="781.8281045751634" y="165.34726469846362" width="4.0169934640522875" height="13.319543744241628" fill="#dc2626"/>
<line x1="789.5751633986928" x2="789.5751633986928" y1="203.59000535697373" y2="220.92796833843616" stroke="#dc2626"/><rect x="787.5666666666666" y="210.4980736086605" width="4.0169934640522875" height="1.2642171379121692" fill="#dc2626"/>
<line x1="795.3137254901961" x2="795.3137254901961" y1="198.30736898184074" y2="210.85928834730208" stroke="#dc2626"/><rect x="793.30522875817" y="200.83580325766502" width="4.0169934640522875" height="5.463278191787282" fill="#dc2626"/>
<line x1="801.0522875816994" x2="801.0522875816994" y1="185.574876694392" y2="204.8090964880558" stroke="#dc2626"/><rect x="799.0437908496732" y="197.40436658257016" width="4.0169934640522875" height="1.083644215924835" fill="#dc2626"/>
<line x1="806.7908496732026" x2="806.7908496732026" y1="171.3523305508798" y2="183.81399790268097" stroke="#16a34a"/><rect x="804.7823529411764" y="173.92595972820118" width="4.0169934640522875" height="4.334439074365434" fill="#16a34a"/>
<line x1="812.5294117647059" x2="812.5294117647059" y1="158.61983826343112" y2="179.84070467229026" stroke="#16a34a"/><rect x="810.5209150326797" y="160.6967368922867" width="4.0169934640522875" height="13.18402793441743" fill="#16a34a"/>
<line x1="818.2679738562092" x2="818.2679738562092" y1="132.5678022317408" y2="163.90247463856412" stroke="#16a34a"/><rect x="816.259477124183" y="137.62467078338943" width="4.0169934640522875" height="20.046970179274126" fill="#16a34a"/>
<line x1="824.0065359477125" x2="824.0065359477125" y1="125.88550180353838" y2="141.59796401378014" stroke="#16a34a"/><rect x="821.9980392156863" y="130.89724434835694" width="4.0169934640522875" height="9.120413795699562" fill="#16a34a"/>
<line x1="829.7450980392157" x2="829.7450980392157" y1="130.53602960971529" y2="152.79534533300227" stroke="#dc2626"/><rect x="827.7366013071895" y="134.68989576209339" width="4.0169934640522875" height="11.37802313587639" fill="#dc2626"/>
<line x1="835.4836601307189" x2="835.4836601307189" y1="148.64147918062412" y2="166.0245681689167" stroke="#16a34a"/><rect x="833.4751633986928" y="150.26691105717794" width="4.0169934640522875" height="11.287702227549232" fill="#16a34a"/>
<line x1="841.2222222222222" x2="841.2222222222222" y1="139.6113173985848" y2="156.8137645702231" stroke="#dc2626"/><rect x="839.213725490196" y="147.7836027881837" width="4.0169934640522875" height="1" fill="#dc2626"/>
<line x1="846.9607843137255" x2="846.9607843137255" y1="111.30174092138463" y2="134.64476975526333" stroke="#dc2626"/><rect x="844.9522875816994" y="126.92395111796617" width="4.0169934640522875" height="4.018419237220883" fill="#dc2626"/>
<line x1="852.6993464052288" x2="852.6993464052288" y1="113.06261971309561" y2="139.20497665311308" stroke="#dc2626"/><rect x="850.6908496732026" y="121.4155469193488" width="4.0169934640522875" height="16.976679348153937" fill="#dc2626"/>
<line x1="858.437908496732" x2="858.437908496732" y1="115.09446122978801" y2="134.0577871931373" stroke="#dc2626"/><rect x="856.4294117647058" y="129.09117065514886" width="4.0169934640522875" height="4.018419237220883" fill="#dc2626"/>
<line x1="864.1764705882352" x2="864.1764705882352" y1="115.45567596842966" y2="134.10291319996742" stroke="#16a34a"/><rect x="862.1679738562091" y="121.91220857314761" width="4.0169934640522875" height="3.973293230390766" fill="#16a34a"/>
<line x1="869.9150326797386" x2="869.9150326797386" y1="90.21632142768266" y2="109.54086212967366" stroke="#dc2626"/><rect x="867.9065359477124" y="98.43380171877862" width="4.0169934640522875" height="9.526823435838253" fill="#dc2626"/>
<line x1="875.6535947712418" x2="875.6535947712418" y1="80.19283633804565" y2="102.54254186432661" stroke="#16a34a"/><rect x="873.6450980392157" y="85.61098852300279" width="4.0169934640522875" height="12.687366280618619" fill="#16a34a"/>
<line x1="881.3921568627451" x2="881.3921568627451" y1="65.42857142857144" y2="85.47554160784557" stroke="#dc2626"/><rect x="879.3836601307189" y="71.16267455600627" width="4.0169934640522875" height="12.913134104102994" fill="#dc2626"/>
<line x1="887.1307189542483" x2="887.1307189542483" y1="84.79823813739245" y2="96.98894276421225" stroke="#dc2626"/><rect x="885.1222222222221" y="91.07419782012312" width="4.0169934640522875" height="1" fill="#dc2626"/>
<polyline fill="none" stroke="#2563eb" stroke-width="1.6" points="14.869281045751634,325.6288271784451 20.607843137254903,326.63645974488696 26.346405228758172,327.0751636706226 32.08496732026144,327.4435443817712 37.82352941176471,328.7748590616694 43.56209150326798,329.1987582609317 49.30065359477124,329.230660694053 55.03921568627451,329.03821490938105 60.77777777777778,329.3650250778046 66.51633986928104,330.19072822077067 72.25490196078431,330.45817650487913 77.99346405228758,330.94354810845124 83.73202614379085,331.68079016881205 89.47058823529412,332.71491419954145 95.20915032679738,334.7460677497388 100.94771241830065,336.1770055198207 106.68627450980392,337.6297357936325 112.42483660130719,338.40932126414805 118.16339869281046,340.47567373415984 123.90196078431373,343.1196636142169 129.640522875817,346.07606438728203 135.37908496732027,347.282246411066 141.11764705882354,348.2020924040841 146.8562091503268,348.79548444029825 152.59477124183007,349.3213407016508 158.33333333333334,349.74512544202787 164.0718954248366,349.4475851864783 169.81045751633988,348.83768939985515 175.54901960784315,347.41597825909236 181.28758169934642,345.9296196361455 187.0261437908497,343.22670375776875 192.76470588235296,340.2119181625209 198.5032679738562,337.4074297458777 204.24183006535947,334.123307198915 209.98039215686273,330.90068934850444 215.718954248366,328.1904425225407 221.45751633986927,325.1225783215883 227.19607843137254,322.68141993652034 232.9346405228758,318.8079473651494 238.67320261437908,313.6096792829936 244.41176470588235,309.22435854869707 250.15032679738562,305.7050938755665 255.88888888888889,304.0377984035639 261.62745098039215,302.6341983401228 267.3660130718954,301.2803297726928 273.1045751633987,300.3301360853076 278.843137254902,297.4110921596782 284.58169934640523,293.95670334475267 290.32026143790847,289.98265191402646 296.05882352941177,285.41370180293654 301.797385620915,280.7866637801542 307.5359477124183,275.4469146100855 313.27450980392155,268.5618823421871 319.01307189542484,263.79183701095405 324.7516339869281,259.74003826812464 330.4901960784314,256.1499107951041 336.2287581699346,252.19417521890384 341.9673202614379,249.09473321989145 347.70588235294116,246.85695581123326 353.44444444444446,244.7901537335167 359.1830065359477,243.2045618553822 364.921568627451,241.3889988386523 370.66013071895424,240.19529728637684 376.39869281045753,236.70764776003944 382.1372549019608,233.62944308801016 387.87581699346407,232.10084392703962 393.6143790849673,229.93987677949505 399.3529411764706,230.26461367142596 405.09150326797385,229.94981750718094 410.83006535947715,229.72704364827982 416.5686274509804,230.88877848242305 422.3071895424837,231.21702974714475 428.0457516339869,231.47574727777692 433.7843137254902,230.43884990655195 439.52287581699346,230.33500644702545 445.26143790849676,230.72392811735494 451,230.02814199030786 456.7385620915033,229.72084957799566 462.47712418300654,230.95011173979245 468.21568627450984,232.3153108290876 473.9542483660131,234.20419383263177 479.6928104575163,236.58737318795173 485.4313725490196,238.4450628274852 491.16993464052285,239.3233453393615 496.90849673202615,240.61161003643403 502.6470588235294,242.33627503755486 508.3856209150327,243.86582126399986 514.124183006536,245.09104156857518 519.8627450980392,244.995137836517 525.6013071895425,245.1402574609806 531.3398692810457,243.83131758982725 537.0784313725491,243.8892807271704 542.8169934640523,242.48066733915726 548.5555555555555,241.00335083519235 554.2941176470588,240.48698557067985 560.0326797385621,240.80358383634658 565.7712418300654,241.0245471296205 571.5098039215686,240.52682756547546 577.2483660130719,239.20403993950586 582.9869281045752,238.51743146433103 588.7254901960785,238.19770751929636 594.4640522875817,239.71957250824696 600.2026143790849,241.09322551937572 605.9411764705883,243.6524437550539 611.6797385620915,245.22067886893072 617.4183006535948,245.7163893822094 623.156862745098,245.14976522075867 628.8954248366014,243.6669324969595 634.6339869281046,240.9532389633074 640.3725490196078,238.38668828644268 646.1111111111111,235.0407883208299 651.8496732026144,232.96106815960025 657.5882352941177,230.9717592918887 663.3267973856209,227.89362463322087 669.0653594771242,224.72195493403842 674.8039215686274,221.69945301007718 680.5424836601308,218.82204149374004 686.281045751634,216.99058441692634 692.0196078431372,215.61694574185645 697.7581699346405,214.42288775410728 703.4967320261438,213.6527984852567 709.2352941176471,214.01777662153924 714.9738562091503,213.55926727242237 720.7124183006536,213.71897873953642 726.4509803921569,210.62865265506747 732.1895424836601,209.5062711473971 737.9281045751634,207.85599511110644 743.6666666666666,206.86182219942665 749.40522875817,204.67251413440172 755.1437908496732,201.85373201364976 760.8823529411765,198.80730130796366 766.6209150326797,196.70013637786204 772.3594771241831,195.04035264550376 778.0980392156863,194.3858572363034 783.8366013071895,193.76942395028 789.5751633986928,194.4750265697424 795.3137254901961,194.93871499639766 801.0522875816994,195.0779030670681 806.7908496732026,194.2484150929949 812.5294117647059,192.9326630066926 818.2679738562092,190.7637221351905 824.0065359477125,188.41601712394205 829.7450980392157,186.7553073895902 835.4836601307189,185.3243898863583 841.2222222222222,183.86282544448136 846.9607843137255,181.78751348019523 852.6993464052288,180.08573751107008 858.437908496732,178.24353564367004 864.1764705882352,176.0344639938457 869.9150326797386,173.36490168642496 875.6535947712418,169.92357175844762 881.3921568627451,166.5569928134147 887.1307189542483,163.63583706103452"/>
<rect x="12" y="32" width="10" height="3" fill="#2563eb"/><text x="26" y="37" font-size="11" fill="#334155">MME 50</text>
<text x="890" y="472" font-size="10" fill="#94a3b8" text-anchor="end">foxonivesting.com.br</text>
</svg>