<svg xmlns="http://www.w3.org/2000/svg" viewBox="0 0 960 484" font-family="Inter,system-ui,sans-serif" font-size="12" role="img">
<rect width="960" height="484" fill="#ffffff"/>
<text x="12" y="22" font-size="15" font-weight="700" fill="#0f172a">ORCL · 1D</text>
<text x="890" y="22" font-size="11" fill="#64748b" text-anchor="end">Yahoo Finance · 2026-03-02 → 2026-10-07</text>
<line x1="12" x2="890" y1="444" y2="444" stroke="#eef1f4"/><text x="898" y="448" fill="#64748b">98.80</text>
<line x1="12" x2="890" y1="364" y2="364" stroke="#eef1f4"/><text x="898" y="368" fill="#64748b">131.85</text>
<line x1="12" x2="890" y1="284" y2="284" stroke="#eef1f4"/><text x="898" y="288" fill="#64748b">164.89</text>
<line x1="12" x2="890" y1="204.00000000000006" y2="204.00000000000006" stroke="#eef1f4"/><text x="898" y="208.00000000000006" fill="#64748b">197.94</text>
<line x1="12" x2="890" y1="124" y2="124" stroke="#eef1f4"/><text x="898" y="128" fill="#64748b">230.99</text>
<line x1="12" x2="890" y1="44" y2="44" stroke="#eef1f4"/><text x="898" y="48" fill="#64748b">264.03</text>
<text x="14.869281045751634" y="472" fill="#64748b" text-anchor="start">02/03/26</text>
<text x="164.0718954248366" y="472" fill="#64748b" text-anchor="middle">08/04/26</text>
<text x="313.27450980392155" y="472" fill="#64748b" text-anchor="middle">14/05/26</text>
<text x="462.47712418300654" y="472" fill="#64748b" text-anchor="middle">23/06/26</text>
<text x="611.6797385620915" y="472" fill="#64748b" text-anchor="middle">30/07/26</text>
<text x="760.8823529411765" y="472" fill="#64748b" text-anchor="middle">04/09/26</text>
<line x1="14.869281045751634" x2="14.869281045751634" y1="319.63966237135287" y2="341.40295899155495" stroke="#16a34a"/><rect x="12.86078431372549" y="321.8668237514014" width="4.0169934640522875" height="18.47096307165839" fill="#16a34a"/>
<line x1="20.607843137254903" x2="20.607843137254903" y1="317.79984304147905" y2="336.8759772754504" stroke="#16a34a"/><rect x="18.599346405228758" y="322.44783682666366" width="4.0169934640522875" height="10.312732747849736" fill="#16a34a"/>
<line x1="26.346405228758172" x2="26.346405228758172" y1="311.3119929874497" y2="322.2299338365834" stroke="#16a34a"/><rect x="24.337908496732027" y="314.31383846784786" width="4.0169934640522875" height="5.713165953679777" fill="#16a34a"/>
<line x1="32.08496732026144" x2="32.08496732026144" y1="300.8297842405343" y2="319.7607113794038" stroke="#16a34a"/><rect x="30.076470588235296" y="308.4554284800953" width="4.0169934640522875" height="5.325823903505011" fill="#16a34a"/>
<line x1="37.82352941176471" x2="37.82352941176471" y1="297.8037437341143" y2="316.1294627716999" stroke="#16a34a"/><rect x="35.815032679738565" y="312.8855192751996" width="4.0169934640522875" height="1" fill="#16a34a"/>
<line x1="43.56209150326798" x2="43.56209150326798" y1="315.20953463727744" y2="328.693588864591" stroke="#16a34a"/><rect x="41.55359477124183" y="316.27470680577267" width="4.0169934640522875" height="2.0819173459757394" fill="#16a34a"/>
<line x1="49.30065359477124" x2="49.30065359477124" y1="310.0289547678453" y2="323.80349706330446" stroke="#dc2626"/><rect x="47.292156862745095" y="311.2877979614279" width="4.0169934640522875" height="10.215915704791541" fill="#dc2626"/>
<line x1="55.03921568627451" x2="55.03921568627451" y1="267.37389960981983" y2="294.43878816853413" stroke="#dc2626"/><rect x="53.030718954248364" y="280.39795283095117" width="4.0169934640522875" height="7.891937281684761" fill="#dc2626"/>
<line x1="60.77777777777778" x2="60.77777777777778" y1="276.8877532312982" y2="299.2078309617697" stroke="#dc2626"/><rect x="58.76928104575163" y="284.56178752290276" width="4.0169934640522875" height="13.314578228247967" fill="#dc2626"/>
<line x1="66.51633986928104" x2="66.51633986928104" y1="293.9788241013229" y2="310.0047597418235" stroke="#dc2626"/><rect x="64.5078431372549" y="298.1426587932745" width="4.0169934640522875" height="9.53808558647114" fill="#dc2626"/>
<line x1="72.25490196078431" x2="72.25490196078431" y1="298.8931109286313" y2="309.13325859841564" stroke="#dc2626"/><rect x="70.24640522875816" y="305.38096098266067" width="4.0169934640522875" height="1" fill="#dc2626"/>
<line x1="77.99346405228758" x2="77.99346405228758" y1="298.4573788264129" y2="311.57828602957346" stroke="#dc2626"/><rect x="75.98496732026143" y="306.88186525337426" width="4.0169934640522875" height="1.8156243038520188" fill="#dc2626"/>
<line x1="83.73202614379085" x2="83.73202614379085" y1="308.0196594389059" y2="315.11271759421925" stroke="#dc2626"/><rect x="81.7235294117647" y="311.8203840456755" width="4.0169934640522875" height="1.2104162025679557" fill="#dc2626"/>
<line x1="89.47058823529412" x2="89.47058823529412" y1="303.2990436366849" y2="322.73832489480924" stroke="#16a34a"/><rect x="87.46209150326797" y="306.6881942282869" width="4.0169934640522875" height="12.249406059752744" fill="#16a34a"/>
<line x1="95.20915032679738" x2="95.20915032679738" y1="312.18349413085747" y2="325.0139132658724" stroke="#dc2626"/><rect x="93.20065359477124" y="312.6676532240905" width="4.0169934640522875" height="8.158230323808539" fill="#dc2626"/>
<line x1="100.94771241830065" x2="100.94771241830065" y1="306.0587911009811" y2="318.3323921867556" stroke="#16a34a"/><rect x="98.93921568627451" y="309.54479567461226" width="4.0169934640522875" height="7.0688261903205785" fill="#16a34a"/>
<line x1="106.68627450980392" x2="106.68627450980392" y1="310.6099678431075" y2="327.67680674813937" stroke="#dc2626"/><rect x="104.67777777777778" y="312.7887022321415" width="4.0169934640522875" height="14.30712837970674" fill="#dc2626"/>
<line x1="112.42483660130719" x2="112.42483660130719" y1="320.43854149772426" y2="333.12367965969537" stroke="#dc2626"/><rect x="110.41633986928105" y="321.91525074241605" width="4.0169934640522875" height="7.770851334662723" fill="#dc2626"/>
<line x1="118.16339869281046" x2="118.16339869281046" y1="328.5967348825618" y2="338.1106254430112" stroke="#dc2626"/><rect x="116.15490196078431" y="334.8424869204892" width="4.0169934640522875" height="2.614503430223351" fill="#dc2626"/>
<line x1="123.90196078431373" x2="123.90196078431373" y1="340.16831082399415" y2="348.3749311998463" stroke="#dc2626"/><rect x="121.89346405228758" y="342.00816709283896" width="4.0169934640522875" height="3.0744305584635754" fill="#dc2626"/>
<line x1="129.640522875817" x2="129.640522875817" y1="341.35453200054036" y2="351.6430697223683" stroke="#dc2626"/><rect x="127.63202614379085" y="344.16270645585115" width="4.0169934640522875" height="3.001808541427181" fill="#dc2626"/>
<line x1="135.37908496732027" x2="135.37908496732027" y1="326.3453784764914" y2="344.6226335840913" stroke="#16a34a"/><rect x="133.37058823529412" y="327.0474036208336" width="4.0169934640522875" height="16.48586276874073" fill="#16a34a"/>
<line x1="141.11764705882354" x2="141.11764705882354" y1="320.8985055649355" y2="332.9542405996008" stroke="#dc2626"/><rect x="139.1091503267974" y="322.2541658015762" width="4.0169934640522875" height="9.344414561383758" fill="#dc2626"/>
<line x1="146.8562091503268" x2="146.8562091503268" y1="328.6693568995982" y2="343.53326638957435" stroke="#16a34a"/><rect x="144.84771241830066" y="328.814600933671" width="4.0169934640522875" height="8.715011434078008" fill="#16a34a"/>
<line x1="152.59477124183007" x2="152.59477124183007" y1="323.5613990472024" y2="334.9393039635474" stroke="#dc2626"/><rect x="150.58627450980393" y="326.24852449446223" width="4.0169934640522875" height="4.5996037331409525" fill="#dc2626"/>
<line x1="158.33333333333334" x2="158.33333333333334" y1="333.19630167673176" y2="344.40476753298213" stroke="#dc2626"/><rect x="156.3248366013072" y="335.10877996261297" width="4.0169934640522875" height="1.4767092446918468" fill="#dc2626"/>
<line x1="164.0718954248366" x2="164.0718954248366" y1="316.51676788290365" y2="337.23912429960336" stroke="#dc2626"/><rect x="162.06339869281047" y="319.32494233821444" width="4.0169934640522875" height="16.074325692544107" fill="#dc2626"/>
<line x1="169.81045751633988" x2="169.81045751633988" y1="337.48118537673435" y2="353.9428531194533" stroke="#dc2626"/><rect x="167.80196078431374" y="338.9336995954044" width="4.0169934640522875" height="10.50640377293712" fill="#dc2626"/>
<line x1="175.54901960784315" x2="175.54901960784315" y1="343.8479864227128" y2="357.4046257280917" stroke="#16a34a"/><rect x="173.540522875817" y="348.8833222580721" width="4.0169934640522875" height="1.8640143558956197" fill="#16a34a"/>
<line x1="181.28758169934642" x2="181.28758169934642" y1="305.7440710678427" y2="344.93735361722975" stroke="#16a34a"/><rect x="179.27908496732027" y="306.4461331511559" width="4.0169934640522875" height="38.37017145802281" fill="#16a34a"/>
<line x1="187.0261437908497" x2="187.0261437908497" y1="273.0870655634996" y2="292.06638275441276" stroke="#dc2626"/><rect x="185.01764705882354" y="276.6456921541672" width="4.0169934640522875" height="11.934686026614372" fill="#dc2626"/>
<line x1="192.76470588235296" x2="192.76470588235296" y1="265.4372262979168" y2="280.80948990714774" stroke="#16a34a"/><rect x="190.7562091503268" y="272.0945154120408" width="4.0169934640522875" height="7.0688261903205785" fill="#16a34a"/>
<line x1="198.5032679738562" x2="198.5032679738562" y1="246.7725922011711" y2="262.43538081751865" stroke="#16a34a"/><rect x="196.49477124183005" y="251.44481795134848" width="4.0169934640522875" height="4.647993785184582" fill="#16a34a"/>
<line x1="204.24183006535947" x2="204.24183006535947" y1="236.53248147035774" y2="263.5005529860139" stroke="#dc2626"/><rect x="202.23333333333332" y="240.33320607712733" width="4.0169934640522875" height="19.051939207949545" fill="#dc2626"/>
<line x1="209.98039215686273" x2="209.98039215686273" y1="252.84890517900388" y2="263.13744290083184" stroke="#16a34a"/><rect x="207.9718954248366" y="253.28463728122227" width="4.0169934640522875" height="1.8640512948665844" fill="#16a34a"/>
<line x1="215.718954248366" x2="215.718954248366" y1="234.49899111539656" y2="257.0853618879919" stroke="#16a34a"/><rect x="213.71045751633986" y="244.5938578121371" width="4.0169934640522875" height="6.826728174218573" fill="#16a34a"/>
<line x1="221.45751633986927" x2="221.45751633986927" y1="225.2030035450274" y2="240.6478891712947" stroke="#16a34a"/><rect x="219.44901960784313" y="229.26998425494975" width="4.0169934640522875" height="3.195516505485614" fill="#16a34a"/>
<line x1="227.19607843137254" x2="227.19607843137254" y1="242.85085552532155" y2="261.75755069919825" stroke="#dc2626"/><rect x="225.1875816993464" y="246.45790910700373" width="4.0169934640522875" height="9.973817688689564" fill="#dc2626"/>
<line x1="232.9346405228758" x2="232.9346405228758" y1="245.7074200326759" y2="274.5395428431986" stroke="#dc2626"/><rect x="230.92614379084966" y="246.19161606487992" width="4.0169934640522875" height="17.50260794622133" fill="#dc2626"/>
<line x1="238.67320261437908" x2="238.67320261437908" y1="263.04058891880265" y2="276.7183141712036" stroke="#16a34a"/><rect x="236.66470588235293" y="264.4688711724798" width="4.0169934640522875" height="1" fill="#16a34a"/>
<line x1="244.41176470588235" x2="244.41176470588235" y1="274.78164085930064" y2="290.88016157786655" stroke="#16a34a"/><rect x="242.4032679738562" y="281.41469800843174" width="4.0169934640522875" height="9.199170527311026" fill="#16a34a"/>
<line x1="250.15032679738562" x2="250.15032679738562" y1="284.3197264457718" y2="294.26934910843954" stroke="#dc2626"/><rect x="248.14183006535947" y="286.0627287325874" width="4.0169934640522875" height="1" fill="#dc2626"/>
<line x1="255.88888888888889" x2="255.88888888888889" y1="283.3029812682912" y2="295.04399626981814" stroke="#dc2626"/><rect x="253.88039215686274" y="290.95278359490294" width="4.0169934640522875" height="1.5251362357064409" fill="#dc2626"/>
<line x1="261.62745098039215" x2="261.62745098039215" y1="261.22496461495064" y2="280.95477088019163" stroke="#16a34a"/><rect x="259.61895424836604" y="267.20442361075425" width="4.0169934640522875" height="13.096712177138727" fill="#16a34a"/>
<line x1="267.3660130718954" x2="267.3660130718954" y1="238.9533138754937" y2="261.3218185969798" stroke="#16a34a"/><rect x="265.3575163398693" y="246.7242021491275" width="4.0169934640522875" height="10.336927773871537" fill="#16a34a"/>
<line x1="273.1045751633987" x2="273.1045751633987" y1="231.64238966907115" y2="249.84705969860568" stroke="#16a34a"/><rect x="271.0960784313726" y="234.4747591504037" width="4.0169934640522875" height="7.795083299655573" fill="#16a34a"/>
<line x1="278.843137254902" x2="278.843137254902" y1="212.83254847722364" y2="240.9626092044331" stroke="#16a34a"/><rect x="276.8346405228759" y="213.46195160452945" width="4.0169934640522875" height="18.95512216489132" fill="#16a34a"/>
<line x1="284.58169934640523" x2="284.58169934640523" y1="198.64646910556786" y2="221.28122993020682" stroke="#dc2626"/><rect x="282.5732026143791" y="202.37453475633006" width="4.0169934640522875" height="9.731756611558552" fill="#dc2626"/>
<line x1="290.32026143790847" x2="290.32026143790847" y1="203.85124400102185" y2="222.709512183884" stroke="#16a34a"/><rect x="288.31176470588235" y="208.81395781934484" width="4.0169934640522875" height="8.158193384837574" fill="#16a34a"/>
<line x1="296.05882352941177" x2="296.05882352941177" y1="209.46759291164346" y2="221.76538902343978" stroke="#16a34a"/><rect x="294.05032679738565" y="213.92191567174063" width="4.0169934640522875" height="4.09121267491517" fill="#16a34a"/>
<line x1="301.797385620915" x2="301.797385620915" y1="216.1490770517892" y2="245.3201149214721" stroke="#dc2626"/><rect x="299.7888888888889" y="216.1490770517892" width="4.0169934640522875" height="14.742860481925163" fill="#dc2626"/>
<line x1="307.5359477124183" x2="307.5359477124183" y1="219.41717863534018" y2="235.17682123371696" stroke="#16a34a"/><rect x="305.5274509803922" y="223.79891631737198" width="4.0169934640522875" height="1.7671973128373963" fill="#16a34a"/>
<line x1="313.27450980392155" x2="313.27450980392155" y1="197.29077192995607" y2="234.23269807327273" stroke="#16a34a"/><rect x="311.26601307189543" y="209.63703197173805" width="4.0169934640522875" height="17.986803978425314" fill="#16a34a"/>
<line x1="319.01307189542484" x2="319.01307189542484" y1="207.65196860779145" y2="225.88083366334777" stroke="#16a34a"/><rect x="317.0045751633987" y="216.0764550347528" width="4.0169934640522875" height="5.955227030810789" fill="#16a34a"/>
<line x1="324.7516339869281" x2="324.7516339869281" y1="221.378083912236" y2="239.51009498576312" stroke="#dc2626"/><rect x="322.74313725490197" y="223.21790324210977" width="4.0169934640522875" height="8.206620375852197" fill="#dc2626"/>
<line x1="330.4901960784314" x2="330.4901960784314" y1="226.3165657655662" y2="245.17487088739932" stroke="#dc2626"/><rect x="328.48169934640526" y="232.90123286265376" width="4.0169934640522875" height="10.990562866170137" fill="#dc2626"/>
<line x1="336.2287581699346" x2="336.2287581699346" y1="227.52698196813418" y2="250.3312187918387" stroke="#16a34a"/><rect x="334.2202614379085" y="227.67222600220697" width="4.0169934640522875" height="19.899245325335528" fill="#16a34a"/>
<line x1="341.9673202614379" x2="341.9673202614379" y1="216.39113812892018" y2="229.99624136428474" stroke="#16a34a"/><rect x="339.9588235294118" y="223.77468435237918" width="4.0169934640522875" height="1.8398562688448123" fill="#16a34a"/>
<line x1="347.70588235294116" x2="347.70588235294116" y1="206.27207640615785" y2="220.55497282087177" stroke="#16a34a"/><rect x="345.69738562091504" y="218.1825674067504" width="4.0169934640522875" height="1" fill="#16a34a"/>
<line x1="353.44444444444446" x2="353.44444444444446" y1="210.62958212319685" y2="221.862243005469" stroke="#dc2626"/><rect x="351.43594771241834" y="215.2291489173668" width="4.0169934640522875" height="1" fill="#dc2626"/>
<line x1="359.1830065359477" x2="359.1830065359477" y1="218.0373233726776" y2="228.25323907746915" stroke="#dc2626"/><rect x="357.1745098039216" y="219.6350816254204" width="4.0169934640522875" height="1.258806254611585" fill="#dc2626"/>
<line x1="364.921568627451" x2="364.921568627451" y1="186.90541716506993" y2="215.0354778922794" stroke="#16a34a"/><rect x="362.9130718954249" y="190.05250667954093" width="4.0169934640522875" height="23.38524989896672" fill="#16a34a"/>
<line x1="370.66013071895424" x2="370.66013071895424" y1="135.3659115128719" y2="179.61872492364017" stroke="#16a34a"/><rect x="368.6516339869281" y="136.6005227414617" width="4.0169934640522875" height="40.621564803064246" fill="#16a34a"/>
<line x1="376.39869281045753" x2="376.39869281045753" y1="77.36275083266634" y2="139.4570872488161" stroke="#16a34a"/><rect x="374.3901960784314" y="82.4465136590403" width="4.0169934640522875" height="42.72767717506184" fill="#16a34a"/>
<line x1="382.1372549019608" x2="382.1372549019608" y1="80.38879133908631" y2="104.98445744062099" stroke="#16a34a"/><rect x="380.12875816993466" y="91.08886613711087" width="4.0169934640522875" height="4.3090787260243815" fill="#16a34a"/>
<line x1="387.87581699346407" x2="387.87581699346407" y1="100.94167175672044" y2="132.17039500738633" stroke="#dc2626"/><rect x="385.86732026143795" y="101.01429377375683" width="4.0169934640522875" height="24.571434136541882" fill="#dc2626"/>
<line x1="393.6143790849673" x2="393.6143790849673" y1="104.71816439849721" y2="140.90960146748608" stroke="#16a34a"/><rect x="391.6058823529412" y="111.03653845346099" width="4.0169934640522875" height="22.61056579861713" fill="#16a34a"/>
<line x1="399.3529411764706" x2="399.3529411764706" y1="122.89860246303891" y2="176.13272035000898" stroke="#dc2626"/><rect x="397.3444444444445" y="127.61921826525992" width="4.0169934640522875" height="38.273391353935665" fill="#dc2626"/>
<line x1="405.09150326797385" x2="405.09150326797385" y1="152.86851945909325" y2="176.42320841815456" stroke="#dc2626"/><rect x="403.08300653594773" y="156.039803999586" width="4.0169934640522875" height="14.35551843175034" fill="#dc2626"/>
<line x1="410.83006535947715" x2="410.83006535947715" y1="149.38251488546206" y2="204.3596350592477" stroke="#dc2626"/><rect x="408.82156862745103" y="165.33579156995518" width="4.0169934640522875" height="19.60875725718995" fill="#dc2626"/>
<line x1="416.5686274509804" x2="416.5686274509804" y1="168.79760111756457" y2="203.4155118988035" stroke="#16a34a"/><rect x="414.56013071895427" y="195.9593436583081" width="4.0169934640522875" height="6.681484140145756" fill="#16a34a"/>
<line x1="422.3071895424837" x2="422.3071895424837" y1="235.87884637805914" y2="258.85255920082926" stroke="#16a34a"/><rect x="420.29869281045757" y="237.50079965682374" width="4.0169934640522875" height="10.724306763017353" fill="#16a34a"/>
<line x1="428.0457516339869" x2="428.0457516339869" y1="233.91797804013433" y2="249.84705969860568" stroke="#dc2626"/><rect x="426.0372549019608" y="235.29787024176795" width="4.0169934640522875" height="2.1303073980193403" fill="#dc2626"/>
<line x1="433.7843137254902" x2="433.7843137254902" y1="210.33905711608023" y2="232.39284180442792" stroke="#16a34a"/><rect x="431.7758169934641" y="216.82690717010962" width="4.0169934640522875" height="12.709370126963961" fill="#16a34a"/>
<line x1="439.52287581699346" x2="439.52287581699346" y1="210.33905711608023" y2="228.88264220477495" stroke="#dc2626"/><rect x="437.51437908496735" y="223.19370821608797" width="4.0169934640522875" height="4.066980709922376" fill="#dc2626"/>
<line x1="445.26143790849676" x2="445.26143790849676" y1="222.75793917489858" y2="241.1804752555423" stroke="#dc2626"/><rect x="443.25294117647064" y="232.51389081247896" width="4.0169934640522875" height="6.366801045978349" fill="#dc2626"/>
<line x1="451" x2="451" y1="228.08376307840356" y2="252.9941492130767" stroke="#16a34a"/><rect x="448.9915032679739" y="237.04087252858352" width="4.0169934640522875" height="3.098662523456426" fill="#16a34a"/>
<line x1="456.7385620915033" x2="456.7385620915033" y1="236.33881044527035" y2="260.98290353781965" stroke="#dc2626"/><rect x="454.7300653594772" y="241.83411034784092" width="4.0169934640522875" height="17.526802972243104" fill="#dc2626"/>
<line x1="462.47712418300654" x2="462.47712418300654" y1="261.15234259791424" y2="284.68283653095375" stroke="#dc2626"/><rect x="460.4686274509804" y="271.0777702345602" width="4.0169934640522875" height="12.273601085774544" fill="#dc2626"/>
<line x1="468.21568627450984" x2="468.21568627450984" y1="281.92308906665755" y2="307.0997313044835" stroke="#dc2626"/><rect x="466.2071895424837" y="289.8392213743642" width="4.0169934640522875" height="11.98311301762891" fill="#dc2626"/>
<line x1="473.9542483660131" x2="473.9542483660131" y1="301.6044683408839" y2="319.17969830414165" stroke="#dc2626"/><rect x="471.94575163398696" y="302.25806649421145" width="4.0169934640522875" height="11.837868983556177" fill="#dc2626"/>
<line x1="479.6928104575163" x2="479.6928104575163" y1="311.48146898651527" y2="324.89286425782143" stroke="#dc2626"/><rect x="477.6843137254902" y="319.42179632024363" width="4.0169934640522875" height="4.188029717973393" fill="#dc2626"/>
<line x1="485.4313725490196" x2="485.4313725490196" y1="309.1574536244375" y2="331.6712023799964" stroke="#dc2626"/><rect x="483.4228758169935" y="310.5131138610783" width="4.0169934640522875" height="14.96076347200534" fill="#dc2626"/>
<line x1="491.16993464052285" x2="491.16993464052285" y1="320.220675446615" y2="333.414204666812" stroke="#dc2626"/><rect x="489.16143790849674" y="326.7084885616734" width="4.0169934640522875" height="1.6945752958010303" fill="#dc2626"/>
<line x1="496.90849673202615" x2="496.90849673202615" y1="325.9822314523384" y2="338.20744248606934" stroke="#dc2626"/><rect x="494.90000000000003" y="333.38997270181915" width="4.0169934640522875" height="4.817469784250193" fill="#dc2626"/>
<line x1="502.6470588235294" x2="502.6470588235294" y1="327.1684526288846" y2="347.09189298024194" stroke="#dc2626"/><rect x="500.6385620915033" y="336.2707691741664" width="4.0169934640522875" height="7.335119232444356" fill="#dc2626"/>
<line x1="508.3856209150327" x2="508.3856209150327" y1="330.6544572025158" y2="341.45134904359855" stroke="#dc2626"/><rect x="506.3771241830066" y="333.84993676903036" width="4.0169934640522875" height="1.3072701845972006" fill="#dc2626"/>
<line x1="514.124183006536" x2="514.124183006536" y1="330.7997012365886" y2="350.1905555036983" stroke="#dc2626"/><rect x="512.1156862745098" y="335.25402399668576" width="4.0169934640522875" height="5.132152878417628" fill="#dc2626"/>
<line x1="519.8627450980392" x2="519.8627450980392" y1="339.8052007388122" y2="350.1905555036983" stroke="#16a34a"/><rect x="517.854248366013" y="343.07330232236313" width="4.0169934640522875" height="3.4618095476093913" fill="#16a34a"/>
<line x1="525.6013071895425" x2="525.6013071895425" y1="322.3025558536198" y2="341.98393512784617" stroke="#16a34a"/><rect x="523.5928104575163" y="334.04360779411775" width="4.0169934640522875" height="6.7783381221750005" fill="#16a34a"/>
<line x1="531.3398692810457" x2="531.3398692810457" y1="330.509213168443" y2="346.05095277673956" stroke="#dc2626"/><rect x="529.3313725490195" y="330.5818351854794" width="4.0169934640522875" height="12.128357051701755" fill="#dc2626"/>
<line x1="537.0784313725491" x2="537.0784313725491" y1="345.10682961629533" y2="365.19970902774725" stroke="#dc2626"/><rect x="535.0699346405229" y="346.6077338870089" width="4.0169934640522875" height="18.13204801249816" fill="#dc2626"/>
<line x1="542.8169934640523" x2="542.8169934640523" y1="361.7863634101235" y2="374.2778490164927" stroke="#dc2626"/><rect x="540.8084967320261" y="363.62618273999726" width="4.0169934640522875" height="9.828573654616775" fill="#dc2626"/>
<line x1="548.5555555555555" x2="548.5555555555555" y1="359.0266159458273" y2="371.27602200558005" stroke="#16a34a"/><rect x="546.5470588235294" y="362.43996156345105" width="4.0169934640522875" height="4.672225750177404" fill="#16a34a"/>
<line x1="554.2941176470588" x2="554.2941176470588" y1="364.1587688242449" y2="383.81591613347837" stroke="#dc2626"/><rect x="552.2856209150326" y="364.88502593357987" width="4.0169934640522875" height="17.59944345876505" fill="#dc2626"/>
<line x1="560.0326797385621" x2="560.0326797385621" y1="372.244340192046" y2="389.0449229939252" stroke="#16a34a"/><rect x="558.024183006536" y="377.1586270193544" width="4.0169934640522875" height="11.40213688133781" fill="#16a34a"/>
<line x1="565.7712418300654" x2="565.7712418300654" y1="379.3858068688885" y2="392.60354958459277" stroke="#dc2626"/><rect x="563.7627450980392" y="382.33922535827213" width="4.0169934640522875" height="6.996204173284127" fill="#dc2626"/>
<line x1="571.5098039215686" x2="571.5098039215686" y1="374.71359958819664" y2="387.3261342026169" stroke="#16a34a"/><rect x="569.5013071895424" y="375.6092957576262" width="4.0169934640522875" height="10.264342695806135" fill="#16a34a"/>
<line x1="577.2483660130719" x2="577.2483660130719" y1="371.27602200558005" y2="381.2982666852842" stroke="#dc2626"/><rect x="575.2398692810457" y="377.7154265991093" width="4.0169934640522875" height="1" fill="#dc2626"/>
<line x1="582.9869281045752" x2="582.9869281045752" y1="381.2982666852842" y2="394.03183183826997" stroke="#dc2626"/><rect x="580.978431372549" y="383.0896774936289" width="4.0169934640522875" height="9.489658595456547" fill="#dc2626"/>
<line x1="588.7254901960785" x2="588.7254901960785" y1="385.22000336113376" y2="405.3855417285931" stroke="#dc2626"/><rect x="586.7169934640523" y="386.6967126058256" width="4.0169934640522875" height="18.107834516990806" fill="#dc2626"/>
<line x1="594.4640522875817" x2="594.4640522875817" y1="387.85872028686447" y2="400.42282791027014" stroke="#16a34a"/><rect x="592.4555555555555" y="392.91825114824564" width="4.0169934640522875" height="4.599585263655513" fill="#16a34a"/>
<line x1="600.2026143790849" x2="600.2026143790849" y1="387.0356276649858" y2="405.99074982987713" stroke="#16a34a"/><rect x="598.1941176470588" y="392.77300711417286" width="4.0169934640522875" height="4.3090787260243815" fill="#16a34a"/>
<line x1="605.9411764705883" x2="605.9411764705883" y1="388.0281778164446" y2="401.87534212894013" stroke="#dc2626"/><rect x="603.9326797385621" y="394.08025882928456" width="4.0169934640522875" height="4.066999179407901" fill="#dc2626"/>
<line x1="611.6797385620915" x2="611.6797385620915" y1="372.48643820814806" y2="388.8512519688378" stroke="#16a34a"/><rect x="609.6712418300654" y="374.3746845290364" width="4.0169934640522875" height="11.353691420837663" fill="#16a34a"/>
<line x1="617.4183006535948" x2="617.4183006535948" y1="362.6578645535313" y2="378.87743428014824" stroke="#dc2626"/><rect x="615.4098039215686" y="368.2983715512037" width="4.0169934640522875" height="1" fill="#dc2626"/>
<line x1="623.156862745098" x2="623.156862745098" y1="336.8275502844358" y2="367.95945649204344" stroke="#16a34a"/><rect x="621.1483660130718" y="339.7809687738193" width="4.0169934640522875" height="24.03888499126532" fill="#16a34a"/>
<line x1="628.8954248366014" x2="628.8954248366014" y1="323.19828896202046" y2="341.8144960677516" stroke="#16a34a"/><rect x="626.8869281045752" y="330.36393219539923" width="4.0169934640522875" height="11.450563872352348" fill="#16a34a"/>
<line x1="634.6339869281046" x2="634.6339869281046" y1="328.7904059076492" y2="338.20744248606934" stroke="#dc2626"/><rect x="632.6254901960784" y="332.1553614732294" width="4.0169934640522875" height="1.47670924469179" fill="#dc2626"/>
<line x1="640.3725490196078" x2="640.3725490196078" y1="328.330441840438" y2="347.3581860223657" stroke="#16a34a"/><rect x="638.3640522875817" y="335.85923209796977" width="4.0169934640522875" height="10.215915704791541" fill="#16a34a"/>
<line x1="646.1111111111111" x2="646.1111111111111" y1="326.9263546127826" y2="338.59478453624416" stroke="#16a34a"/><rect x="644.1026143790849" y="327.2652696719428" width="4.0169934640522875" height="4.115407700936942" fill="#16a34a"/>
<line x1="651.8496732026144" x2="651.8496732026144" y1="315.23372966329924" y2="328.23362479737983" stroke="#16a34a"/><rect x="649.8411764705883" y="317.5093180343624" width="4.0169934640522875" height="6.7541430961532" fill="#16a34a"/>
<line x1="657.5882352941177" x2="657.5882352941177" y1="315.23372966329924" y2="333.99518080310315" stroke="#dc2626"/><rect x="655.5797385620915" y="317.14620794918045" width="4.0169934640522875" height="13.847164312495522" fill="#dc2626"/>
<line x1="663.3267973856209" x2="663.3267973856209" y1="308.21333046399326" y2="325.1591572999452" stroke="#16a34a"/><rect x="661.3183006535947" y="312.1108721138211" width="4.0169934640522875" height="1.1377941855315612" fill="#16a34a"/>
<line x1="669.0653594771242" x2="669.0653594771242" y1="297.63430467401975" y2="315.4274006883867" stroke="#16a34a"/><rect x="667.056862745098" y="304.9936189324859" width="4.0169934640522875" height="10.264342695806135" fill="#16a34a"/>
<line x1="674.8039215686274" x2="674.8039215686274" y1="304.5820818562893" y2="322.9561909459184" stroke="#dc2626"/><rect x="672.7954248366012" y="305.9135470669083" width="4.0169934640522875" height="12.87880918705855" fill="#dc2626"/>
<line x1="680.5424836601308" x2="680.5424836601308" y1="319.08288126108346" y2="330.9449452706614" stroke="#dc2626"/><rect x="678.5339869281046" y="323.80349706330446" width="4.0169934640522875" height="4.3575057170389755" fill="#dc2626"/>
<line x1="686.281045751634" x2="686.281045751634" y1="329.73452906809337" y2="338.57055257125137" stroke="#dc2626"/><rect x="684.2725490196078" y="336.3918181822174" width="4.0169934640522875" height="1.1135991595097607" fill="#dc2626"/>
<line x1="692.0196078431372" x2="692.0196078431372" y1="329.540858043006" y2="350.48108051081493" stroke="#16a34a"/><rect x="690.0111111111111" y="335.0361579455766" width="4.0169934640522875" height="2.6871254472598025" fill="#16a34a"/>
<line x1="697.7581699346405" x2="697.7581699346405" y1="329.9282000931808" y2="341.7902641027588" stroke="#dc2626"/><rect x="695.7496732026143" y="333.84993676903036" width="4.0169934640522875" height="5.398445920541349" fill="#dc2626"/>
<line x1="703.4967320261438" x2="703.4967320261438" y1="324.04555814043545" y2="337.96534446996736" stroke="#16a34a"/><rect x="701.4882352941177" y="328.5967348825618" width="4.0169934640522875" height="6.657289114123955" fill="#16a34a"/>
<line x1="709.2352941176471" x2="709.2352941176471" y1="331.8648734050838" y2="341.23348299248937" stroke="#dc2626"/><rect x="707.2267973856209" y="331.8648734050838" width="4.0169934640522875" height="6.463618089036572" fill="#dc2626"/>
<line x1="714.9738562091503" x2="714.9738562091503" y1="328.91145491570023" y2="338.1832474600476" stroke="#16a34a"/><rect x="712.9653594771241" y="332.7363745484916" width="4.0169934640522875" height="3.5343946256747927" fill="#16a34a"/>
<line x1="720.7124183006536" x2="720.7124183006536" y1="316.105230806707" y2="327.72523373915396" stroke="#16a34a"/><rect x="718.7039215686274" y="322.78675188582383" width="4.0169934640522875" height="4.526944777133565" fill="#16a34a"/>
<line x1="726.4509803921569" x2="726.4509803921569" y1="310.779406903202" y2="326.0548534693748" stroke="#dc2626"/><rect x="724.4424836601307" y="314.9432415951536" width="4.0169934640522875" height="1" fill="#dc2626"/>
<line x1="732.1895424836601" x2="732.1895424836601" y1="310.39206485302725" y2="320.75322459189164" stroke="#dc2626"/><rect x="730.181045751634" y="311.3361880134714" width="4.0169934640522875" height="6.657289114124012" fill="#dc2626"/>
<line x1="737.9281045751634" x2="737.9281045751634" y1="317.00096391510766" y2="325.49807235910544" stroke="#dc2626"/><rect x="735.9196078431372" y="321.7215797173286" width="4.0169934640522875" height="1" fill="#dc2626"/>
<line x1="743.6666666666666" x2="743.6666666666666" y1="327.8220877211832" y2="344.38057250696033" stroke="#dc2626"/><rect x="741.6581699346405" y="327.9189047642414" width="4.0169934640522875" height="13.145102229182328" fill="#dc2626"/>
<line x1="749.40522875817" x2="749.40522875817" y1="328.0641487983142" y2="344.93735361722975" stroke="#16a34a"/><rect x="747.3967320261438" y="330.3397371693774" width="4.0169934640522875" height="13.290383202226167" fill="#16a34a"/>
<line x1="755.1437908496732" x2="755.1437908496732" y1="303.66215372186684" y2="327.50736768804484" stroke="#16a34a"/><rect x="753.135294117647" y="310.2710527839473" width="4.0169934640522875" height="16.389008786711486" fill="#16a34a"/>
<line x1="760.8823529411765" x2="760.8823529411765" y1="296.5691325055245" y2="303.8073977559397" stroke="#dc2626"/><rect x="758.8738562091503" y="297.1501086418157" width="4.0169934640522875" height="1.6461852437574294" fill="#dc2626"/>
<line x1="766.6209150326797" x2="766.6209150326797" y1="269.9399760490286" y2="293.0347009408787" stroke="#dc2626"/><rect x="764.6124183006535" y="277.4445343415676" width="4.0169934640522875" height="12.297833050767338" fill="#dc2626"/>
<line x1="772.3594771241831" x2="772.3594771241831" y1="283.37560328532754" y2="294.97137425278174" stroke="#dc2626"/><rect x="770.3509803921569" y="287.27314493515536" width="4.0169934640522875" height="4.62376182019176" fill="#dc2626"/>
<line x1="778.0980392156863" x2="778.0980392156863" y1="297.68269472606335" y2="313.95069144369484" stroke="#dc2626"/><rect x="776.0895424836601" y="299.7646120720391" width="4.0169934640522875" height="13.169334194175178" fill="#dc2626"/>
<line x1="783.8366013071895" x2="783.8366013071895" y1="281.31788096537355" y2="320.43854149772426" stroke="#dc2626"/><rect x="781.8281045751634" y="285.11860557214317" width="4.0169934640522875" height="34.25476375708587" fill="#dc2626"/>
<line x1="789.5751633986928" x2="789.5751633986928" y1="331.356482346858" y2="341.8144960677516" stroke="#16a34a"/><rect x="787.5666666666666" y="332.6637525314552" width="4.0169934640522875" height="8.158193384837546" fill="#16a34a"/>
<line x1="795.3137254901961" x2="795.3137254901961" y1="332.44584954137497" y2="344.21109650789475" stroke="#dc2626"/><rect x="793.30522875817" y="335.88342712399157" width="4.0169934640522875" height="7.528790257531739" fill="#dc2626"/>
<line x1="801.0522875816994" x2="801.0522875816994" y1="328.4756858745108" y2="346.6803559040453" stroke="#16a34a"/><rect x="799.0437908496732" y="336.60968423332656" width="4.0169934640522875" height="7.57721724854639" fill="#16a34a"/>
<line x1="806.7908496732026" x2="806.7908496732026" y1="315.20953463727744" y2="329.3714189829114" stroke="#16a34a"/><rect x="804.7823529411764" y="318.62291719387224" width="4.0169934640522875" height="9.295987570369164" fill="#16a34a"/>
<line x1="812.5294117647059" x2="812.5294117647059" y1="317.87246505851544" y2="333.6078756918994" stroke="#dc2626"/><rect x="810.5209150326797" y="318.9134052620178" width="4.0169934640522875" height="6.9235821562477895" fill="#dc2626"/>
<line x1="818.2679738562092" x2="818.2679738562092" y1="320.09962643856403" y2="329.3471870179186" stroke="#dc2626"/><rect x="816.259477124183" y="322.64150785175104" width="4.0169934640522875" height="1" fill="#dc2626"/>
<line x1="824.0065359477125" x2="824.0065359477125" y1="311.3361880134714" y2="323.44035003915144" stroke="#dc2626"/><rect x="821.9980392156863" y="317.02515894112946" width="4.0169934640522875" height="4.962713818322982" fill="#dc2626"/>
<line x1="829.7450980392157" x2="829.7450980392157" y1="323.2951060050786" y2="334.019412768096" stroke="#dc2626"/><rect x="827.7366013071895" y="324.1666071484864" width="4.0169934640522875" height="9.053926493238237" fill="#dc2626"/>
<line x1="835.4836601307189" x2="835.4836601307189" y1="343.43644934651616" y2="360.04336112330793" stroke="#16a34a"/><rect x="833.4751633986928" y="345.37312265841916" width="4.0169934640522875" height="5.374213955548555" fill="#16a34a"/>
<line x1="841.2222222222222" x2="841.2222222222222" y1="342.12917916191896" y2="351.71569173940475" stroke="#dc2626"/><rect x="839.213725490196" y="347.7212961075477" width="4.0169934640522875" height="3.558626590667643" fill="#dc2626"/>
<line x1="846.9607843137255" x2="846.9607843137255" y1="354.69330525481007" y2="364.6429279174779" stroke="#dc2626"/><rect x="844.9522875816994" y="361.8589854271599" width="4.0169934640522875" height="1" fill="#dc2626"/>
<line x1="852.6993464052288" x2="852.6993464052288" y1="335.3750730047368" y2="362.3431445203929" stroke="#16a34a"/><rect x="850.6908496732026" y="349.60957936740715" width="4.0169934640522875" height="12.104162025679955" fill="#16a34a"/>
<line x1="858.437908496732" x2="858.437908496732" y1="347.8907721066133" y2="356.9688936258733" stroke="#16a34a"/><rect x="856.4294117647058" y="350.7957636049823" width="4.0169934640522875" height="1.8398562688448123" fill="#16a34a"/>
<line x1="864.1764705882352" x2="864.1764705882352" y1="343.65431539762534" y2="355.5648063982179" stroke="#dc2626"/><rect x="862.1679738562091" y="345.2278416853753" width="4.0169934640522875" height="3.703870624740375" fill="#dc2626"/>
<line x1="869.9150326797386" x2="869.9150326797386" y1="332.49427653238956" y2="343.63012037160354" stroke="#16a34a"/><rect x="867.9065359477124" y="338.69160157930236" width="4.0169934640522875" height="1" fill="#16a34a"/>
<line x1="875.6535947712418" x2="875.6535947712418" y1="328.1367708153506" y2="338.52216251920777" stroke="#dc2626"/><rect x="873.6450980392157" y="338.13482046903295" width="4.0169934640522875" height="1" fill="#dc2626"/>
<line x1="881.3921568627451" x2="881.3921568627451" y1="327.4589406970302" y2="334.9151089375256" stroke="#16a34a"/><rect x="879.3836601307189" y="332.7121425834988" width="4.0169934640522875" height="2.0335272939321953" fill="#16a34a"/>
<line x1="887.1307189542483" x2="887.1307189542483" y1="332.8816185825644" y2="340.9429949243438" stroke="#16a34a"/><rect x="885.1222222222221" y="335.6413660468606" width="4.0169934640522875" height="2.469259396150619" fill="#16a34a"/>
<polyline fill="none" stroke="#7c3aed" stroke-width="1" points="14.869281045751634,284.6240570600517 20.607843137254903,287.4022207503764 26.346405228758172,287.9289305319136 32.08496732026144,286.9792282331721 37.82352941176471,289.58639242208096 43.56209150326798,290.53711322718425 49.30065359477124,291.71709190796224 55.03921568627451,289.8530337484797 60.77777777777778,289.0562050548273 66.51633986928104,289.4499710457858 72.25490196078431,291.14014436153536 77.99346405228758,290.97008446514667 83.73202614379085,291.7877864564288 89.47058823529412,292.125074548719 95.20915032679738,292.1625908431706 100.94771241830065,293.59506445880976 106.68627450980392,293.803083524312 112.42483660130719,293.43675581387953 118.16339869281046,292.05931530905355 123.90196078431373,290.1570354600631 129.640522875817,288.0625655386516 135.37908496732027,288.0521065425827 141.11764705882354,288.29980802960665 146.8562091503268,289.31751865575814 152.59477124183007,289.94279270652396 158.33333333333334,290.1746586412113 164.0718954248366,290.2415219407805 169.81045751633988,295.06175134536363 175.54901960784315,298.5541580701092 181.28758169934642,298.31923550106376 187.0261437908497,294.15911840013575 192.76470588235296,285.15878923751194 198.5032679738562,270.9115744855444 204.24183006535947,261.99643735063114 209.98039215686273,251.83324399120568 215.718954248366,241.4488049877925 221.45751633986927,228.25845077526532 227.19607843137254,222.27417463466116 232.9346405228758,218.3025677615421 238.67320261437908,215.55731585594052 244.41176470588235,215.53887183155896 250.15032679738562,215.0815249539135 255.88888888888889,215.43460573625995 261.62745098039215,214.14164000723545 267.3660130718954,211.10832893035112 273.1045751633987,207.86776418144663 278.843137254902,202.07838348940768 284.58169934640523,200.94582931622682 290.32026143790847,202.9425178084439 296.05882352941177,200.37132360493683 301.797385620915,199.57471291305612 307.5359477124183,197.16335532327398 313.27450980392155,192.58186935424555 319.01307189542484,189.45710555076553 324.7516339869281,188.40000126183813 330.4901960784314,188.37255229220364 336.2287581699346,188.21533390913908 341.9673202614379,186.54083981202302 347.70588235294116,184.68722193303898 353.44444444444446,182.99994282408443 359.1830065359477,184.29199378719903 364.921568627451,183.1948625002275 370.66013071895424,169.64668450392713 376.39869281045753,136.50843969253123 382.1372549019608,114.36537214763689 387.87581699346407,104.21520681213985 393.6143790849673,92.26663096584895 399.3529411764706,89.81375592115012 405.09150326797385,87.98474004608778 410.83006535947715,87.27882970717945 416.5686274509804,87.55520693409227 422.3071895424837,86.94404731689599 428.0457516339869,86.20740618281218 433.7843137254902,86.19981830543469 439.52287581699346,86.35038319382284 445.26143790849676,86.6571519278857 451,86.25701840252339 456.7385620915033,84.24821584177755 462.47712418300654,80.12054335696337 468.21568627450984,74.75589143483688 473.9542483660131,69.14989995065753 479.6928104575163,65.42857142857144 485.4313725490196,69.82545556650484 491.16993464052285,88.01835685315649 496.90849673202615,107.70145490366684 502.6470588235294,122.58555762005477 508.3856209150327,146.36792408975833 514.124183006536,159.4998762387433 519.8627450980392,174.31127579458024 525.6013071895425,188.9824630179176 531.3398692810457,203.19572837173357 537.0784313725491,208.86285234886395 542.8169934640523,215.58606609797255 548.5555555555555,230.2306330383155 554.2941176470588,243.5621493630733 560.0326797385621,257.35398411955407 565.7712418300654,274.3769928946592 571.5098039215686,289.4548477478568 577.2483660130719,299.88587120250156 582.9869281045752,305.85175350054317 588.7254901960785,308.90731681693785 594.4640522875817,312.73118593494695 600.2026143790849,317.1662042219638 605.9411764705883,321.5704229055472 611.6797385620915,325.3999908611632 617.4183006535948,328.3129147025778 623.156862745098,329.2801259293008 628.8954248366014,327.1095719577577 634.6339869281046,325.26566745425777 640.3725490196078,325.64297918948296 646.1111111111111,322.51338973714064 651.8496732026144,314.94989076449497 657.5882352941177,310.5903434023596 663.3267973856209,303.3558624981381 669.0653594771242,295.1815892210094 674.8039215686274,290.5557698157983 680.5424836601308,288.31013285068366 686.281045751634,286.9512310406134 692.0196078431372,285.7177920888338 697.7581699346405,286.24710226465294 703.4967320261438,288.45135243686076 709.2352941176471,290.97056587049394 714.9738562091503,294.4888113764165 720.7124183006536,301.2461146369114 726.4509803921569,303.82062412490666 732.1895424836601,307.86570008488906 737.9281045751634,307.7350860834256 743.6666666666666,307.2717545600245 749.40522875817,307.27671447937655 755.1437908496732,305.19307214205116 760.8823529411765,300.6972137182578 766.6209150326797,295.008177596569 772.3594771241831,290.2807218239317 778.0980392156863,290.3666545236914 783.8366013071895,291.9486206263117 789.5751633986928,292.2859977622681 795.3137254901961,291.7381185468243 801.0522875816994,291.7740125272659 806.7908496732026,291.4061437266812 812.5294117647059,291.68653298153674 818.2679738562092,291.5941928296554 824.0065359477125,291.82620468271176 829.7450980392157,291.8078934525755 835.4836601307189,290.9418722599434 841.2222222222222,290.288054183637 846.9607843137255,288.5574497521627 852.6993464052288,288.52594976767944 858.437908496732,288.073951489287 864.1764705882352,287.9087322373398 869.9150326797386,289.97901488658164 875.6535947712418,294.45716851403205 881.3921568627451,301.9678662972032 887.1307189542483,310.62551847902984"/>
<polyline fill="none" stroke="#64748b" stroke-width="1" points="14.869281045751634,316.90169966521904 20.607843137254903,318.2392099384464 26.346405228758172,318.51760603442676 32.08496732026144,317.534748668965 37.82352941176471,315.53998143733 43.56209150326798,314.48207885833267 49.30065359477124,315.3523684034908 55.03921568627451,314.96140448720695 60.77777777777778,314.7193212466933 66.51633986928104,314.88514767542165 72.25490196078431,315.3898910102587 77.99346405228758,315.30274089591785 83.73202614379085,315.6985475113032 89.47058823529412,315.82200863416216 95.20915032679738,315.6283431499204 100.94771241830065,314.0511709857302 106.68627450980392,313.93618181587595 112.42483660130719,314.16252905473266 118.16339869281046,315.07034120665867 123.90196078431373,315.7651189248856 129.640522875817,317.03000348717944 135.37908496732027,317.25998182688795 141.11764705882354,318.12421892164355 146.8562091503268,319.14217754432235 152.59477124183007,320.04030799194254 158.33333333333334,321.05584711201914 164.0718954248366,321.7506248302461 169.81045751633988,324.8081354930314 175.54901960784315,327.3584833183774 181.28758169934642,327.29675275694797 187.0261437908497,326.4458303142985 192.76470588235296,324.6156816070392 198.5032679738562,321.53638249219455 204.24183006535947,319.171230045034 209.98039215686273,315.7941677317002 215.718954248366,312.54662083857636 221.45751633986927,307.6553285207315 227.19607843137254,303.9926097566622 232.9346405228758,300.30447143968166 238.67320261437908,296.27378511574045 244.41176470588235,292.9862942662982 250.15032679738562,290.9624782278486 255.88888888888889,289.00644520123103 261.62745098039215,285.9259363350852 267.3660130718954,281.71974003116145 273.1045751633987,276.61420352831647 278.843137254902,270.5173377070049 284.58169934640523,263.6506471069823 290.32026143790847,256.64717888504595 296.05882352941177,252.02096801107515 301.797385620915,249.13654597872178 307.5359477124183,246.72176602398838 313.27450980392155,244.6313767250078 319.01307189542484,242.46594221249165 324.7516339869281,241.37293652932863 330.4901960784314,241.33783342516293 336.2287581699346,241.25794551252585 341.9673202614379,239.6250933903601 347.70588235294116,237.34951056014256 353.44444444444446,234.91657510115004 359.1830065359477,231.89053459473 364.921568627451,227.06460578611495 370.66013071895424,219.27073593165764 376.39869281045753,210.0328404340719 382.1372549019608,202.25107363347107 387.87581699346407,196.80662207146585 393.6143790849673,191.6853514139124 399.3529411764706,189.37466732647775 405.09150326797385,187.45373555707732 410.83006535947715,186.00486721484754 416.5686274509804,184.25823752107726 422.3071895424837,184.94333168804985 428.0457516339869,186.3328889714523 433.7843137254902,186.37041157822017 439.52287581699346,186.1622198436226 445.26143790849676,185.91166465010417 451,186.38009697642303 456.7385620915033,188.1594084248083 462.47712418300654,191.41784862048752 468.21568627450984,195.71845724045573 473.9542483660131,200.37855962034251 479.6928104575163,207.0564255882763 485.4313725490196,216.50009331785742 491.16993464052285,228.7979208277791 496.90849673202615,241.153849645227 502.6470588235294,252.05485767004265 508.3856209150327,263.26089109505097 514.124183006536,271.9855694578464 519.8627450980392,280.6194684523977 525.6013071895425,288.07442140074636 531.3398692810457,295.41196382968997 537.0784313725491,301.77391294182416 542.8169934640523,308.5752418795655 548.5555555555555,315.85589459923256 554.2941176470588,323.6170836225493 560.0326797385621,330.53098038059414 565.7712418300654,338.1457082307428 571.5098039215686,343.95812735261984 577.2483660130719,348.7174847476525 582.9869281045752,353.2553348325072 588.7254901960785,357.79076541475956 594.4640522875817,361.256186670261 600.2026143790849,364.6211431593155 605.9411764705883,368.10835286687643 611.6797385620915,369.9167149690248 617.4183006535948,371.1755489278646 623.156862745098,371.4067370188742 628.8954248366014,370.90562478488897 634.6339869281046,370.4335632046669 640.3725490196078,370.52434441985946 646.1111111111111,369.7520982915975 651.8496732026144,367.3905750983404 657.5882352941177,365.2675058916934 663.3267973856209,362.75105141921193 669.0653594771242,358.876508896219 674.8039215686274,355.9581953579496 680.5424836601308,352.89947402038894 686.281045751634,350.99428009959405 692.0196078431372,348.8191620358234 697.7581699346405,346.15261436584774 703.4967320261438,342.342223753835 709.2352941176471,339.61273577112877 714.9738562091503,336.6109041428447 720.7124183006536,332.8428788367013 726.4509803921569,329.8918835438169 732.1895424836601,327.35242902102635 737.9281045751634,326.47245777156235 743.6666666666666,327.0074615114636 749.40522875817,326.8428448340364 755.1437908496732,325.56343586833526 760.8823529411765,324.1399870790168 766.6209150326797,322.7516395469154 772.3594771241831,320.79681627159897 778.0980392156863,320.8379699792186 783.8366013071895,321.5569574990558 789.5751633986928,322.2505273129302 795.3137254901961,323.01308804298924 801.0522875816994,322.96830138756917 806.7908496732026,322.14763934998393 812.5294117647059,321.4770695864186 818.2679738562092,321.22409304334957 824.0065359477125,320.4070621066162 829.7450980392157,320.43127006127787 835.4836601307189,321.5605885999076 841.2222222222222,323.35684580125087 846.9607843137255,325.56585537093747 852.6993464052288,326.9372571500808 858.437908496732,327.42384498065877 864.1764705882352,328.35344373769567 869.9150326797386,329.77447117746345 875.6535947712418,331.74744995703895 881.3921568627451,333.89593871659713 887.1307189542483,336.08316168117284"/>
<polyline fill="none" stroke="#7c3aed" stroke-width="1" points="14.869281045751634,349.1793422703863 20.607843137254903,349.07619912651637 26.346405228758172,349.10628153693995 32.08496732026144,348.09026910475797 37.82352941176471,341.4935704525791 43.56209150326798,338.4270444894811 49.30065359477124,338.9876448990194 55.03921568627451,340.0697752259342 60.77777777777778,340.38243743855946 66.51633986928104,340.32032430505757 72.25490196078431,339.639637658982 77.99346405228758,339.6353973266891 83.73202614379085,339.6093085661776 89.47058823529412,339.5189427196053 95.20915032679738,339.0940954566702 100.94771241830065,334.5072775126507 106.68627450980392,334.0692801074399 112.42483660130719,334.88830229558585 118.16339869281046,338.0813671042638 123.90196078431373,341.37320238970807 129.640522875817,345.9974414357073 135.37908496732027,346.4678571111933 141.11764705882354,347.94862981368055 146.8562091503268,348.9668364328865 152.59477124183007,350.1378232773611 158.33333333333334,351.937035582827 164.0718954248366,353.25972771971175 169.81045751633988,354.55451964069914 175.54901960784315,356.16280856664554 181.28758169934642,356.2742700128322 187.0261437908497,358.7325422284614 192.76470588235296,364.0725739765665 198.5032679738562,372.1611904988447 204.24183006535947,376.3460227394369 209.98039215686273,379.75509147219464 215.718954248366,383.6444366893603 221.45751633986927,387.0522062661976 227.19607843137254,385.71104487866324 232.9346405228758,382.3063751178213 238.67320261437908,376.9902543755405 244.41176470588235,370.43371670103744 250.15032679738562,366.8434315017837 255.88888888888889,362.5782846662022 261.62745098039215,357.7102326629351 267.3660130718954,352.33115113197175 273.1045751633987,345.3606428751862 278.843137254902,338.9562919246022 284.58169934640523,326.3554648977378 290.32026143790847,310.351839961648 296.05882352941177,303.6706124172134 301.797385620915,298.6983790443875 307.5359477124183,296.2801767247028 313.27450980392155,296.6808840957701 319.01307189542484,295.47477887421775 324.7516339869281,294.3458717968191 330.4901960784314,294.3031145581223 336.2287581699346,294.3005571159126 341.9673202614379,292.70934696869716 347.70588235294116,290.0117991872462 353.44444444444446,286.83320737821555 359.1830065359477,279.489075402261 364.921568627451,270.9343490720024 370.66013071895424,268.89478735938815 376.39869281045753,283.55724117561255 382.1372549019608,290.1367751193052 387.87581699346407,289.3980373307918 393.6143790849673,291.10407186197585 399.3529411764706,288.93557873180544 405.09150326797385,286.9227310680669 410.83006535947715,284.7309047225156 416.5686274509804,280.9612681080622 422.3071895424837,282.9426160592037 428.0457516339869,286.4583717600923 433.7843137254902,286.5410048510056 439.52287581699346,285.9740564934223 445.26143790849676,285.16617737232275 451,286.50317555032274 456.7385620915033,292.07060100783906 462.47712418300654,302.71515388401167 468.21568627450984,316.68102304607464 473.9542483660131,331.60721929002744 479.6928104575163,348.68427974798124 485.4313725490196,363.17473106921 491.16993464052285,369.5774848024017 496.90849673202615,374.6062443867871 502.6470588235294,381.5241577200306 508.3856209150327,380.15385810034354 514.124183006536,384.47126267694944 519.8627450980392,386.9276611102152 525.6013071895425,387.16637978357505 531.3398692810457,387.6281992876464 537.0784313725491,394.6849735347844 542.8169934640523,401.5644176611585 548.5555555555555,401.4811561601497 554.2941176470588,403.6720178820253 560.0326797385621,403.7079766416342 565.7712418300654,401.9144235668263 571.5098039215686,398.46140695738296 577.2483660130719,397.54909829280354 582.9869281045752,400.6589161644711 588.7254901960785,406.67421401258133 594.4640522875817,409.7811874055751 600.2026143790849,412.0760820966672 605.9411764705883,414.6462828282056 611.6797385620915,414.4334390768864 617.4183006535948,414.0381831531514 623.156862745098,413.53334810844757 628.8954248366014,414.70167761202026 634.6339869281046,415.60145895507594 640.3725490196078,415.40570965023596 646.1111111111111,416.9908068460544 651.8496732026144,419.83125943218573 657.5882352941177,419.9446683810272 663.3267973856209,422.1462403402858 669.0653594771242,422.57142857142856 674.8039215686274,421.3606209001008 680.5424836601308,417.4888151900943 686.281045751634,415.0373291585747 692.0196078431372,411.920531982813 697.7581699346405,406.0581264670426 703.4967320261438,396.23309507080927 709.2352941176471,388.2549056717636 714.9738562091503,378.7329969092729 720.7124183006536,364.43964303649113 726.4509803921569,355.9631429627272 732.1895424836601,346.8391579571637 737.9281045751634,345.20982945969916 743.6666666666666,346.74316846290264 749.40522875817,346.4089751886962 755.1437908496732,345.93379959461936 760.8823529411765,347.5827604397758 766.6209150326797,350.49510149726177 772.3594771241831,351.3129107192662 778.0980392156863,351.3092854347458 783.8366013071895,351.16529437179986 789.5751633986928,352.2150568635923 795.3137254901961,354.2880575391542 801.0522875816994,354.16259024787246 806.7908496732026,352.88913497328673 812.5294117647059,351.2676061913005 818.2679738562092,350.85399325704367 824.0065359477125,348.9879195305207 829.7450980392157,349.0546466699802 835.4836601307189,352.1793049398717 841.2222222222222,356.42563741886477 846.9607843137255,362.57426098971223 852.6993464052288,365.34856453248227 858.437908496732,366.77373847203046 864.1764705882352,368.7981552380515 869.9150326797386,369.5699274683452 875.6535947712418,369.0377314000459 881.3921568627451,365.82401113599104 887.1307189542483,361.54080488331584"/>
<rect x="12" y="32" width="10" height="3" fill="#7c3aed"/><text x="26" y="37" font-size="11" fill="#334155">Banda sup.</text>
<rect x="103" y="32" width="10" height="3" fill="#64748b"/><text x="117" y="37" font-size="11" fill="#334155">Média</text>
<rect x="161.5" y="32" width="10" height="3" fill="#7c3aed"/><text x="175.5" y="37" font-size="11" fill="#334155">Banda inf.</text>
<text x="890" y="472" font-size="10" fill="#94a3b8" text-anchor="end">foxonivesting.com.br</text>
</svg>