<svg xmlns="http://www.w3.org/2000/svg" viewBox="0 0 960 484" font-family="Inter,system-ui,sans-serif" font-size="12" role="img">
<rect width="960" height="484" fill="#ffffff"/>
<text x="12" y="22" font-size="15" font-weight="700" fill="#0f172a">GBP/USD · 1D</text>
<text x="890" y="22" font-size="11" fill="#64748b" text-anchor="end">Yahoo Finance · 2026-04-01 → 2026-10-07</text>
<line x1="12" x2="890" y1="444" y2="444" stroke="#eef1f4"/><text x="898" y="448" fill="#64748b">1.3111</text>
<line x1="12" x2="890" y1="364" y2="364" stroke="#eef1f4"/><text x="898" y="368" fill="#64748b">1.3230</text>
<line x1="12" x2="890" y1="284" y2="284" stroke="#eef1f4"/><text x="898" y="288" fill="#64748b">1.3349</text>
<line x1="12" x2="890" y1="204" y2="204" stroke="#eef1f4"/><text x="898" y="208" fill="#64748b">1.3469</text>
<line x1="12" x2="890" y1="124" y2="124" stroke="#eef1f4"/><text x="898" y="128" fill="#64748b">1.3588</text>
<line x1="12" x2="890" y1="44" y2="44" stroke="#eef1f4"/><text x="898" y="48" fill="#64748b">1.3707</text>
<text x="15.227941176470589" y="472" fill="#64748b" text-anchor="start">01/04/26</text>
<text x="163.71323529411765" y="472" fill="#64748b" text-anchor="middle">04/05/26</text>
<text x="312.1985294117647" y="472" fill="#64748b" text-anchor="middle">04/06/26</text>
<text x="460.68382352941177" y="472" fill="#64748b" text-anchor="middle">07/07/26</text>
<text x="609.1691176470588" y="472" fill="#64748b" text-anchor="middle">07/08/26</text>
<text x="757.6544117647059" y="472" fill="#64748b" text-anchor="middle">09/09/26</text>
<line x1="15.227941176470589" x2="15.227941176470589" y1="293.0221341854181" y2="369.0213672067316" stroke="#16a34a"/><rect x="12.968382352941177" y="355.2679284469067" width="4.519117647058823" height="1.5301160775506446" fill="#16a34a"/>
<line x1="21.683823529411764" x2="21.683823529411764" y1="307.44539886412895" y2="395.11896940600144" stroke="#16a34a"/><rect x="19.424264705882354" y="315.41208586832175" width="4.519117647058823" height="39.85584257858494" fill="#16a34a"/>
<line x1="28.139705882352942" x2="28.139705882352942" y1="354.0899311319723" y2="385.774217608115" stroke="#dc2626"/><rect x="25.880147058823532" y="315.41208586832175" width="4.519117647058823" height="48.559578174526735" fill="#dc2626"/>
<line x1="34.595588235294116" x2="34.595588235294116" y1="338.39823863792793" y2="391.6169882577998" stroke="#dc2626"/><rect x="32.336029411764706" y="363.9716640428485" width="4.519117647058823" height="29.513954466562552" fill="#dc2626"/>
<line x1="41.05147058823529" x2="41.05147058823529" y1="326.919967246553" y2="375.9413011620561" stroke="#16a34a"/><rect x="38.79191176470588" y="361.3859919473641" width="4.519117647058823" height="32.09962656204692" fill="#16a34a"/>
<line x1="47.50735294117647" x2="47.50735294117647" y1="193.5493840162409" y2="262.8335521804795" stroke="#16a34a"/><rect x="45.24779411764706" y="248.86884216308476" width="4.519117647058823" height="112.51714978427935" fill="#16a34a"/>
<line x1="53.963235294117645" x2="53.963235294117645" y1="220.56649634788818" y2="262.11250898703116" stroke="#dc2626"/><rect x="51.703676470588235" y="248.86884216308476" width="4.519117647058823" height="5.181747699864218" fill="#dc2626"/>
<line x1="60.419117647058826" x2="60.419117647058826" y1="196.96573628353366" y2="241.50795948457497" stroke="#16a34a"/><rect x="58.159558823529416" y="229.89924409704906" width="4.519117647058823" height="24.15134576589992" fill="#16a34a"/>
<line x1="66.875" x2="66.875" y1="206.10481871325558" y2="258.86501367181125" stroke="#dc2626"/><rect x="64.61544117647058" y="229.89924409704906" width="4.519117647058823" height="23.910464521473784" fill="#dc2626"/>
<line x1="73.33088235294119" x2="73.33088235294119" y1="123.18805254636266" y2="180.04162812033235" stroke="#16a34a"/><rect x="71.07132352941177" y="172.62872789734513" width="4.519117647058823" height="81.18098072117772" fill="#16a34a"/>
<line x1="79.78676470588235" x2="79.78676470588235" y1="129.50618352557933" y2="152.96689635480243" stroke="#16a34a"/><rect x="77.52720588235293" y="132.35274361336582" width="4.519117647058823" height="40.27598428397931" fill="#16a34a"/>
<line x1="86.24264705882354" x2="86.24264705882354" y1="119.59163954818666" y2="170.0526590408412" stroke="#dc2626"/><rect x="83.98308823529412" y="132.35274361336582" width="4.519117647058823" height="1.10037113317577" fill="#dc2626"/>
<line x1="92.69852941176471" x2="92.69852941176471" y1="116.73707676124991" y2="179.1229182578699" stroke="#dc2626"/><rect x="90.43897058823529" y="133.4531147465416" width="4.519117647058823" height="31.9355712294643" fill="#dc2626"/>
<line x1="99.15441176470588" x2="99.15441176470588" y1="152.96689635480243" y2="195.13551898784414" stroke="#dc2626"/><rect x="96.89485294117647" y="165.3886859760059" width="4.519117647058823" height="28.0382567432344" fill="#dc2626"/>
<line x1="105.61029411764706" x2="105.61029411764706" y1="157.28675335617191" y2="192.20653109880894" stroke="#16a34a"/><rect x="103.35073529411764" y="161.94752534134705" width="4.519117647058823" height="31.479417377893242" fill="#16a34a"/>
<line x1="112.06617647058823" x2="112.06617647058823" y1="159.1201717315215" y2="187.32008299759337" stroke="#dc2626"/><rect x="109.80661764705881" y="161.94752534134705" width="4.519117647058823" height="14.480884112593515" fill="#dc2626"/>
<line x1="118.52205882352942" x2="118.52205882352942" y1="170.6664660656745" y2="196.59921266244675" stroke="#dc2626"/><rect x="116.2625" y="176.42840945394056" width="4.519117647058823" height="6.244506147033292" fill="#dc2626"/>
<line x1="124.9779411764706" x2="124.9779411764706" y1="169.68533514983926" y2="213.64496185273364" stroke="#dc2626"/><rect x="122.71838235294118" y="182.67291560097385" width="4.519117647058823" height="22.82289770693859" fill="#dc2626"/>
<line x1="131.43382352941177" x2="131.43382352941177" y1="131.98061810287356" y2="173.85474140718173" stroke="#16a34a"/><rect x="129.17426470588236" y="172.7879816104375" width="4.519117647058823" height="32.707831697474944" fill="#16a34a"/>
<line x1="137.88970588235293" x2="137.88970588235293" y1="154.1977114841293" y2="206.83466487576925" stroke="#16a34a"/><rect x="135.63014705882352" y="157.2747493074463" width="4.519117647058823" height="15.513232302991184" fill="#16a34a"/>
<line x1="144.34558823529412" x2="144.34558823529412" y1="164.0370300895085" y2="200.74541109225314" stroke="#dc2626"/><rect x="142.0860294117647" y="157.2747493074463" width="4.519117647058823" height="9.219109421225596" fill="#dc2626"/>
<line x1="150.8014705882353" x2="150.8014705882353" y1="120.58397424283248" y2="212.915915960135" stroke="#dc2626"/><rect x="148.5419117647059" y="166.4938587286719" width="4.519117647058823" height="24.088124442612013" fill="#dc2626"/>
<line x1="157.25735294117646" x2="157.25735294117646" y1="76.96366198391371" y2="123.31209438319343" stroke="#16a34a"/><rect x="154.99779411764706" y="114.00495527131375" width="4.519117647058823" height="76.57702789997018" fill="#16a34a"/>
<line x1="163.71323529411765" x2="163.71323529411765" y1="115.37181628619686" y2="165.01976154517382" stroke="#dc2626"/><rect x="161.45367647058825" y="114.00495527131375" width="4.519117647058823" height="14.263210695703435" fill="#dc2626"/>
<line x1="170.16911764705884" x2="170.16911764705884" y1="130.4961174104801" y2="173.24173465226346" stroke="#dc2626"/><rect x="167.90955882352944" y="128.26816596701718" width="4.519117647058823" height="33.556918077329215" fill="#dc2626"/>
<line x1="176.625" x2="176.625" y1="86.72055278804419" y2="139.89288675284388" stroke="#16a34a"/><rect x="174.3654411764706" y="136.8038448808013" width="4.519117647058823" height="25.02123916354509" fill="#16a34a"/>
<line x1="183.0808823529412" x2="183.0808823529412" y1="94.33672156945073" y2="122.07247628480121" stroke="#16a34a"/><rect x="180.82132352941179" y="121.32822526381682" width="4.519117647058823" height="15.475619616984488" fill="#16a34a"/>
<line x1="189.53676470588235" x2="189.53676470588235" y1="95.95806841731564" y2="149.51693275107817" stroke="#dc2626"/><rect x="187.27720588235294" y="121.32822526381682" width="4.519117647058823" height="24.242576536214187" fill="#dc2626"/>
<line x1="195.99264705882354" x2="195.99264705882354" y1="80.71932869518213" y2="128.76273277451003" stroke="#16a34a"/><rect x="193.73308823529413" y="119.34355587452518" width="4.519117647058823" height="26.227245925505827" fill="#16a34a"/>
<line x1="202.44852941176472" x2="202.44852941176472" y1="112.51485268951495" y2="180.59221382187775" stroke="#16a34a"/><rect x="200.18897058823532" y="112.63889452634567" width="4.519117647058823" height="6.704661348179513" fill="#16a34a"/>
<line x1="208.90441176470588" x2="208.90441176470588" y1="148.89992464658474" y2="191.10776050546323" stroke="#dc2626"/><rect x="206.64485294117648" y="112.63889452634567" width="4.519117647058823" height="45.44812874486314" fill="#dc2626"/>
<line x1="215.36029411764707" x2="215.36029411764707" y1="160.35018659093328" y2="199.64824103873752" stroke="#dc2626"/><rect x="213.10073529411767" y="158.0870232712088" width="4.519117647058823" height="7.178421137881401" fill="#dc2626"/>
<line x1="221.81617647058823" x2="221.81617647058823" y1="255.134155327909" y2="305.54075646634107" stroke="#dc2626"/><rect x="219.55661764705883" y="165.2654444090902" width="4.519117647058823" height="90.59135465209715" fill="#dc2626"/>
<line x1="228.27205882352942" x2="228.27205882352942" y1="233.89339124299843" y2="314.22368504449184" stroke="#dc2626"/><rect x="226.01250000000002" y="255.85679906118736" width="4.519117647058823" height="55.63316395353837" fill="#dc2626"/>
<line x1="234.72794117647058" x2="234.72794117647058" y1="227.4768270642322" y2="263.19447391216113" stroke="#16a34a"/><rect x="232.46838235294118" y="228.56759495842755" width="4.519117647058823" height="82.92236805629818" fill="#16a34a"/>
<line x1="241.18382352941177" x2="241.18382352941177" y1="208.53763925496787" y2="264.3964793245466" stroke="#dc2626"/><rect x="238.92426470588236" y="228.56759495842755" width="4.519117647058823" height="24.157747925220264" fill="#dc2626"/>
<line x1="247.63970588235296" x2="247.63970588235296" y1="214.85977158375974" y2="254.41231186454567" stroke="#16a34a"/><rect x="245.38014705882355" y="227.23434527997603" width="4.519117647058823" height="25.490997603671786" fill="#16a34a"/>
<line x1="254.09558823529412" x2="254.09558823529412" y1="210.11897260708085" y2="240.42039267003977" stroke="#dc2626"/><rect x="251.8360294117647" y="227.23434527997603" width="4.519117647058823" height="1" fill="#dc2626"/>
<line x1="260.5514705882353" x2="260.5514705882353" y1="177.53118139686148" y2="201.96342190293936" stroke="#16a34a"/><rect x="258.2919117647059" y="195.2579602848448" width="4.519117647058823" height="32.94551186224095" fill="#16a34a"/>
<line x1="267.00735294117646" x2="267.00735294117646" y1="184.87445813724042" y2="225.6594140871833" stroke="#16a34a"/><rect x="264.74779411764706" y="185.36342305532804" width="4.519117647058823" height="9.894537229516772" fill="#16a34a"/>
<line x1="273.4632352941177" x2="273.4632352941177" y1="210.4838956883377" y2="238.36690006805492" stroke="#dc2626"/><rect x="271.2036764705883" y="185.36342305532804" width="4.519117647058823" height="27.552492904806968" fill="#dc2626"/>
<line x1="279.91911764705884" x2="279.91911764705884" y1="218.1384774256661" y2="271.2395873680275" stroke="#dc2626"/><rect x="277.65955882352944" y="212.915915960135" width="4.519117647058823" height="26.055187893772825" fill="#dc2626"/>
<line x1="286.375" x2="286.375" y1="192.6954960168965" y2="243.43981105947412" stroke="#16a34a"/><rect x="284.1154411764706" y="220.20157326663133" width="4.519117647058823" height="18.769530587276506" fill="#16a34a"/>
<line x1="292.83088235294116" x2="292.83088235294116" y1="198.79435303939306" y2="244.16405533258256" stroke="#16a34a"/><rect x="290.57132352941176" y="215.46717644927278" width="4.519117647058823" height="4.734396817358544" fill="#16a34a"/>
<line x1="299.2867647058824" x2="299.2867647058824" y1="195.38040158184543" y2="215.34553542218717" stroke="#16a34a"/><rect x="297.027205882353" y="209.77805762327515" width="4.519117647058823" height="5.689118825997639" fill="#16a34a"/>
<line x1="305.74264705882354" x2="305.74264705882354" y1="200.74541109225314" y2="234.98095805753363" stroke="#dc2626"/><rect x="303.48308823529413" y="209.77805762327515" width="4.519117647058823" height="3.8669042294584983" fill="#dc2626"/>
<line x1="312.1985294117647" x2="312.1985294117647" y1="208.0510751466254" y2="241.50795948457497" stroke="#dc2626"/><rect x="309.9389705882353" y="213.64496185273364" width="4.519117647058823" height="18.190935438704827" fill="#dc2626"/>
<line x1="318.6544117647059" x2="318.6544117647059" y1="194.525713312586" y2="278.67249433889066" stroke="#dc2626"/><rect x="316.3948529411765" y="231.83589729143847" width="4.519117647058823" height="1" fill="#dc2626"/>
<line x1="325.1102941176471" x2="325.1102941176471" y1="270.51934444449427" y2="312.5599238911301" stroke="#dc2626"/><rect x="322.85073529411767" y="231.9327299511579" width="4.519117647058823" height="61.32788466894118" fill="#dc2626"/>
<line x1="331.56617647058823" x2="331.56617647058823" y1="243.80233333098587" y2="295.5285795593138" stroke="#dc2626"/><rect x="329.30661764705883" y="293.2606146200991" width="4.519117647058823" height="1.5517233652566347" fill="#dc2626"/>
<line x1="338.0220588235294" x2="338.0220588235294" y1="234.8609175702781" y2="270.64018520166485" stroke="#16a34a"/><rect x="335.7625" y="268.71953740557615" width="4.519117647058823" height="26.092800579779578" fill="#16a34a"/>
<line x1="344.4779411764706" x2="344.4779411764706" y1="255.2549960850796" y2="299.9412678708276" stroke="#dc2626"/><rect x="342.2183823529412" y="268.71953740557615" width="4.519117647058823" height="6.837506154075697" fill="#dc2626"/>
<line x1="350.93382352941177" x2="350.93382352941177" y1="232.31926032012075" y2="259.9477788668562" stroke="#16a34a"/><rect x="348.67426470588236" y="240.78371521146653" width="4.519117647058823" height="34.773328348185316" fill="#16a34a"/>
<line x1="357.3897058823529" x2="357.3897058823529" y1="209.02420336331033" y2="237.88353703937264" stroke="#16a34a"/><rect x="355.1301470588235" y="216.68198618029885" width="4.519117647058823" height="24.10172903116768" fill="#16a34a"/>
<line x1="363.84558823529414" x2="363.84558823529414" y1="222.3855098647672" y2="255.69994615784015" stroke="#dc2626"/><rect x="361.58602941176474" y="216.68198618029885" width="4.519117647058823" height="22.638835626480102" fill="#dc2626"/>
<line x1="370.3014705882353" x2="370.3014705882353" y1="226.26521841286626" y2="257.5421675022552" stroke="#16a34a"/><rect x="368.0419117647059" y="232.31926032012075" width="4.519117647058823" height="7.001561486658204" fill="#16a34a"/>
<line x1="376.75735294117646" x2="376.75735294117646" y1="299.583547218806" y2="379.57292603649375" stroke="#dc2626"/><rect x="374.49779411764706" y="232.31926032012075" width="4.519117647058823" height="84.04274593734988" fill="#dc2626"/>
<line x1="383.2132352941177" x2="383.2132352941177" y1="356.44512549192604" y2="408.6339277311454" stroke="#dc2626"/><rect x="380.9536764705883" y="316.3620062574706" width="4.519117647058823" height="66.60486448869483" fill="#dc2626"/>
<line x1="389.66911764705884" x2="389.66911764705884" y1="335.9158013614833" y2="394.3018938227487" stroke="#16a34a"/><rect x="387.40955882352944" y="378.9871284586867" width="4.519117647058823" height="3.979742287478757" fill="#16a34a"/>
<line x1="396.125" x2="396.125" y1="350.5551389172541" y2="393.48561850941104" stroke="#16a34a"/><rect x="393.8654411764706" y="352.67665446201704" width="4.519117647058823" height="26.310473996669657" fill="#16a34a"/>
<line x1="402.58088235294116" x2="402.58088235294116" y1="378.05001238817846" y2="422.5714285714288" stroke="#dc2626"/><rect x="400.32132352941176" y="352.67665446201704" width="4.519117647058823" height="31.57785057744286" fill="#dc2626"/>
<line x1="409.0367647058824" x2="409.0367647058824" y1="372.89307305568036" y2="415.7243191783727" stroke="#dc2626"/><rect x="406.777205882353" y="384.2545050394599" width="4.519117647058823" height="22.51799486930952" fill="#dc2626"/>
<line x1="415.49264705882354" x2="415.49264705882354" y1="362.79606753765927" y2="396.9859991177826" stroke="#16a34a"/><rect x="413.23308823529413" y="392.4348641109675" width="4.519117647058823" height="14.337635797801909" fill="#16a34a"/>
<line x1="421.9485294117647" x2="421.9485294117647" y1="347.01794589279086" y2="387.87812721474717" stroke="#16a34a"/><rect x="419.6889705882353" y="386.24237550841167" width="4.519117647058823" height="6.192488602555841" fill="#16a34a"/>
<line x1="428.4044117647059" x2="428.4044117647059" y1="333.55100376254916" y2="374.4175872438258" stroke="#16a34a"/><rect x="426.1448529411765" y="348.0799040700449" width="4.519117647058823" height="38.162471438366765" fill="#16a34a"/>
<line x1="434.8602941176471" x2="434.8602941176471" y1="323.71968785632026" y2="369.84324440947455" stroke="#dc2626"/><rect x="432.60073529411767" y="348.0799040700449" width="4.519117647058823" height="2.2391552222733253" fill="#dc2626"/>
<line x1="441.31617647058823" x2="441.31617647058823" y1="260.42874108579343" y2="333.55100376254916" stroke="#16a34a"/><rect x="439.05661764705883" y="331.06536540644436" width="4.519117647058823" height="19.253693885873872" fill="#16a34a"/>
<line x1="447.77205882352945" x2="447.77205882352945" y1="262.3533902314573" y2="293.6191355420357" stroke="#16a34a"/><rect x="445.51250000000005" y="291.2071220181143" width="4.519117647058823" height="39.85824338833004" fill="#16a34a"/>
<line x1="454.2279411764706" x2="454.2279411764706" y1="271.83978980430527" y2="296.84102221997443" stroke="#16a34a"/><rect x="451.9683823529412" y="281.5454633338733" width="4.519117647058823" height="9.661658684241047" fill="#16a34a"/>
<line x1="460.68382352941177" x2="460.68382352941177" y1="248.86884216308476" y2="275.67628377699236" stroke="#16a34a"/><rect x="458.42426470588236" y="251.47212019669996" width="4.519117647058823" height="30.07334313717331" fill="#16a34a"/>
<line x1="467.1397058823529" x2="467.1397058823529" y1="264.8766412735688" y2="300.77594939221103" stroke="#dc2626"/><rect x="464.8801470588235" y="251.47212019669996" width="4.519117647058823" height="32.88549161861317" fill="#dc2626"/>
<line x1="473.59558823529414" x2="473.59558823529414" y1="229.89924409704906" y2="260.3087005985379" stroke="#16a34a"/><rect x="471.33602941176474" y="252.60530239639226" width="4.519117647058823" height="31.752309418920873" fill="#16a34a"/>
<line x1="480.0514705882353" x2="480.0514705882353" y1="215.34553542218717" y2="249.23056416468145" stroke="#16a34a"/><rect x="477.7919117647059" y="239.57530763976075" width="4.519117647058823" height="13.02999475663151" fill="#16a34a"/>
<line x1="486.50735294117646" x2="486.50735294117646" y1="242.353844784769" y2="272.19911099615683" stroke="#dc2626"/><rect x="484.24779411764706" y="239.57530763976075" width="4.519117647058823" height="19.289706032050503" fill="#dc2626"/>
<line x1="492.9632352941177" x2="492.9632352941177" y1="224.93196873441474" y2="288.24452279264756" stroke="#dc2626"/><rect x="490.7036764705883" y="258.86501367181125" width="4.519117647058823" height="26.15122028357729" fill="#dc2626"/>
<line x1="499.41911764705884" x2="499.41911764705884" y1="184.50793451615357" y2="261.7515872553495" stroke="#16a34a"/><rect x="497.15955882352944" y="252.00269915036944" width="4.519117647058823" height="33.013534805019106" fill="#16a34a"/>
<line x1="505.875" x2="505.875" y1="152.96689635480243" y2="195.86776596010296" stroke="#16a34a"/><rect x="503.6154411764706" y="155.20685184699084" width="4.519117647058823" height="96.7958473033786" fill="#16a34a"/>
<line x1="512.3308823529412" x2="512.3308823529412" y1="194.64815460958667" y2="231.83589729143847" stroke="#dc2626"/><rect x="510.0713235294118" y="155.20685184699084" width="4.519117647058823" height="41.88132573354346" fill="#dc2626"/>
<line x1="518.7867647058824" x2="518.7867647058824" y1="195.86776596010296" y2="239.69614839693133" stroke="#dc2626"/><rect x="516.527205882353" y="197.0881775805343" width="4.519117647058823" height="21.90018649490102" fill="#dc2626"/>
<line x1="525.2426470588235" x2="525.2426470588235" y1="212.915915960135" y2="276.27568594335503" stroke="#dc2626"/><rect x="522.9830882352941" y="218.98836407543533" width="4.519117647058823" height="9.820912397333387" fill="#dc2626"/>
<line x1="531.6985294117648" x2="531.6985294117648" y1="254.65239283905677" y2="279.15105574808274" stroke="#dc2626"/><rect x="529.4389705882353" y="228.80927647276872" width="4.519117647058823" height="35.226281120096246" fill="#dc2626"/>
<line x1="538.1544117647059" x2="538.1544117647059" y1="254.05058986294898" y2="316.8373665870025" stroke="#dc2626"/><rect x="535.8948529411764" y="264.03555759286496" width="4.519117647058823" height="2.6432915293670476" fill="#dc2626"/>
<line x1="544.6102941176471" x2="544.6102941176471" y1="284.17835135434484" y2="312.2030035090236" stroke="#dc2626"/><rect x="542.3507352941176" y="266.678849122232" width="4.519117647058823" height="41.95655110555691" fill="#dc2626"/>
<line x1="551.0661764705883" x2="551.0661764705883" y1="273.9989180350749" y2="316.955806534428" stroke="#16a34a"/><rect x="548.8066176470588" y="282.74266712676854" width="4.519117647058823" height="25.892733101020383" fill="#16a34a"/>
<line x1="557.5220588235294" x2="557.5220588235294" y1="309.7061613741083" y2="335.2067622167606" stroke="#dc2626"/><rect x="555.2624999999999" y="282.74266712676854" width="4.519117647058823" height="41.2139006244027" fill="#dc2626"/>
<line x1="563.9779411764706" x2="563.9779411764706" y1="310.89536246785326" y2="330.710045564168" stroke="#dc2626"/><rect x="561.7183823529411" y="323.95656775117124" width="4.519117647058823" height="1.7790000211271035" fill="#dc2626"/>
<line x1="570.4338235294118" x2="570.4338235294118" y1="207.92943411953976" y2="294.8123379853557" stroke="#16a34a"/><rect x="568.1742647058824" y="272.007846486463" width="4.519117647058823" height="53.727721285835344" fill="#16a34a"/>
<line x1="576.8897058823529" x2="576.8897058823529" y1="201.59849882168254" y2="247.1802726423568" stroke="#16a34a"/><rect x="574.6301470588235" y="209.14664466031098" width="4.519117647058823" height="62.86120182615201" fill="#16a34a"/>
<line x1="583.3455882352941" x2="583.3455882352941" y1="182.06150938588559" y2="233.14273806269378" stroke="#16a34a"/><rect x="581.0860294117647" y="188.5420951578548" width="4.519117647058823" height="20.604549502456194" fill="#16a34a"/>
<line x1="589.8014705882354" x2="589.8014705882354" y1="211.69950568927885" y2="236.6263130028496" stroke="#dc2626"/><rect x="587.5419117647059" y="188.5420951578548" width="4.519117647058823" height="43.39063479330312" fill="#dc2626"/>
<line x1="596.2573529411765" x2="596.2573529411765" y1="192.81713704398214" y2="220.20157326663133" stroke="#16a34a"/><rect x="593.997794117647" y="215.83129926061457" width="4.519117647058823" height="16.10143069054334" fill="#16a34a"/>
<line x1="602.7132352941177" x2="602.7132352941177" y1="196.84409525644804" y2="215.34553542218717" stroke="#16a34a"/><rect x="600.4536764705882" y="203.30387401062626" width="4.519117647058823" height="12.527425249988312" fill="#16a34a"/>
<line x1="609.1691176470588" x2="609.1691176470588" y1="177.65362269386208" y2="226.3868594399519" stroke="#dc2626"/><rect x="606.9095588235293" y="203.30387401062626" width="4.519117647058823" height="9.61204194950875" fill="#dc2626"/>
<line x1="615.625" x2="615.625" y1="162.80781550001177" y2="193.79346634032723" stroke="#16a34a"/><rect x="613.3654411764705" y="189.16550542166854" width="4.519117647058823" height="23.75041053846647" fill="#16a34a"/>
<line x1="622.0808823529412" x2="622.0808823529412" y1="171.4019141175935" y2="187.6866066186803" stroke="#16a34a"/><rect x="619.8213235294118" y="175.32563751101964" width="4.519117647058823" height="13.839867910648906" fill="#16a34a"/>
<line x1="628.5367647058823" x2="628.5367647058823" y1="156.0439341781195" y2="181.3268616038817" stroke="#dc2626"/><rect x="626.2772058823529" y="175.32563751101964" width="4.519117647058823" height="1" fill="#dc2626"/>
<line x1="634.9926470588235" x2="634.9926470588235" y1="174.34530686509942" y2="198.91679433639374" stroke="#dc2626"/><rect x="632.7330882352941" y="176.3059681569399" width="4.519117647058823" height="8.079525062212952" fill="#dc2626"/>
<line x1="641.4485294117648" x2="641.4485294117648" y1="142.36251971064786" y2="190.25227196628873" stroke="#dc2626"/><rect x="639.1889705882353" y="184.38549321915286" width="4.519117647058823" height="4.76720788387513" fill="#dc2626"/>
<line x1="647.9044117647059" x2="647.9044117647059" y1="134.9496194876607" y2="150.87178971723574" stroke="#16a34a"/><rect x="645.6448529411764" y="151.61123911872988" width="4.519117647058823" height="37.54146198429811" fill="#16a34a"/>
<line x1="654.3602941176471" x2="654.3602941176471" y1="146.5575346052716" y2="169.43965228592293" stroke="#16a34a"/><rect x="652.1007352941176" y="149.14720805033113" width="4.519117647058823" height="2.4640310683987536" fill="#16a34a"/>
<line x1="660.8161764705883" x2="660.8161764705883" y1="96.08291052406139" y2="166.00169273092422" stroke="#dc2626"/><rect x="658.5566176470588" y="149.14720805033113" width="4.519117647058823" height="9.111873252610621" fill="#dc2626"/>
<line x1="667.2720588235294" x2="667.2720588235294" y1="76.71317750050719" y2="118.72334669037156" stroke="#16a34a"/><rect x="665.0124999999999" y="115.86798363351971" width="4.519117647058823" height="42.39109766942204" fill="#16a34a"/>
<line x1="673.7279411764706" x2="673.7279411764706" y1="65.42857142857122" y2="102.43945445919985" stroke="#16a34a"/><rect x="671.4683823529411" y="86.59571068129844" width="4.519117647058823" height="29.27227295222127" fill="#16a34a"/>
<line x1="680.1838235294118" x2="680.1838235294118" y1="77.21494673723532" y2="99.57368789345253" stroke="#16a34a"/><rect x="677.9242647058824" y="79.84303313821664" width="4.519117647058823" height="6.752677543081802" fill="#16a34a"/>
<line x1="686.6397058823529" x2="686.6397058823529" y1="80.46884421177555" y2="100.94374998799577" stroke="#dc2626"/><rect x="684.3801470588235" y="79.84303313821664" width="4.519117647058823" height="10.250657341708234" fill="#dc2626"/>
<line x1="693.0955882352941" x2="693.0955882352941" y1="82.2198347858764" y2="125.79053031006282" stroke="#16a34a"/><rect x="690.8360294117647" y="84.22130984338378" width="4.519117647058823" height="5.872380636541095" fill="#16a34a"/>
<line x1="699.5514705882354" x2="699.5514705882354" y1="113.38394581724509" y2="135.0736613244914" stroke="#dc2626"/><rect x="697.2919117647059" y="84.22130984338378" width="4.519117647058823" height="33.632943719257696" fill="#dc2626"/>
<line x1="706.0073529411765" x2="706.0073529411765" y1="115.86798363351971" y2="162.43969133909474" stroke="#16a34a"/><rect x="703.747794117647" y="117.7310119957258" width="4.519117647058823" height="1" fill="#16a34a"/>
<line x1="712.4632352941177" x2="712.4632352941177" y1="139.52156151226671" y2="159.4882958924385" stroke="#dc2626"/><rect x="710.2036764705882" y="117.7310119957258" width="4.519117647058823" height="38.0664390485623" fill="#dc2626"/>
<line x1="718.9191176470589" x2="718.9191176470589" y1="141.8687531730701" y2="166.24817586475558" stroke="#16a34a"/><rect x="716.6595588235294" y="149.26964934733172" width="4.519117647058823" height="6.527801696956374" fill="#16a34a"/>
<line x1="725.375" x2="725.375" y1="172.62872789734513" y2="199.52660001165188" stroke="#dc2626"/><rect x="723.1154411764705" y="149.26964934733172" width="4.519117647058823" height="23.359078550013407" fill="#dc2626"/>
<line x1="731.8308823529412" x2="731.8308823529412" y1="154.1977114841293" y2="195.86776596010296" stroke="#dc2626"/><rect x="729.5713235294118" y="172.62872789734513" width="4.519117647058823" height="21.286379470067686" fill="#dc2626"/>
<line x1="738.2867647058823" x2="738.2867647058823" y1="150.00989901874095" y2="189.88574834520182" stroke="#16a34a"/><rect x="736.0272058823529" y="161.57940118043007" width="4.519117647058823" height="32.33570618698275" fill="#16a34a"/>
<line x1="744.7426470588235" x2="744.7426470588235" y1="149.26964934733172" y2="178.756394636783" stroke="#dc2626"/><rect x="742.4830882352941" y="161.57940118043007" width="4.519117647058823" height="9.822512937163424" fill="#dc2626"/>
<line x1="751.1985294117648" x2="751.1985294117648" y1="141.62227003923869" y2="167.72067250842355" stroke="#16a34a"/><rect x="748.9389705882353" y="151.48799755181415" width="4.519117647058823" height="19.913916565779346" fill="#16a34a"/>
<line x1="757.6544117647059" x2="757.6544117647059" y1="135.69146969889994" y2="161.08803545259735" stroke="#dc2626"/><rect x="755.3948529411764" y="151.48799755181415" width="4.519117647058823" height="1.478898802988283" fill="#dc2626"/>
<line x1="764.1102941176471" x2="764.1102941176471" y1="141.8687531730701" y2="187.6866066186803" stroke="#16a34a"/><rect x="761.8507352941176" y="148.03723367817486" width="4.519117647058823" height="4.929662676627572" fill="#16a34a"/>
<line x1="770.5661764705883" x2="770.5661764705883" y1="160.841552318766" y2="193.0612193680684" stroke="#dc2626"/><rect x="768.3066176470588" y="148.03723367817486" width="4.519117647058823" height="28.636858639682032" fill="#dc2626"/>
<line x1="777.0220588235294" x2="777.0220588235294" y1="164.0370300895085" y2="206.34730049751172" stroke="#16a34a"/><rect x="774.7624999999999" y="165.63356857000718" width="4.519117647058823" height="11.040523747849704" fill="#16a34a"/>
<line x1="783.4779411764706" x2="783.4779411764706" y1="181.20442030688105" y2="206.34730049751172" stroke="#dc2626"/><rect x="781.2183823529411" y="165.63356857000718" width="4.519117647058823" height="16.672023139964665" fill="#dc2626"/>
<line x1="789.9338235294118" x2="789.9338235294118" y1="186.0972705674169" y2="219.35248688677717" stroke="#dc2626"/><rect x="787.6742647058824" y="182.30559170997185" width="4.519117647058823" height="18.439819382281286" fill="#dc2626"/>
<line x1="796.3897058823529" x2="796.3897058823529" y1="245.6117436088844" y2="291.7088912548425" stroke="#dc2626"/><rect x="794.1301470588235" y="200.74541109225314" width="4.519117647058823" height="60.765294918670264" fill="#dc2626"/>
<line x1="802.8455882352941" x2="802.8455882352941" y1="264.8766412735688" y2="292.54437304614106" stroke="#dc2626"/><rect x="800.5860294117647" y="261.5107060109234" width="4.519117647058823" height="16.74244689248792" fill="#dc2626"/>
<line x1="809.3014705882354" x2="809.3014705882354" y1="250.4357706567271" y2="270.88026617617595" stroke="#16a34a"/><rect x="807.0419117647059" y="257.66220798951076" width="4.519117647058823" height="20.590944913900557" fill="#16a34a"/>
<line x1="815.7573529411765" x2="815.7573529411765" y1="257.66220798951076" y2="300.77594939221103" stroke="#dc2626"/><rect x="813.497794117647" y="257.66220798951076" width="4.519117647058823" height="11.933624973030874" fill="#dc2626"/>
<line x1="822.2132352941177" x2="822.2132352941177" y1="287.40664019160386" y2="351.6162968245931" stroke="#dc2626"/><rect x="819.9536764705882" y="269.59583296254164" width="4.519117647058823" height="18.648689830105923" fill="#dc2626"/>
<line x1="828.6691176470589" x2="828.6691176470589" y1="346.9003062152804" y2="376.761577824969" stroke="#dc2626"/><rect x="826.4095588235294" y="288.24452279264756" width="4.519117647058823" height="68.20060269927848" fill="#dc2626"/>
<line x1="835.125" x2="835.125" y1="341.70655446669065" y2="377.58185448788186" stroke="#dc2626"/><rect x="832.8654411764705" y="356.44512549192604" width="4.519117647058823" height="20.667770825744128" fill="#dc2626"/>
<line x1="841.5808823529412" x2="841.5808823529412" y1="334.61536274954824" y2="365.26329968571815" stroke="#16a34a"/><rect x="839.3213235294118" y="364.67670183799606" width="4.519117647058823" height="12.4361944796741" fill="#16a34a"/>
<line x1="848.0367647058823" x2="848.0367647058823" y1="346.9003062152804" y2="382.0313552154872" stroke="#16a34a"/><rect x="845.7772058823529" y="347.84382444510896" width="4.519117647058823" height="16.8328773928871" fill="#16a34a"/>
<line x1="854.4926470588235" x2="854.4926470588235" y1="312.6783638385556" y2="368.20029027390376" stroke="#dc2626"/><rect x="852.2330882352941" y="347.84382444510896" width="4.519117647058823" height="14.48248465242358" fill="#dc2626"/>
<line x1="860.9485294117648" x2="860.9485294117648" y1="335.2067622167606" y2="394.3018938227487" stroke="#16a34a"/><rect x="858.6889705882353" y="341.1159552693934" width="4.519117647058823" height="21.210353828139148" fill="#16a34a"/>
<line x1="867.4044117647059" x2="867.4044117647059" y1="346.9003062152804" y2="396.2857629421253" stroke="#dc2626"/><rect x="865.1448529411764" y="341.1159552693934" width="4.519117647058823" height="43.489067992852654" fill="#dc2626"/>
<line x1="873.8602941176471" x2="873.8602941176471" y1="354.0899311319723" y2="389.7483580061885" stroke="#16a34a"/><rect x="871.6007352941176" y="355.5024075320125" width="4.519117647058823" height="29.102615730233538" fill="#16a34a"/>
<line x1="880.3161764705883" x2="880.3161764705883" y1="325.73556777229834" y2="382.38187343827343" stroke="#dc2626"/><rect x="878.0566176470588" y="355.5024075320125" width="4.519117647058823" height="16.335109505734124" fill="#dc2626"/>
<line x1="886.7720588235294" x2="886.7720588235294" y1="337.57155981569474" y2="387.6452486694714" stroke="#16a34a"/><rect x="884.5124999999999" y="339.46259762492707" width="4.519117647058823" height="32.374919412819565" fill="#16a34a"/>
<text x="890" y="472" font-size="10" fill="#94a3b8" text-anchor="end">foxonivesting.com.br</text>
</svg>