<svg xmlns="http://www.w3.org/2000/svg" viewBox="0 0 960 540" font-family="Inter,system-ui,sans-serif" font-size="12" role="img">
<rect width="960" height="540" fill="#ffffff"/>
<text x="12" y="22" font-size="15" font-weight="700" fill="#0f172a">EUR/USD · 1D</text>
<text x="890" y="22" font-size="11" fill="#64748b" text-anchor="end">Yahoo Finance · 2026-04-01 → 2026-10-07</text>
<line x1="12" x2="890" y1="344" y2="344" stroke="#eef1f4"/><text x="898" y="348" fill="#64748b">1.1121</text>
<line x1="12" x2="890" y1="284" y2="284" stroke="#eef1f4"/><text x="898" y="288" fill="#64748b">1.1275</text>
<line x1="12" x2="890" y1="224" y2="224" stroke="#eef1f4"/><text x="898" y="228" fill="#64748b">1.1430</text>
<line x1="12" x2="890" y1="164" y2="164" stroke="#eef1f4"/><text x="898" y="168" fill="#64748b">1.1584</text>
<line x1="12" x2="890" y1="104" y2="104" stroke="#eef1f4"/><text x="898" y="108" fill="#64748b">1.1738</text>
<line x1="12" x2="890" y1="44" y2="44" stroke="#eef1f4"/><text x="898" y="48" fill="#64748b">1.1892</text>
<text x="15.227941176470589" y="528" fill="#64748b" text-anchor="start">01/04/26</text>
<text x="163.71323529411765" y="528" fill="#64748b" text-anchor="middle">04/05/26</text>
<text x="312.1985294117647" y="528" fill="#64748b" text-anchor="middle">04/06/26</text>
<text x="460.68382352941177" y="528" fill="#64748b" text-anchor="middle">07/07/26</text>
<text x="609.1691176470588" y="528" fill="#64748b" text-anchor="middle">07/08/26</text>
<text x="757.6544117647059" y="528" fill="#64748b" text-anchor="middle">09/09/26</text>
<line x1="15.227941176470589" x2="15.227941176470589" y1="147.40847001290555" y2="174.8904589664601" stroke="#16a34a"/><rect x="12.968382352941177" y="167.7650009642152" width="4.519117647058823" height="1.1978520250992517" fill="#16a34a"/>
<line x1="21.683823529411764" x2="21.683823529411764" y1="158.2113893600082" y2="192.5801003278332" stroke="#dc2626"/><rect x="19.424264705882354" y="161.03450036343492" width="4.519117647058823" height="1" fill="#dc2626"/>
<line x1="28.139705882352942" x2="28.139705882352942" y1="177.6927095437531" y2="188.5062908864352" stroke="#dc2626"/><rect x="25.880147058823532" y="179.55902233518097" width="4.519117647058823" height="1" fill="#dc2626"/>
<line x1="34.595588235294116" x2="34.595588235294116" y1="169.37913438193794" y2="193.91933968561636" stroke="#dc2626"/><rect x="32.336029411764706" y="192.0131603020219" width="4.519117647058823" height="1" fill="#dc2626"/>
<line x1="41.05147058823529" x2="41.05147058823529" y1="164.16773636871585" y2="186.80222585382495" stroke="#16a34a"/><rect x="38.79191176470588" y="180.59555373151298" width="4.519117647058823" height="1" fill="#16a34a"/>
<line x1="47.50735294117647" x2="47.50735294117647" y1="109.77626126772034" y2="131.74275355152602" stroke="#dc2626"/><rect x="45.24779411764706" y="122.56741100787673" width="4.519117647058823" height="1.4871166008198315" fill="#dc2626"/>
<line x1="53.963235294117645" x2="53.963235294117645" y1="116.39411556737869" y2="137.87432813975667" stroke="#16a34a"/><rect x="51.703676470588235" y="134.65208764963867" width="4.519117647058823" height="1" fill="#16a34a"/>
<line x1="60.419117647058826" x2="60.419117647058826" y1="102.8181502395702" y2="127.3453757225432" stroke="#dc2626"/><rect x="58.159558823529416" y="121.98239194608291" width="4.519117647058823" height="1" fill="#dc2626"/>
<line x1="66.875" x2="66.875" y1="111.27264916904406" y2="129.9422669936756" stroke="#16a34a"/><rect x="64.61544117647058" y="128.5117053259293" width="4.519117647058823" height="1.1658660383609458" fill="#16a34a"/>
<line x1="73.33088235294119" x2="73.33088235294119" y1="75.8558176792572" y2="96.69862834199458" stroke="#16a34a"/><rect x="71.07132352941177" y="92.07132226051587" width="4.519117647058823" height="2.0999495641252963" fill="#16a34a"/>
<line x1="79.78676470588235" x2="79.78676470588235" y1="75.8558176792572" y2="90.07752908715989" stroke="#16a34a"/><rect x="77.52720588235293" y="80.19154135988936" width="4.519117647058823" height="1" fill="#16a34a"/>
<line x1="86.24264705882354" x2="86.24264705882354" y1="70.69680251388195" y2="91.80199098087863" stroke="#16a34a"/><rect x="83.98308823529412" y="76.39865232375848" width="4.519117647058823" height="1" fill="#16a34a"/>
<line x1="92.69852941176471" x2="92.69852941176471" y1="60.07142857142827" y2="90.50864456058957" stroke="#16a34a"/><rect x="90.43897058823529" y="86.67867032244322" width="4.519117647058823" height="1.457448439207468" fill="#16a34a"/>
<line x1="99.15441176470588" x2="99.15441176470588" y1="83.43742366629226" y2="103.62197199325522" stroke="#16a34a"/><rect x="96.89485294117647" y="102.8181502395702" width="4.519117647058823" height="1" fill="#16a34a"/>
<line x1="105.61029411764706" x2="105.61029411764706" y1="84.51845730504283" y2="102.0676384637824" stroke="#16a34a"/><rect x="103.35073529411764" y="86.03106998224831" width="4.519117647058823" height="1" fill="#16a34a"/>
<line x1="112.06617647058823" x2="112.06617647058823" y1="95.08542205432215" y2="113.51444963087843" stroke="#dc2626"/><rect x="109.80661764705881" y="101.0482589733825" width="4.519117647058823" height="1" fill="#dc2626"/>
<line x1="118.52205882352942" x2="118.52205882352942" y1="112.44732294288366" y2="126.9207501594662" stroke="#16a34a"/><rect x="116.2625" y="116.50073552317315" width="4.519117647058823" height="1" fill="#16a34a"/>
<line x1="124.9779411764706" x2="124.9779411764706" y1="110.84524221581592" y2="129.25340936623846" stroke="#dc2626"/><rect x="122.71838235294118" y="125.0637086685422" width="4.519117647058823" height="1" fill="#dc2626"/>
<line x1="131.43382352941177" x2="131.43382352941177" y1="96.9137225136842" y2="116.55358193604513" stroke="#16a34a"/><rect x="129.17426470588236" y="116.34080558948148" width="4.519117647058823" height="1" fill="#16a34a"/>
<line x1="137.88970588235293" x2="137.88970588235293" y1="107.63737224147889" y2="127.29206574464598" stroke="#16a34a"/><rect x="135.63014705882352" y="109.72295128982313" width="4.519117647058823" height="1" fill="#16a34a"/>
<line x1="144.34558823529412" x2="144.34558823529412" y1="110.31075174176812" y2="125.22271147218345" stroke="#dc2626"/><rect x="142.0860294117647" y="111.32595914694127" width="4.519117647058823" height="1" fill="#dc2626"/>
<line x1="150.8014705882353" x2="150.8014705882353" y1="103.88991257781692" y2="135.86755514569526" stroke="#dc2626"/><rect x="148.5419117647059" y="123.62990204561959" width="4.519117647058823" height="1.1681838634868882" fill="#dc2626"/>
<line x1="157.25735294117646" x2="157.25735294117646" y1="85.97683287430073" y2="111.32595914694127" stroke="#dc2626"/><rect x="154.99779411764706" y="107.10288176743109" width="4.519117647058823" height="1" fill="#dc2626"/>
<line x1="163.71323529411765" x2="163.71323529411765" y1="103.88991257781692" y2="122.40748107418506" stroke="#16a34a"/><rect x="161.45367647058825" y="108.49357684301074" width="4.519117647058823" height="1" fill="#16a34a"/>
<line x1="170.16911764705884" x2="170.16911764705884" y1="112.44732294288366" y2="127.61053491695372" stroke="#16a34a"/><rect x="167.90955882352944" y="121.98239194608291" width="4.519117647058823" height="1" fill="#16a34a"/>
<line x1="176.625" x2="176.625" y1="81.27396569371552" y2="113.94139301908137" stroke="#16a34a"/><rect x="174.3654411764706" y="112.71433639739496" width="4.519117647058823" height="1" fill="#16a34a"/>
<line x1="183.0808823529412" x2="183.0808823529412" y1="87.7587768311434" y2="100.672771302976" stroke="#dc2626"/><rect x="180.82132352941179" y="100.13596300380226" width="4.519117647058823" height="1" fill="#dc2626"/>
<line x1="189.53676470588235" x2="189.53676470588235" y1="85.92305933137828" y2="109.02806731705851" stroke="#16a34a"/><rect x="187.27720588235294" y="106.56746416333291" width="4.519117647058823" height="1" fill="#16a34a"/>
<line x1="195.99264705882354" x2="195.99264705882354" y1="83.97794048566755" y2="99.65292824755093" stroke="#16a34a"/><rect x="193.73308823529413" y="92.07132226051587" width="4.519117647058823" height="1" fill="#16a34a"/>
<line x1="202.44852941176472" x2="202.44852941176472" y1="88.2979029554431" y2="109.88334478853997" stroke="#16a34a"/><rect x="200.18897058823532" y="87.7587768311434" width="4.519117647058823" height="1.6720790458719534" fill="#16a34a"/>
<line x1="208.90441176470588" x2="208.90441176470588" y1="102.28180550542166" y2="120.2806447385986" stroke="#dc2626"/><rect x="206.64485294117648" y="104.74750787442437" width="4.519117647058823" height="1" fill="#dc2626"/>
<line x1="215.36029411764707" x2="215.36029411764707" y1="110.47114524048499" y2="129.57141497352103" stroke="#dc2626"/><rect x="213.10073529411767" y="111.91329603386106" width="4.519117647058823" height="1" fill="#dc2626"/>
<line x1="221.81617647058823" x2="221.81617647058823" y1="132.64206970040087" y2="150.61309503206624" stroke="#dc2626"/><rect x="219.55661764705883" y="133.43569302353168" width="4.519117647058823" height="1" fill="#dc2626"/>
<line x1="228.27205882352942" x2="228.27205882352942" y1="134.7577804753827" y2="154.23214718374965" stroke="#dc2626"/><rect x="226.01250000000002" y="151.08546779273811" width="4.519117647058823" height="1.049511217037434" fill="#dc2626"/>
<line x1="234.72794117647058" x2="234.72794117647058" y1="136.3427092965183" y2="160.40776044937368" stroke="#16a34a"/><rect x="232.46838235294118" y="136.2903264486715" width="4.519117647058823" height="1" fill="#16a34a"/>
<line x1="241.18382352941177" x2="241.18382352941177" y1="140.56485954597812" y2="164.115353520869" stroke="#16a34a"/><rect x="238.92426470588236" y="154.96550705360534" width="4.519117647058823" height="1" fill="#16a34a"/>
<line x1="247.63970588235296" x2="247.63970588235296" y1="143.19976314917633" y2="166.56622180906555" stroke="#16a34a"/><rect x="245.38014705882355" y="147.8817699036278" width="4.519117647058823" height="1" fill="#16a34a"/>
<line x1="254.09558823529412" x2="254.09558823529412" y1="150.56071218421943" y2="161.87077166888346" stroke="#16a34a"/><rect x="251.8360294117647" y="149.51027383713156" width="4.519117647058823" height="2.099949564125268" fill="#16a34a"/>
<line x1="260.5514705882353" x2="260.5514705882353" y1="136.3427092965183" y2="145.9366510579171" stroke="#16a34a"/><rect x="258.2919117647059" y="141.30285506608573" width="4.519117647058823" height="1" fill="#16a34a"/>
<line x1="267.00735294117646" x2="267.00735294117646" y1="139.51024911366355" y2="150.98023853201929" stroke="#16a34a"/><rect x="264.74779411764706" y="143.19976314917633" width="4.519117647058823" height="1" fill="#16a34a"/>
<line x1="273.4632352941177" x2="273.4632352941177" y1="134.07031354302114" y2="148.45983549004376" stroke="#dc2626"/><rect x="271.2036764705883" y="142.7255361284037" width="4.519117647058823" height="1" fill="#dc2626"/>
<line x1="279.91911764705884" x2="279.91911764705884" y1="135.286244604103" y2="162.60135014858795" stroke="#16a34a"/><rect x="277.65955882352944" y="150.7707071406319" width="4.519117647058823" height="1" fill="#16a34a"/>
<line x1="286.375" x2="286.375" y1="124.47961673679876" y2="147.6713113821901" stroke="#dc2626"/><rect x="284.1154411764706" y="136.97686625098262" width="4.519117647058823" height="1" fill="#dc2626"/>
<line x1="292.83088235294116" x2="292.83088235294116" y1="131.58375074788475" y2="154.86074135791168" stroke="#16a34a"/><rect x="290.57132352941176" y="138.71894361565873" width="4.519117647058823" height="1" fill="#16a34a"/>
<line x1="299.2867647058824" x2="299.2867647058824" y1="136.3427092965183" y2="146.40995094863936" stroke="#dc2626"/><rect x="297.027205882353" y="143.88444869138672" width="4.519117647058823" height="1" fill="#dc2626"/>
<line x1="305.74264705882354" x2="305.74264705882354" y1="143.72590945277062" y2="159.5191062960783" stroke="#16a34a"/><rect x="303.48308823529413" y="149.14266677215335" width="4.519117647058823" height="1" fill="#16a34a"/>
<line x1="312.1985294117647" x2="312.1985294117647" y1="139.51024911366355" y2="158.10662366431455" stroke="#16a34a"/><rect x="309.9389705882353" y="154.07499864020915" width="4.519117647058823" height="1" fill="#16a34a"/>
<line x1="318.6544117647059" x2="318.6544117647059" y1="140.03732254730824" y2="184.52843940525224" stroke="#dc2626"/><rect x="316.3948529411765" y="152.13497900977555" width="4.519117647058823" height="1" fill="#dc2626"/>
<line x1="325.1102941176471" x2="325.1102941176471" y1="175.51349036031976" y2="196.28630270425293" stroke="#dc2626"/><rect x="322.85073529411767" y="187.00897585506112" width="4.519117647058823" height="1" fill="#dc2626"/>
<line x1="331.56617647058823" x2="331.56617647058823" y1="166.25331541706012" y2="185.76893941266928" stroke="#16a34a"/><rect x="329.30661764705883" y="185.5621894114331" width="4.519117647058823" height="1" fill="#16a34a"/>
<line x1="338.0220588235294" x2="338.0220588235294" y1="167.81692024703682" y2="183.3903872684029" stroke="#16a34a"/><rect x="335.7625" y="182.87304870028726" width="4.519117647058823" height="1" fill="#16a34a"/>
<line x1="344.4779411764706" x2="344.4779411764706" y1="174.05928687628864" y2="190.98219168599215" stroke="#dc2626"/><rect x="342.2183823529412" y="181.83790799903082" width="4.519117647058823" height="1" fill="#dc2626"/>
<line x1="350.93382352941177" x2="350.93382352941177" y1="161.03450036343492" y2="174.05928687628864" stroke="#16a34a"/><rect x="348.67426470588236" y="167.0877324624079" width="4.519117647058823" height="1" fill="#16a34a"/>
<line x1="357.3897058823529" x2="357.3897058823529" y1="148.98551822861285" y2="159.8324762531089" stroke="#dc2626"/><rect x="355.1301470588235" y="155.2278848578647" width="4.519117647058823" height="1.3091076311456504" fill="#dc2626"/>
<line x1="363.84558823529414" x2="363.84558823529414" y1="150.56071218421943" y2="167.29587315871967" stroke="#16a34a"/><rect x="361.58602941176474" y="159.9896247966494" width="4.519117647058823" height="1" fill="#16a34a"/>
<line x1="370.3014705882353" x2="370.3014705882353" y1="150.56071218421943" y2="162.96710295346543" stroke="#16a34a"/><rect x="368.0419117647059" y="153.86500368379663" width="4.519117647058823" height="1" fill="#16a34a"/>
<line x1="376.75735294117646" x2="376.75735294117646" y1="184.9419394077246" y2="214.4209664898115" stroke="#dc2626"/><rect x="374.49779411764706" y="192.16799102043643" width="4.519117647058823" height="1.5965179467654025" fill="#dc2626"/>
<line x1="383.2132352941177" x2="383.2132352941177" y1="206.03785657421741" y2="228.4067232998908" stroke="#dc2626"/><rect x="380.9536764705883" y="210.6419844044364" width="4.519117647058823" height="2.094386783822955" fill="#dc2626"/>
<line x1="389.66911764705884" x2="389.66911764705884" y1="207.06187171486923" y2="225.36295534447214" stroke="#dc2626"/><rect x="387.40955882352944" y="210.74443227500413" width="4.519117647058823" height="1" fill="#dc2626"/>
<line x1="396.125" x2="396.125" y1="220.33095699599983" y2="244.5716992934034" stroke="#16a34a"/><rect x="393.8654411764706" y="224.95640881737768" width="4.519117647058823" height="1" fill="#16a34a"/>
<line x1="402.58088235294116" x2="402.58088235294116" y1="241.6002474819149" y2="264.5128759821399" stroke="#16a34a"/><rect x="400.32132352941176" y="243.4637788831916" width="4.519117647058823" height="1" fill="#16a34a"/>
<line x1="409.0367647058824" x2="409.0367647058824" y1="240.03710621696337" y2="261.0685878449543" stroke="#16a34a"/><rect x="406.777205882353" y="253.31175427839628" width="4.519117647058823" height="1" fill="#16a34a"/>
<line x1="415.49264705882354" x2="415.49264705882354" y1="222.31455173880158" y2="253.06142916479195" stroke="#dc2626"/><rect x="413.23308823529413" y="249.54899696890294" width="4.519117647058823" height="1" fill="#dc2626"/>
<line x1="421.9485294117647" x2="421.9485294117647" y1="225.41348393221818" y2="242.60757428165977" stroke="#16a34a"/><rect x="419.6889705882353" y="241.09588873450468" width="4.519117647058823" height="1" fill="#16a34a"/>
<line x1="428.4044117647059" x2="428.4044117647059" y1="222.11104669274175" y2="242.0030854888078" stroke="#16a34a"/><rect x="426.1448529411765" y="226.93629503997792" width="4.519117647058823" height="1.2168581911321894" fill="#16a34a"/>
<line x1="434.8602941176471" x2="434.8602941176471" y1="228.96439202519824" y2="250.2512979820707" stroke="#16a34a"/><rect x="432.60073529411767" y="230.3323724145434" width="4.519117647058823" height="1" fill="#16a34a"/>
<line x1="441.31617647058823" x2="441.31617647058823" y1="207.6246396554538" y2="245.07466734573802" stroke="#16a34a"/><rect x="439.05661764705883" y="244.06826767604355" width="4.519117647058823" height="1" fill="#16a34a"/>
<line x1="447.77205882352945" x2="447.77205882352945" y1="210.1311357466735" y2="227.29138584927594" stroke="#dc2626"/><rect x="445.51250000000005" y="226.27664200912798" width="4.519117647058823" height="1" fill="#dc2626"/>
<line x1="454.2279411764706" x2="454.2279411764706" y1="218.294515840326" y2="231.6998892388634" stroke="#16a34a"/><rect x="451.9683823529412" y="220.83995139366195" width="4.519117647058823" height="1" fill="#16a34a"/>
<line x1="460.68382352941177" x2="460.68382352941177" y1="217.174079174434" y2="226.58074066565473" stroke="#dc2626"/><rect x="458.42426470588236" y="219.05847100184445" width="4.519117647058823" height="1" fill="#dc2626"/>
<line x1="467.1397058823529" x2="467.1397058823529" y1="222.87361115918458" y2="238.6751521729457" stroke="#16a34a"/><rect x="464.8801470588235" y="234.0274492303585" width="4.519117647058823" height="1.11209249543856" fill="#16a34a"/>
<line x1="473.59558823529414" x2="473.59558823529414" y1="215.7467624618641" y2="227.24039369650467" stroke="#16a34a"/><rect x="471.33602941176474" y="226.93629503997792" width="4.519117647058823" height="1" fill="#16a34a"/>
<line x1="480.0514705882353" x2="480.0514705882353" y1="211.15283306219933" y2="228.35619471214474" stroke="#dc2626"/><rect x="477.7919117647059" y="222.36554389157283" width="4.519117647058823" height="1" fill="#dc2626"/>
<line x1="486.50735294117646" x2="486.50735294117646" y1="217.7345292898926" y2="240.64205857484052" stroke="#16a34a"/><rect x="484.24779411764706" y="233.77434272660304" width="4.519117647058823" height="1" fill="#16a34a"/>
<line x1="492.9632352941177" x2="492.9632352941177" y1="211.66414528498746" y2="243.76602327961757" stroke="#16a34a"/><rect x="490.7036764705883" y="241.6002474819149" width="4.519117647058823" height="1" fill="#16a34a"/>
<line x1="499.41911764705884" x2="499.41911764705884" y1="217.78552144266388" y2="232.96495819261568" stroke="#dc2626"/><rect x="497.15955882352944" y="225.61698897827802" width="4.519117647058823" height="1" fill="#dc2626"/>
<line x1="505.875" x2="505.875" y1="205.0133778685404" y2="220.5854541948309" stroke="#dc2626"/><rect x="503.6154411764706" y="207.06187171486923" width="4.519117647058823" height="1.1255358811690996" fill="#dc2626"/>
<line x1="512.3308823529412" x2="512.3308823529412" y1="214.72645584141384" y2="225.61698897827802" stroke="#dc2626"/><rect x="510.0713235294118" y="217.27606347997653" width="4.519117647058823" height="1" fill="#dc2626"/>
<line x1="518.7867647058824" x2="518.7867647058824" y1="216.25668398957663" y2="233.47070763510146" stroke="#16a34a"/><rect x="516.527205882353" y="224.75336733634308" width="4.519117647058823" height="1" fill="#16a34a"/>
<line x1="525.2426470588235" x2="525.2426470588235" y1="224.39781296201988" y2="234.22956358134277" stroke="#16a34a"/><rect x="522.9830882352941" y="228.45771545266206" width="4.519117647058823" height="1" fill="#16a34a"/>
<line x1="531.6985294117648" x2="531.6985294117648" y1="227.29138584927594" y2="235.64482760325768" stroke="#16a34a"/><rect x="529.4389705882353" y="234.0274492303585" width="4.519117647058823" height="1" fill="#16a34a"/>
<line x1="538.1544117647059" x2="538.1544117647059" y1="220.83995139366195" y2="249.09655750431438" stroke="#dc2626"/><rect x="535.8948529411764" y="230.58594248332412" width="4.519117647058823" height="1" fill="#dc2626"/>
<line x1="544.6102941176471" x2="544.6102941176471" y1="235.54377042776554" y2="248.14207711744154" stroke="#16a34a"/><rect x="542.3507352941176" y="244.52117070565737" width="4.519117647058823" height="1" fill="#16a34a"/>
<line x1="551.0661764705883" x2="551.0661764705883" y1="228.45771545266206" y2="247.18713316554351" stroke="#dc2626"/><rect x="548.8066176470588" y="236.3522278317025" width="4.519117647058823" height="1.1111653653881604" fill="#dc2626"/>
<line x1="557.5220588235294" x2="557.5220588235294" y1="234.78584161157465" y2="253.21162423295453" stroke="#16a34a"/><rect x="555.2624999999999" y="247.38832038647735" width="4.519117647058823" height="1" fill="#16a34a"/>
<line x1="563.9779411764706" x2="563.9779411764706" y1="233.52169978787273" y2="244.8734801248042" stroke="#16a34a"/><rect x="561.7183823529411" y="240.74311575033263" width="4.519117647058823" height="1.0587825175412888" fill="#16a34a"/>
<line x1="570.4338235294118" x2="570.4338235294118" y1="183.08026226654863" y2="221.75549231841856" stroke="#dc2626"/><rect x="568.1742647058824" y="209.10804773607208" width="4.519117647058823" height="1" fill="#dc2626"/>
<line x1="576.8897058823529" x2="576.8897058823529" y1="186.4925644169959" y2="212.53193901214914" stroke="#dc2626"/><rect x="574.6301470588235" y="186.4925644169959" width="4.519117647058823" height="1" fill="#dc2626"/>
<line x1="583.3455882352941" x2="583.3455882352941" y1="175.14959181554312" y2="195.51493050233142" stroke="#16a34a"/><rect x="581.0860294117647" y="179.50710305235933" width="4.519117647058823" height="1.5543335294728706" fill="#16a34a"/>
<line x1="589.8014705882354" x2="589.8014705882354" y1="184.42506440463416" y2="195.2576519133492" stroke="#dc2626"/><rect x="587.5419117647059" y="193.45577466042317" width="4.519117647058823" height="1" fill="#dc2626"/>
<line x1="596.2573529411765" x2="596.2573529411765" y1="173.54009404807226" y2="185.9237701310838" stroke="#16a34a"/><rect x="593.997794117647" y="184.01156440216178" width="4.519117647058823" height="1" fill="#16a34a"/>
<line x1="602.7132352941177" x2="602.7132352941177" y1="172.50031769656388" y2="188.8159523232643" stroke="#16a34a"/><rect x="600.4536764705882" y="174.31888329039688" width="4.519117647058823" height="1" fill="#16a34a"/>
<line x1="609.1691176470588" x2="609.1691176470588" y1="165.73226832874295" y2="189.43527519692242" stroke="#16a34a"/><rect x="606.9095588235293" y="187.00897585506112" width="4.519117647058823" height="1" fill="#16a34a"/>
<line x1="615.625" x2="615.625" y1="170.9404213867887" y2="179.29988948609795" stroke="#16a34a"/><rect x="613.3654411764705" y="174.68278183517356" width="4.519117647058823" height="1" fill="#16a34a"/>
<line x1="622.0808823529412" x2="622.0808823529412" y1="176.13605818915428" y2="184.1663951205763" stroke="#dc2626"/><rect x="619.8213235294118" y="178.4705716560273" width="4.519117647058823" height="1" fill="#dc2626"/>
<line x1="628.5367647058823" x2="628.5367647058823" y1="172.34455984809895" y2="183.90772583651852" stroke="#16a34a"/><rect x="626.2772058823529" y="179.6109416180026" width="4.519117647058823" height="1" fill="#16a34a"/>
<line x1="634.9926470588235" x2="634.9926470588235" y1="178.2114388069443" y2="191.65250671242157" stroke="#16a34a"/><rect x="632.7330882352941" y="184.9419394077246" width="4.519117647058823" height="1" fill="#16a34a"/>
<line x1="641.4485294117648" x2="641.4485294117648" y1="163.12378793198073" y2="183.95964511934014" stroke="#16a34a"/><rect x="639.1889705882353" y="182.87304870028726" width="4.519117647058823" height="1" fill="#16a34a"/>
<line x1="647.9044117647059" x2="647.9044117647059" y1="152.29212755331605" y2="167.243953875898" stroke="#dc2626"/><rect x="645.6448529411764" y="167.243953875898" width="4.519117647058823" height="1" fill="#dc2626"/>
<line x1="654.3602941176471" x2="654.3602941176471" y1="162.0793759302204" y2="170.47222071134357" stroke="#dc2626"/><rect x="652.1007352941176" y="163.64576215034828" width="4.519117647058823" height="1" fill="#dc2626"/>
<line x1="660.8161764705883" x2="660.8161764705883" y1="127.3453757225432" y2="168.49418874884412" stroke="#16a34a"/><rect x="658.5566176470588" y="165.73226832874295" width="4.519117647058823" height="1" fill="#16a34a"/>
<line x1="667.2720588235294" x2="667.2720588235294" y1="114.58157631887323" y2="130.4192754045994" stroke="#dc2626"/><rect x="665.0124999999999" y="128.40554893516008" width="4.519117647058823" height="1" fill="#dc2626"/>
<line x1="673.7279411764706" x2="673.7279411764706" y1="114.04801297487583" y2="130.52496823034346" stroke="#16a34a"/><rect x="671.4683823529411" y="123.57659206772234" width="4.519117647058823" height="1" fill="#16a34a"/>
<line x1="680.1838235294118" x2="680.1838235294118" y1="122.0357019239801" y2="134.07031354302114" stroke="#dc2626"/><rect x="677.9242647058824" y="124.69192951833725" width="4.519117647058823" height="1.32718666712816" fill="#dc2626"/>
<line x1="686.6397058823529" x2="686.6397058823529" y1="128.40554893516008" y2="137.61055964042174" stroke="#dc2626"/><rect x="684.3801470588235" y="131.10766946701133" width="4.519117647058823" height="1" fill="#dc2626"/>
<line x1="693.0955882352941" x2="693.0955882352941" y1="127.3453757225432" y2="141.14477939249483" stroke="#16a34a"/><rect x="690.8360294117647" y="128.6707081295706" width="4.519117647058823" height="1" fill="#16a34a"/>
<line x1="699.5514705882354" x2="699.5514705882354" y1="133.70038865291698" y2="143.35783882276723" stroke="#dc2626"/><rect x="697.2919117647059" y="136.23748003579945" width="4.519117647058823" height="1" fill="#dc2626"/>
<line x1="706.0073529411765" x2="706.0073529411765" y1="135.81470873282325" y2="159.46672344823145" stroke="#16a34a"/><rect x="703.747794117647" y="135.81470873282325" width="4.519117647058823" height="1.1621575181593755" fill="#16a34a"/>
<line x1="712.4632352941177" x2="712.4632352941177" y1="148.98551822861285" y2="163.43715788901136" stroke="#dc2626"/><rect x="710.2036764705882" y="161.66170384252135" width="4.519117647058823" height="1" fill="#dc2626"/>
<line x1="718.9191176470589" x2="718.9191176470589" y1="147.93415275147464" y2="162.0793759302204" stroke="#16a34a"/><rect x="716.6595588235294" y="150.87547283632563" width="4.519117647058823" height="1" fill="#16a34a"/>
<line x1="725.375" x2="725.375" y1="155.8560154670015" y2="170.57605927698685" stroke="#16a34a"/><rect x="723.1154411764705" y="159.46672344823145" width="4.519117647058823" height="2.03829541577457" fill="#16a34a"/>
<line x1="731.8308823529412" x2="731.8308823529412" y1="146.51471664433305" y2="163.64576215034828" stroke="#16a34a"/><rect x="729.5713235294118" y="163.43715788901136" width="4.519117647058823" height="1" fill="#16a34a"/>
<line x1="738.2867647058823" x2="738.2867647058823" y1="144.9367412985753" y2="162.6537329964348" stroke="#dc2626"/><rect x="736.0272058823529" y="146.62040947007708" width="4.519117647058823" height="1" fill="#dc2626"/>
<line x1="744.7426470588235" x2="744.7426470588235" y1="144.04206079995242" y2="154.75597566221802" stroke="#16a34a"/><rect x="742.4830882352941" y="152.29212755331605" width="4.519117647058823" height="1" fill="#16a34a"/>
<line x1="751.1985294117648" x2="751.1985294117648" y1="143.8316022785147" y2="154.17976433590283" stroke="#dc2626"/><rect x="748.9389705882353" y="146.8304044264896" width="4.519117647058823" height="1" fill="#dc2626"/>
<line x1="757.6544117647059" x2="757.6544117647059" y1="136.87117342523857" y2="149.30027888071905" stroke="#dc2626"/><rect x="755.3948529411764" y="146.4623337964862" width="4.519117647058823" height="1" fill="#dc2626"/>
<line x1="764.1102941176471" x2="764.1102941176471" y1="141.0919329796228" y2="160.51252614506734" stroke="#dc2626"/><rect x="761.8507352941176" y="143.72590945277062" width="4.519117647058823" height="1" fill="#dc2626"/>
<line x1="770.5661764705883" x2="770.5661764705883" y1="150.0354930106755" y2="168.70232944515587" stroke="#dc2626"/><rect x="768.3066176470588" y="153.1835630967626" width="4.519117647058823" height="1" fill="#dc2626"/>
<line x1="777.0220588235294" x2="777.0220588235294" y1="159.46672344823145" y2="187.42201229250827" stroke="#dc2626"/><rect x="774.7624999999999" y="159.8324762531089" width="4.519117647058823" height="1" fill="#dc2626"/>
<line x1="783.4779411764706" x2="783.4779411764706" y1="176.13605818915428" y2="185.9237701310838" stroke="#16a34a"/><rect x="781.2183823529411" y="177.74462882657474" width="4.519117647058823" height="1" fill="#16a34a"/>
<line x1="789.9338235294118" x2="789.9338235294118" y1="174.9942975321034" y2="184.6318144058703" stroke="#16a34a"/><rect x="787.6742647058824" y="181.99320228247055" width="4.519117647058823" height="1" fill="#16a34a"/>
<line x1="796.3897058823529" x2="796.3897058823529" y1="197.46885708352082" y2="213.4511884571073" stroke="#16a34a"/><rect x="794.1301470588235" y="208.34131118440249" width="4.519117647058823" height="1" fill="#16a34a"/>
<line x1="802.8455882352941" x2="802.8455882352941" y1="198.85677076894933" y2="213.91058139707377" stroke="#16a34a"/><rect x="800.5860294117647" y="205.9354087036497" width="4.519117647058823" height="1" fill="#16a34a"/>
<line x1="809.3014705882354" x2="809.3014705882354" y1="198.75385933335642" y2="209.31294347720748" stroke="#16a34a"/><rect x="807.0419117647059" y="204.50113851570188" width="4.519117647058823" height="1" fill="#16a34a"/>
<line x1="815.7573529411765" x2="815.7573529411765" y1="203.9884355978382" y2="223.28015768627904" stroke="#16a34a"/><rect x="813.497794117647" y="210.38656007555494" width="4.519117647058823" height="1" fill="#16a34a"/>
<line x1="822.2132352941177" x2="822.2132352941177" y1="215.7467624618641" y2="241.4486617186767" stroke="#16a34a"/><rect x="819.9536764705882" y="216.8681262578065" width="4.519117647058823" height="1" fill="#16a34a"/>
<line x1="828.6691176470589" x2="828.6691176470589" y1="235.54377042776554" y2="250.90399753754272" stroke="#dc2626"/><rect x="826.4095588235294" y="242.1542076870208" width="4.519117647058823" height="1" fill="#dc2626"/>
<line x1="835.125" x2="835.125" y1="230.99109831534298" y2="247.68963765285298" stroke="#16a34a"/><rect x="832.8654411764705" y="245.32638315441795" width="4.519117647058823" height="1" fill="#16a34a"/>
<line x1="841.5808823529412" x2="841.5808823529412" y1="238.57409499745359" y2="253.2616892556754" stroke="#dc2626"/><rect x="839.3213235294118" y="243.96767406557666" width="4.519117647058823" height="1" fill="#dc2626"/>
<line x1="848.0367647058823" x2="848.0367647058823" y1="246.13113203815337" y2="263.4151540024824" stroke="#16a34a"/><rect x="845.7772058823529" y="246.13113203815337" width="4.519117647058823" height="1" fill="#16a34a"/>
<line x1="854.4926470588235" x2="854.4926470588235" y1="244.1688612865105" y2="263.01602451579106" stroke="#16a34a"/><rect x="852.2330882352941" y="258.51944377141683" width="4.519117647058823" height="1" fill="#16a34a"/>
<line x1="860.9485294117648" x2="860.9485294117648" y1="259.16936193673774" y2="305.72148889669074" stroke="#16a34a"/><rect x="858.6889705882353" y="263.81474705419896" width="4.519117647058823" height="1" fill="#16a34a"/>
<line x1="867.4044117647059" x2="867.4044117647059" y1="280.1192561202947" y2="304.2037770042082" stroke="#16a34a"/><rect x="865.1448529411764" y="293.8931637138607" width="4.519117647058823" height="1" fill="#16a34a"/>
<line x1="873.8602941176471" x2="873.8602941176471" y1="290.93840024327915" y2="327.92857142857173" stroke="#16a34a"/><rect x="871.6007352941176" y="292.07135316485136" width="4.519117647058823" height="1" fill="#16a34a"/>
<line x1="880.3161764705883" x2="880.3161764705883" y1="283.7809562542959" y2="311.88087738643304" stroke="#dc2626"/><rect x="878.0566176470588" y="306.50491378926733" width="4.519117647058823" height="1" fill="#dc2626"/>
<line x1="886.7720588235294" x2="886.7720588235294" y1="291.43116986505953" y2="326.47483150956583" stroke="#16a34a"/><rect x="884.5124999999999" y="292.4653834362656" width="4.519117647058823" height="1" fill="#16a34a"/>
<rect x="12" y="370" width="878" height="130" fill="#fafbfc" stroke="#eef1f4"/>
<text x="18" y="385" font-size="11" font-weight="600" fill="#334155">Estocástico (14, 3)</text>
<line x1="12" x2="890" y1="396" y2="396" stroke="#94a3b8" stroke-dasharray="4 4"/><text x="898" y="400" fill="#64748b">80</text>
<line x1="12" x2="890" y1="474" y2="474" stroke="#94a3b8" stroke-dasharray="4 4"/><text x="898" y="478" fill="#64748b">20</text>
<rect x="12" y="370" width="878" height="26" fill="#dc2626" opacity=".05"/><rect x="12" y="474" width="878" height="26" fill="#16a34a" opacity=".05"/>
<polyline fill="none" stroke="#2563eb" stroke-width="1.5" points="15.227941176470589,407.2647748177786 21.683823529411764,397.69234482351743 28.139705882352942,434.43057415621274 34.595588235294116,455.70138470800725 41.05147058823529,434.7883620636695 47.50735294117647,387.08064412925245 53.963235294117645,399.75817425615867 60.419117647058826,391.8451700843907 66.875,398.88680417744104 73.33088235294119,384.78358116762786 79.78676470588235,373.95285404976624 86.24264705882354,375.0168325871357 92.69852941176471,392.13195033546697 99.15441176470588,411.5178225091433 105.61029411764706,395.2133436772692 112.06617647058823,410.3719660866674 118.52205882352942,424.80705558018394 124.9779411764706,436.72353438216714 131.43382352941177,464.0198765461522 137.88970588235293,452.9621773636169 144.34558823529412,466.4557306352629 150.8014705882353,481.01445198064914 157.25735294117646,451.398778033968 163.71323529411765,453.0501446421254 170.16911764705884,476.18517861620603 176.625,460.28928425082717 183.0808823529412,415.55392335843896 189.53676470588235,430.2296869294976 195.99264705882354,395.7110105375778 202.44852941176472,385.4418395333237 208.90441176470588,426.6598170995763 215.36029411764707,444.61182484354964 221.81617647058823,468.09229966973754 228.27205882352942,496.263176287448 234.72794117647058,460.38018358942514 241.18382352941177,485.64147617582046 247.63970588235296,471.5216965955042 254.09558823529412,474.0038153832775 260.5514705882353,461.4943041001783 267.00735294117646,463.21948371959877 273.4632352941177,463.5507608372297 279.91911764705884,475.136703730937 286.375,451.2045723762142 292.83088235294116,443.68547817182747 299.2867647058824,447.5565251884173 305.74264705882354,446.18092500192756 312.1985294117647,461.41625086739583 318.6544117647059,431.34648787605084 325.1102941176471,484.69971142858986 331.56617647058823,480.5848897037463 338.0220588235294,475.71642532972675 344.4779411764706,475.5292735360004 350.93382352941177,447.1384303522895 357.3897058823529,428.0371979522405 363.84558823529414,434.2879000135571 370.3014705882353,423.1997856695567 376.75735294117646,467.58293414514037 383.2132352941177,477.8725075528701 389.66911764705884,474.693769000923 396.125,475.7286068532197 402.58088235294116,478.01670651501945 409.0367647058824,487.3956623798728 415.49264705882354,484.12186264871696 421.9485294117647,473.6494593022089 428.4044117647059,457.7160283289529 434.8602941176471,461.5375479004073 441.31617647058823,476.994201793632 447.77205882352945,456.84224443386745 454.2279411764706,450.1766354645936 460.68382352941177,426.07154092630356 467.1397058823529,432.22566631256836 473.59558823529414,414.9717992786425 480.0514705882353,404.0341756370244 486.50735294117646,429.75684286866743 492.9632352941177,452.6441377755033 499.41911764705884,422.3482900750898 505.875,379.12119442138805 512.3308823529412,407.7276686443891 518.7867647058824,426.7267156486007 525.2426470588235,446.077528349919 531.6985294117648,467.3308850796081 538.1544117647059,446.45852612097246 544.6102941176471,486.5073189198284 551.0661764705883,465.6941406578615 557.5220588235294,484.2934223307974 563.9779411764706,466.3700191395843 570.4338235294118,418.7211062417789 576.8897058823529,378.1435285252533 583.3455882352941,377.25674752813325 589.8014705882354,401.00020784465096 596.2573529411765,387.0862934711143 602.7132352941177,372.9291252656367 609.1691176470588,401.61856817338776 615.625,383.30104392983947 622.0808823529412,389.0835673785173 628.5367647058823,390.62460918870227 634.9926470588235,398.5468178686874 641.4485294117648,398.4988962472406 647.9044117647059,391.87235874942417 654.3602941176471,392.71265165569986 660.8161764705883,428.5807884025163 667.2720588235294,393.22649193248145 673.7279411764706,385.2533036504267 680.1838235294118,390.0535219344356 686.6397058823529,398.66619277453884 693.0955882352941,394.4953646181783 699.5514705882354,407.4357258912358 706.0073529411765,406.46271384880055 712.4632352941177,450.37327965210744 718.9191176470589,431.6919143649049 725.375,454.45565037496766 731.8308823529412,483.58235882632727 738.2867647058823,445.1490872709977 744.7426470588235,457.95164914467534 751.1985294117648,445.7535549687556 757.6544117647059,445.99555526397796 764.1102941176471,430.34743245695296 770.5661764705883,449.74779373130167 777.0220588235294,440.86468050957967 783.4779411764706,476.58187215242305 789.9338235294118,486.3247011057515 796.3897058823529,491.32562137556147 802.8455882352941,486.5423102612086 809.3014705882354,484.1220538062086 815.7573529411765,480.6019281012441 822.2132352941177,469.4440011702439 828.6691176470589,490.4848144850828 835.125,493.6413933843108 841.5808823529412,489.7315962832119 848.0367647058823,481.6312648034107 854.4926470588235,494.38662697990856 860.9485294117648,462.7507765451664 867.4044117647059,488.2374718089105 873.8602941176471,469.5199888454089 880.3161764705883,478.7978054699798 886.7720588235294,464.31024026125493"/>
<polyline fill="none" stroke="#ea580c" stroke-width="1.5" points="15.227941176470589,445.95389515882096 21.683823529411764,426.33944581807 28.139705882352942,413.12923126583627 34.595588235294116,429.2747678959125 41.05147058823529,441.6401069759632 47.50735294117647,425.8567969669764 53.963235294117645,407.2090601496935 60.419117647058826,392.89466282326725 66.875,396.8300495059968 73.33088235294119,391.8385184764865 79.78676470588235,385.87441313161173 86.24264705882354,377.9177559348433 92.69852941176471,380.36721232412293 99.15441176470588,392.88886847724865 105.61029411764706,399.6210388406265 112.06617647058823,405.70104409102663 118.52205882352942,410.1307884480402 124.9779411764706,423.9675186830062 131.43382352941177,441.85015550283447 137.88970588235293,451.23519609731204 144.34558823529412,461.14592818167733 150.8014705882353,466.81078665984296 157.25735294117646,466.28965354996 163.71323529411765,461.82112488558084 170.16911764705884,460.21136709743314 176.625,463.17486916971956 183.0808823529412,450.6761287418241 189.53676470588235,435.3576315129212 195.99264705882354,413.83154027517145 202.44852941176472,403.79417900013306 208.90441176470588,402.6042223901593 215.36029411764707,418.9044938254832 221.81617647058823,446.4546472042878 228.27205882352942,469.6557669335784 234.72794117647058,474.9118865155369 241.18382352941177,480.7616120175645 247.63970588235296,472.5144521202499 254.09558823529412,477.0556627182007 260.5514705882353,469.00660535965335 267.00735294117646,466.23920106768486 273.4632352941177,462.7548495523356 279.91911764705884,467.3023160959218 286.375,463.2973456481269 292.83088235294116,456.6755847596595 299.2867647058824,447.482191912153 305.74264705882354,445.80764278739076 312.1985294117647,451.7179003525802 318.6544117647059,446.3145545817914 325.1102941176471,459.15415005734553 331.56617647058823,465.543696336129 338.0220588235294,480.3336754873543 344.4779411764706,477.2768628564911 350.93382352941177,466.1280430726722 357.3897058823529,450.2349672801768 363.84558823529414,436.48784277269567 370.3014705882353,428.5082945451181 376.75735294117646,441.69020660941806 383.2132352941177,456.21840912252236 389.66911764705884,473.3830702329778 396.125,476.09829446900426 402.58088235294116,476.1463607897207 409.0367647058824,480.3803252493706 415.49264705882354,483.1780771812031 421.9485294117647,481.72232811026623 428.4044117647059,471.8291167599596 434.8602941176471,464.3010118438564 441.31617647058823,465.4159260076641 447.77205882352945,465.12466470930224 454.2279411764706,461.3376938973644 460.68382352941177,444.3634736082549 467.1397058823529,436.15794756782185 473.59558823529414,424.42300217250477 480.0514705882353,417.0772137427451 486.50735294117646,416.2542725947781 492.9632352941177,428.8117187603984 499.41911764705884,434.91642357308683 505.875,418.03787409066035 512.3308823529412,403.06571771362235 518.7867647058824,404.5251929047927 525.2426470588235,426.8439708809696 531.6985294117648,446.7117096927093 538.1544117647059,453.2889798501665 544.6102941176471,466.765576706803 551.0661764705883,466.21999523288747 557.5220588235294,478.83162730282913 563.9779411764706,472.1191940427478 570.4338235294118,456.46151590405356 576.8897058823529,421.0782179688722 583.3455882352941,391.3737940983885 589.8014705882354,385.4668279660125 596.2573529411765,388.4477496146328 602.7132352941177,387.0052088604673 609.1691176470588,387.2113289700462 615.625,385.9495791229546 622.0808823529412,391.3343931605815 628.5367647058823,387.66974016568633 634.9926470588235,392.751664811969 641.4485294117648,395.8901077682101 647.9044117647059,396.3060242884507 654.3602941176471,394.36130221745486 660.8161764705883,404.3885996025468 667.2720588235294,404.8399773302325 673.7279411764706,402.35352799514146 680.1838235294118,389.5111058391146 686.6397058823529,391.3243394531337 693.0955882352941,394.40502644238427 699.5514705882354,400.19909442798433 706.0073529411765,402.79793478607155 712.4632352941177,421.42390646404795 718.9191176470589,429.50930262193765 725.375,445.50694813066 731.8308823529412,456.5766411887333 738.2867647058823,461.0623654907642 744.7426470588235,462.2276984140001 751.1985294117648,449.6180971281429 757.6544117647059,449.900253125803 764.1102941176471,440.69884756322887 770.5661764705883,442.03026048407753 777.0220588235294,440.3199688992781 783.4779411764706,455.73144879776817 789.9338235294118,467.9237512559181 796.3897058823529,484.744064877912 802.8455882352941,488.0642109141739 809.3014705882354,487.32999514765953 815.7573529411765,483.7554307228871 822.2132352941177,478.0559943592322 828.6691176470589,480.1769145855236 835.125,484.5234030132125 841.5808823529412,491.28593471753516 848.0367647058823,488.33475149031113 854.4926470588235,488.58316268884374 860.9485294117648,479.5895561094952 867.4044117647059,481.79162511132847 873.8602941176471,473.50274573316193 880.3161764705883,478.8517553747664 886.7720588235294,470.8760115255479"/>
<circle cx="47.50735294117647" cy="387.08064412925245" r="3.5" fill="#dc2626"/><line x1="47.50735294117647" x2="47.50735294117647" y1="44" y2="344" stroke="#dc2626" stroke-opacity=".18"/>
<circle cx="60.419117647058826" cy="391.8451700843907" r="3.5" fill="#dc2626"/><line x1="60.419117647058826" x2="60.419117647058826" y1="44" y2="344" stroke="#dc2626" stroke-opacity=".18"/>
<circle cx="73.33088235294119" cy="384.78358116762786" r="3.5" fill="#dc2626"/><line x1="73.33088235294119" x2="73.33088235294119" y1="44" y2="344" stroke="#dc2626" stroke-opacity=".18"/>
<circle cx="105.61029411764706" cy="395.2133436772692" r="3.5" fill="#dc2626"/><line x1="105.61029411764706" x2="105.61029411764706" y1="44" y2="344" stroke="#dc2626" stroke-opacity=".18"/>
<circle cx="150.8014705882353" cy="481.01445198064914" r="3.5" fill="#16a34a"/><line x1="150.8014705882353" x2="150.8014705882353" y1="44" y2="344" stroke="#16a34a" stroke-opacity=".18"/>
<circle cx="170.16911764705884" cy="476.18517861620603" r="3.5" fill="#16a34a"/><line x1="170.16911764705884" x2="170.16911764705884" y1="44" y2="344" stroke="#16a34a" stroke-opacity=".18"/>
<circle cx="195.99264705882354" cy="395.7110105375778" r="3.5" fill="#dc2626"/><line x1="195.99264705882354" x2="195.99264705882354" y1="44" y2="344" stroke="#dc2626" stroke-opacity=".18"/>
<circle cx="228.27205882352942" cy="496.263176287448" r="3.5" fill="#16a34a"/><line x1="228.27205882352942" x2="228.27205882352942" y1="44" y2="344" stroke="#16a34a" stroke-opacity=".18"/>
<circle cx="241.18382352941177" cy="485.64147617582046" r="3.5" fill="#16a34a"/><line x1="241.18382352941177" x2="241.18382352941177" y1="44" y2="344" stroke="#16a34a" stroke-opacity=".18"/>
<circle cx="254.09558823529412" cy="474.0038153832775" r="3.5" fill="#16a34a"/><line x1="254.09558823529412" x2="254.09558823529412" y1="44" y2="344" stroke="#16a34a" stroke-opacity=".18"/>
<circle cx="279.91911764705884" cy="475.136703730937" r="3.5" fill="#16a34a"/><line x1="279.91911764705884" x2="279.91911764705884" y1="44" y2="344" stroke="#16a34a" stroke-opacity=".18"/>
<circle cx="325.1102941176471" cy="484.69971142858986" r="3.5" fill="#16a34a"/><line x1="325.1102941176471" x2="325.1102941176471" y1="44" y2="344" stroke="#16a34a" stroke-opacity=".18"/>
<circle cx="383.2132352941177" cy="477.8725075528701" r="3.5" fill="#16a34a"/><line x1="383.2132352941177" x2="383.2132352941177" y1="44" y2="344" stroke="#16a34a" stroke-opacity=".18"/>
<circle cx="441.31617647058823" cy="476.994201793632" r="3.5" fill="#16a34a"/><line x1="441.31617647058823" x2="441.31617647058823" y1="44" y2="344" stroke="#16a34a" stroke-opacity=".18"/>
<circle cx="505.875" cy="379.12119442138805" r="3.5" fill="#dc2626"/><line x1="505.875" x2="505.875" y1="44" y2="344" stroke="#dc2626" stroke-opacity=".18"/>
<circle cx="544.6102941176471" cy="486.5073189198284" r="3.5" fill="#16a34a"/><line x1="544.6102941176471" x2="544.6102941176471" y1="44" y2="344" stroke="#16a34a" stroke-opacity=".18"/>
<circle cx="557.5220588235294" cy="484.2934223307974" r="3.5" fill="#16a34a"/><line x1="557.5220588235294" x2="557.5220588235294" y1="44" y2="344" stroke="#16a34a" stroke-opacity=".18"/>
<circle cx="576.8897058823529" cy="378.1435285252533" r="3.5" fill="#dc2626"/><line x1="576.8897058823529" x2="576.8897058823529" y1="44" y2="344" stroke="#dc2626" stroke-opacity=".18"/>
<circle cx="596.2573529411765" cy="387.0862934711143" r="3.5" fill="#dc2626"/><line x1="596.2573529411765" x2="596.2573529411765" y1="44" y2="344" stroke="#dc2626" stroke-opacity=".18"/>
<circle cx="615.625" cy="383.30104392983947" r="3.5" fill="#dc2626"/><line x1="615.625" x2="615.625" y1="44" y2="344" stroke="#dc2626" stroke-opacity=".18"/>
<circle cx="647.9044117647059" cy="391.87235874942417" r="3.5" fill="#dc2626"/><line x1="647.9044117647059" x2="647.9044117647059" y1="44" y2="344" stroke="#dc2626" stroke-opacity=".18"/>
<circle cx="667.2720588235294" cy="393.22649193248145" r="3.5" fill="#dc2626"/><line x1="667.2720588235294" x2="667.2720588235294" y1="44" y2="344" stroke="#dc2626" stroke-opacity=".18"/>
<circle cx="693.0955882352941" cy="394.4953646181783" r="3.5" fill="#dc2626"/><line x1="693.0955882352941" x2="693.0955882352941" y1="44" y2="344" stroke="#dc2626" stroke-opacity=".18"/>
<circle cx="731.8308823529412" cy="483.58235882632727" r="3.5" fill="#16a34a"/><line x1="731.8308823529412" x2="731.8308823529412" y1="44" y2="344" stroke="#16a34a" stroke-opacity=".18"/>
<circle cx="783.4779411764706" cy="476.58187215242305" r="3.5" fill="#16a34a"/><line x1="783.4779411764706" x2="783.4779411764706" y1="44" y2="344" stroke="#16a34a" stroke-opacity=".18"/>
<circle cx="828.6691176470589" cy="490.4848144850828" r="3.5" fill="#16a34a"/><line x1="828.6691176470589" x2="828.6691176470589" y1="44" y2="344" stroke="#16a34a" stroke-opacity=".18"/>
<circle cx="867.4044117647059" cy="488.2374718089105" r="3.5" fill="#16a34a"/><line x1="867.4044117647059" x2="867.4044117647059" y1="44" y2="344" stroke="#16a34a" stroke-opacity=".18"/>
<circle cx="880.3161764705883" cy="478.7978054699798" r="3.5" fill="#16a34a"/><line x1="880.3161764705883" x2="880.3161764705883" y1="44" y2="344" stroke="#16a34a" stroke-opacity=".18"/>
<text x="890" y="528" font-size="10" fill="#94a3b8" text-anchor="end">foxonivesting.com.br</text>
</svg>