<svg xmlns="http://www.w3.org/2000/svg" viewBox="0 0 960 540" font-family="Inter,system-ui,sans-serif" font-size="12" role="img">
<rect width="960" height="540" fill="#ffffff"/>
<text x="12" y="22" font-size="15" font-weight="700" fill="#0f172a">USD/JPY · 1D</text>
<text x="890" y="22" font-size="11" fill="#64748b" text-anchor="end">Yahoo Finance · 2026-04-01 → 2026-10-07</text>
<line x1="12" x2="890" y1="344" y2="344" stroke="#eef1f4"/><text x="898" y="348" fill="#64748b">152.23</text>
<line x1="12" x2="890" y1="283.9999999999997" y2="283.9999999999997" stroke="#eef1f4"/><text x="898" y="287.9999999999997" fill="#64748b">154.71</text>
<line x1="12" x2="890" y1="224.00000000000014" y2="224.00000000000014" stroke="#eef1f4"/><text x="898" y="228.00000000000014" fill="#64748b">157.20</text>
<line x1="12" x2="890" y1="163.9999999999999" y2="163.9999999999999" stroke="#eef1f4"/><text x="898" y="167.9999999999999" fill="#64748b">159.68</text>
<line x1="12" x2="890" y1="104.00000000000028" y2="104.00000000000028" stroke="#eef1f4"/><text x="898" y="108.00000000000028" fill="#64748b">162.16</text>
<line x1="12" x2="890" y1="44" y2="44" stroke="#eef1f4"/><text x="898" y="48" fill="#64748b">164.64</text>
<text x="15.227941176470589" y="528" fill="#64748b" text-anchor="start">01/04/26</text>
<text x="163.71323529411765" y="528" fill="#64748b" text-anchor="middle">04/05/26</text>
<text x="312.1985294117647" y="528" fill="#64748b" text-anchor="middle">04/06/26</text>
<text x="460.68382352941177" y="528" fill="#64748b" text-anchor="middle">07/07/26</text>
<text x="609.1691176470588" y="528" fill="#64748b" text-anchor="middle">07/08/26</text>
<text x="757.6544117647059" y="528" fill="#64748b" text-anchor="middle">09/09/26</text>
<line x1="15.227941176470589" x2="15.227941176470589" y1="180.65785451691517" y2="197.8430217805657" stroke="#16a34a"/><rect x="12.968382352941177" y="190.59217646329876" width="4.519117647058823" height="1" fill="#16a34a"/>
<line x1="21.683823529411764" x2="21.683823529411764" y1="162.48168921829537" y2="190.06034945681358" stroke="#dc2626"/><rect x="19.424264705882354" y="187.69146952432092" width="4.519117647058823" height="1" fill="#dc2626"/>
<line x1="28.139705882352942" x2="28.139705882352942" y1="163.6176303971958" y2="170.0954456134967" stroke="#16a34a"/><rect x="25.880147058823532" y="168.54864778742257" width="4.519117647058823" height="1" fill="#16a34a"/>
<line x1="34.595588235294116" x2="34.595588235294116" y1="161.24911927677422" y2="172.7542118338516" stroke="#16a34a"/><rect x="32.336029411764706" y="161.5633471613272" width="4.519117647058823" height="1" fill="#16a34a"/>
<line x1="41.05147058823529" x2="41.05147058823529" y1="155.8832724547541" y2="168.98347721921596" stroke="#dc2626"/><rect x="38.79191176470588" y="163.35208570602427" width="4.519117647058823" height="1" fill="#dc2626"/>
<line x1="47.50735294117647" x2="47.50735294117647" y1="186.53155556080085" y2="207.17286074246297" stroke="#16a34a"/><rect x="45.24779411764706" y="187.2806128771472" width="4.519117647058823" height="1.6437954007659528" fill="#16a34a"/>
<line x1="53.963235294117645" x2="53.963235294117645" y1="173.6485811062001" y2="189.2626089470858" stroke="#16a34a"/><rect x="51.703676470588235" y="189.0693514218443" width="4.519117647058823" height="1" fill="#16a34a"/>
<line x1="60.419117647058826" x2="60.419117647058826" y1="171.61827065495117" y2="180.1986834884311" stroke="#16a34a"/><rect x="58.159558823529416" y="177.709202008698" width="4.519117647058823" height="1" fill="#16a34a"/>
<line x1="66.875" x2="66.875" y1="159.87123737925086" y2="167.9201920183166" stroke="#dc2626"/><rect x="64.61544117647058" y="163.56931601588542" width="4.519117647058823" height="1" fill="#dc2626"/>
<line x1="73.33088235294119" x2="73.33088235294119" y1="172.58492709322974" y2="190.01203507550318" stroke="#dc2626"/><rect x="71.07132352941177" y="174.08377935006456" width="4.519117647058823" height="1.1599139635200686" fill="#dc2626"/>
<line x1="79.78676470588235" x2="79.78676470588235" y1="176.71820397372872" y2="188.8277795152924" stroke="#16a34a"/><rect x="77.52720588235293" y="185.44355995113975" width="4.519117647058823" height="1" fill="#16a34a"/>
<line x1="86.24264705882354" x2="86.24264705882354" y1="173.4792963655783" y2="197.8673633772564" stroke="#16a34a"/><rect x="83.98308823529412" y="185.03270330396603" width="4.519117647058823" height="1" fill="#16a34a"/>
<line x1="92.69852941176471" x2="92.69852941176471" y1="167.96850639962702" y2="213.96490384331688" stroke="#dc2626"/><rect x="90.43897058823529" y="175.00212140703277" width="4.519117647058823" height="1" fill="#dc2626"/>
<line x1="99.15441176470588" x2="99.15441176470588" y1="176.1380625859332" y2="191.26894661371506" stroke="#16a34a"/><rect x="96.89485294117647" y="176.52494644848724" width="4.519117647058823" height="1" fill="#16a34a"/>
<line x1="105.61029411764706" x2="105.61029411764706" y1="169.99881685087598" y2="185.17801525996825" stroke="#dc2626"/><rect x="103.35073529411764" y="183.945076506376" width="4.519117647058823" height="1" fill="#dc2626"/>
<line x1="112.06617647058823" x2="112.06617647058823" y1="168.2344199028696" y2="177.90245953393952" stroke="#16a34a"/><rect x="109.80661764705881" y="171.40067153301894" width="4.519117647058823" height="1" fill="#16a34a"/>
<line x1="118.52205882352942" x2="118.52205882352942" y1="161.65997592394794" y2="173.2133828623357" stroke="#dc2626"/><rect x="116.2625" y="168.47599180942146" width="4.519117647058823" height="1" fill="#dc2626"/>
<line x1="124.9779411764706" x2="124.9779411764706" y1="160.18546526380385" y2="172.2950408053675" stroke="#16a34a"/><rect x="122.71838235294118" y="162.36108767105497" width="4.519117647058823" height="1" fill="#16a34a"/>
<line x1="131.43382352941177" x2="131.43382352941177" y1="166.51833733617363" y2="178.24102901518324" stroke="#16a34a"/><rect x="129.17426470588236" y="166.49399573948293" width="4.519117647058823" height="1" fill="#16a34a"/>
<line x1="137.88970588235293" x2="137.88970588235293" y1="161.46671839870646" y2="181.14136714209" stroke="#dc2626"/><rect x="135.63014705882352" y="171.73924101426266" width="4.519117647058823" height="1" fill="#dc2626"/>
<line x1="144.34558823529412" x2="144.34558823529412" y1="149.28485569121275" y2="167.8235632556959" stroke="#16a34a"/><rect x="142.0860294117647" y="167.07413712727845" width="4.519117647058823" height="1" fill="#16a34a"/>
<line x1="150.8014705882353" x2="150.8014705882353" y1="139.27824657889911" y2="263.7803502829528" stroke="#dc2626"/><rect x="148.5419117647059" y="151.58107964570428" width="4.519117647058823" height="1" fill="#dc2626"/>
<line x1="157.25735294117646" x2="157.25735294117646" y1="221.2884051385849" y2="264.62603636191983" stroke="#dc2626"/><rect x="154.99779411764706" y="228.9021615337862" width="4.519117647058823" height="1" fill="#dc2626"/>
<line x1="163.71323529411765" x2="163.71323529411765" y1="222.062172863693" y2="257.3991638292726" stroke="#dc2626"/><rect x="161.45367647058825" y="231.1744127036581" width="4.519117647058823" height="1.3052259195222575" fill="#dc2626"/>
<line x1="170.16911764705884" x2="170.16911764705884" y1="208.57471542460598" y2="225.8325386662576" stroke="#dc2626"/><rect x="167.90955882352944" y="223.80222821500865" width="4.519117647058823" height="1" fill="#dc2626"/>
<line x1="176.625" x2="176.625" y1="207.26948950508373" y2="275.96221299044646" stroke="#16a34a"/><rect x="174.3654411764706" y="212.393764420552" width="4.519117647058823" height="1" fill="#16a34a"/>
<line x1="183.0808823529412" x2="183.0808823529412" y1="240.57653883148544" y2="252.05765860394314" stroke="#dc2626"/><rect x="180.82132352941179" y="240.57653883148544" width="4.519117647058823" height="1" fill="#dc2626"/>
<line x1="189.53676470588235" x2="189.53676470588235" y1="229.40964694358067" y2="242.14767825425028" stroke="#dc2626"/><rect x="187.27720588235294" y="232.67289614842184" width="4.519117647058823" height="1" fill="#dc2626"/>
<line x1="195.99264705882354" x2="195.99264705882354" y1="224.67225589066646" y2="232.26203950124813" stroke="#dc2626"/><rect x="193.73308823529413" y="231.4399573948296" width="4.519117647058823" height="1" fill="#dc2626"/>
<line x1="202.44852941176472" x2="202.44852941176472" y1="210.7259962351664" y2="233.37363908345782" stroke="#dc2626"/><rect x="200.18897058823532" y="222.23108879224378" width="4.519117647058823" height="1" fill="#dc2626"/>
<line x1="208.90441176470588" x2="208.90441176470588" y1="207.22117512377335" y2="214.76264435304466" stroke="#dc2626"/><rect x="206.64485294117648" y="212.44207880186238" width="4.519117647058823" height="1" fill="#dc2626"/>
<line x1="215.36029411764707" x2="215.36029411764707" y1="200.16358733174795" y2="214.03755982131796" stroke="#16a34a"/><rect x="213.10073529411767" y="208.18820037412297" width="4.519117647058823" height="1" fill="#16a34a"/>
<line x1="221.81617647058823" x2="221.81617647058823" y1="186.74878587066203" y2="197.2149348235308" stroke="#dc2626"/><rect x="219.55661764705883" y="195.08762679759005" width="4.519117647058823" height="1" fill="#dc2626"/>
<line x1="228.27205882352942" x2="228.27205882352942" y1="178.99008633152957" y2="189.11766580315467" stroke="#dc2626"/><rect x="226.01250000000002" y="183.58253424051264" width="4.519117647058823" height="1" fill="#dc2626"/>
<line x1="234.72794117647058" x2="234.72794117647058" y1="174.56692316316833" y2="185.78212943238347" stroke="#dc2626"/><rect x="232.46838235294118" y="183.4375910965815" width="4.519117647058823" height="1" fill="#dc2626"/>
<line x1="241.18382352941177" x2="241.18382352941177" y1="176.40397608917579" y2="190.22963419743542" stroke="#dc2626"/><rect x="238.92426470588236" y="179.13539828753176" width="4.519117647058823" height="1" fill="#dc2626"/>
<line x1="247.63970588235296" x2="247.63970588235296" y1="172.73023904923195" y2="184.8154729941049" stroke="#16a34a"/><rect x="245.38014705882355" y="183.12336321202858" width="4.519117647058823" height="1" fill="#16a34a"/>
<line x1="254.09558823529412" x2="254.09558823529412" y1="174.97777981034204" y2="180.4162826103633" stroke="#dc2626"/><rect x="251.8360294117647" y="179.25599983477215" width="4.519117647058823" height="1" fill="#dc2626"/>
<line x1="260.5514705882353" x2="260.5514705882353" y1="179.52191333801474" y2="186.24130046086754" stroke="#16a34a"/><rect x="258.2919117647059" y="181.72150852988557" width="4.519117647058823" height="1" fill="#16a34a"/>
<line x1="267.00735294117646" x2="267.00735294117646" y1="171.42501312970967" y2="182.66419218354446" stroke="#16a34a"/><rect x="264.74779411764706" y="181.52825100464406" width="4.519117647058823" height="1" fill="#16a34a"/>
<line x1="273.4632352941177" x2="273.4632352941177" y1="167.8958504216259" y2="176.21071856393428" stroke="#16a34a"/><rect x="271.2036764705883" y="174.54295037854868" width="4.519117647058823" height="1" fill="#16a34a"/>
<line x1="279.91911764705884" x2="279.91911764705884" y1="164.87454193540768" y2="176.40397608917579" stroke="#dc2626"/><rect x="277.65955882352944" y="166.54231012079327" width="4.519117647058823" height="1" fill="#dc2626"/>
<line x1="286.375" x2="286.375" y1="171.32801555501786" y2="178.023429893251" stroke="#16a34a"/><rect x="284.1154411764706" y="173.89015301275202" width="4.519117647058823" height="1" fill="#16a34a"/>
<line x1="292.83088235294116" x2="292.83088235294116" y1="162.3127732897446" y2="171.52164189233045" stroke="#dc2626"/><rect x="290.57132352941176" y="171.15909962646708" width="4.519117647058823" height="1" fill="#dc2626"/>
<line x1="299.2867647058824" x2="299.2867647058824" y1="158.78361058166084" y2="165.0438266760295" stroke="#dc2626"/><rect x="297.027205882353" y="164.9471979134088" width="4.519117647058823" height="1" fill="#dc2626"/>
<line x1="305.74264705882354" x2="305.74264705882354" y1="156.39075786454853" y2="168.0411623776281" stroke="#dc2626"/><rect x="303.48308823529413" y="156.84992889303263" width="4.519117647058823" height="1" fill="#dc2626"/>
<line x1="312.1985294117647" x2="312.1985294117647" y1="155.73832931082296" y2="162.2884316930539" stroke="#dc2626"/><rect x="309.9389705882353" y="157.5510406401397" width="4.519117647058823" height="1" fill="#dc2626"/>
<line x1="318.6544117647059" x2="318.6544117647059" y1="149.23654130990238" y2="160.4996931483568" stroke="#16a34a"/><rect x="316.3948529411765" y="156.4873866271693" width="4.519117647058823" height="1" fill="#16a34a"/>
<line x1="325.1102941176471" x2="325.1102941176471" y1="146.86766137740975" y2="158.51769707841825" stroke="#dc2626"/><rect x="322.85073529411767" y="148.31783044086313" width="4.519117647058823" height="1" fill="#dc2626"/>
<line x1="331.56617647058823" x2="331.56617647058823" y1="149.01894218797017" y2="154.9166160164755" stroke="#dc2626"/><rect x="329.30661764705883" y="151.8466243368758" width="4.519117647058823" height="1" fill="#dc2626"/>
<line x1="338.0220588235294" x2="338.0220588235294" y1="143.65309536595" y2="150.1788561514902" stroke="#16a34a"/><rect x="335.7625" y="146.96429014003047" width="4.519117647058823" height="1" fill="#16a34a"/>
<line x1="344.4779411764706" x2="344.4779411764706" y1="142.08195594318514" y2="145.92497772375083" stroke="#16a34a"/><rect x="342.2183823529412" y="143.50815222201888" width="4.519117647058823" height="1" fill="#16a34a"/>
<line x1="350.93382352941177" x2="350.93382352941177" y1="147.32683240589384" y2="156.898243274343" stroke="#dc2626"/><rect x="348.67426470588236" y="152.18519381811953" width="4.519117647058823" height="1" fill="#dc2626"/>
<line x1="357.3897058823529" x2="357.3897058823529" y1="150.87996789859724" y2="158.9772369189734" stroke="#16a34a"/><rect x="355.1301470588235" y="157.33344151820745" width="4.519117647058823" height="1" fill="#16a34a"/>
<line x1="363.84558823529414" x2="363.84558823529414" y1="145.17592040740448" y2="154.8439600384744" stroke="#dc2626"/><rect x="361.58602941176474" y="150.4447696547328" width="4.519117647058823" height="1" fill="#dc2626"/>
<line x1="370.3014705882353" x2="370.3014705882353" y1="146.04594808306229" y2="153.393790975021" stroke="#16a34a"/><rect x="368.0419117647059" y="146.1182352489923" width="4.519117647058823" height="1" fill="#16a34a"/>
<line x1="376.75735294117646" x2="376.75735294117646" y1="123.22902049414904" y2="143.21789712208556" stroke="#16a34a"/><rect x="374.49779411764706" y="141.74338646194147" width="4.519117647058823" height="1.208597156901476" fill="#16a34a"/>
<line x1="383.2132352941177" x2="383.2132352941177" y1="121.22268282751972" y2="131.9304036869404" stroke="#16a34a"/><rect x="380.9536764705883" y="125.09004620477614" width="4.519117647058823" height="1" fill="#16a34a"/>
<line x1="389.66911764705884" x2="389.66911764705884" y1="109.98350377368496" y2="129.58586535113847" stroke="#16a34a"/><rect x="387.40955882352944" y="121.60956669007382" width="4.519117647058823" height="1" fill="#16a34a"/>
<line x1="396.125" x2="396.125" y1="114.35835256073582" y2="124.58256079498167" stroke="#16a34a"/><rect x="393.8654411764706" y="118.29800310392224" width="4.519117647058823" height="1" fill="#16a34a"/>
<line x1="402.58088235294116" x2="402.58088235294116" y1="112.69058437535023" y2="119.24068675758119" stroke="#16a34a"/><rect x="400.32132352941176" y="117.59726016888627" width="4.519117647058823" height="1" fill="#16a34a"/>
<line x1="409.0367647058824" x2="409.0367647058824" y1="109.47601836389049" y2="117.88714645674852" stroke="#16a34a"/><rect x="406.777205882353" y="113.63326802900914" width="4.519117647058823" height="1" fill="#16a34a"/>
<line x1="415.49264705882354" x2="415.49264705882354" y1="111.69958634038093" y2="119.1440579949604" stroke="#16a34a"/><rect x="413.23308823529413" y="112.6182972094202" width="4.519117647058823" height="1" fill="#16a34a"/>
<line x1="421.9485294117647" x2="421.9485294117647" y1="108.99250573871566" y2="114.69692204197952" stroke="#16a34a"/><rect x="419.6889705882353" y="113.05312664121357" width="4.519117647058823" height="1" fill="#16a34a"/>
<line x1="428.4044117647059" x2="428.4044117647059" y1="92.1698807409285" y2="109.83856062975383" stroke="#16a34a"/><rect x="426.1448529411765" y="109.76590465175272" width="4.519117647058823" height="1" fill="#16a34a"/>
<line x1="434.8602941176471" x2="434.8602941176471" y1="87.69840319125689" y2="100.79860795571875" stroke="#dc2626"/><rect x="432.60073529411767" y="91.9522816189963" width="4.519117647058823" height="1" fill="#dc2626"/>
<line x1="441.31617647058823" x2="441.31617647058823" y1="93.78933454500373" y2="139.61644724807175" stroke="#dc2626"/><rect x="439.05661764705883" y="94.80430536459266" width="4.519117647058823" height="1" fill="#dc2626"/>
<line x1="447.77205882352945" x2="447.77205882352945" y1="120.1350560299297" y2="141.2602426488377" stroke="#16a34a"/><rect x="445.51250000000005" y="121.22268282751972" width="4.519117647058823" height="1.087626797590076" fill="#16a34a"/>
<line x1="454.2279411764706" x2="454.2279411764706" y1="97.65669792226015" y2="120.83616777703674" stroke="#dc2626"/><rect x="451.9683823529412" y="120.30434077055156" width="4.519117647058823" height="1" fill="#dc2626"/>
<line x1="460.68382352941177" x2="460.68382352941177" y1="103.72328767931629" y2="115.44597935832587" stroke="#dc2626"/><rect x="458.42426470588236" y="105.6086549866341" width="4.519117647058823" height="1" fill="#dc2626"/>
<line x1="467.1397058823529" x2="467.1397058823529" y1="91.03393956202811" y2="105.97119725249743" stroke="#16a34a"/><rect x="464.8801470588235" y="99.13083977033315" width="4.519117647058823" height="1" fill="#16a34a"/>
<line x1="473.59558823529414" x2="473.59558823529414" y1="94.24850557348782" y2="101.93491794669026" stroke="#16a34a"/><rect x="471.33602941176474" y="94.87696134259377" width="4.519117647058823" height="1" fill="#16a34a"/>
<line x1="480.0514705882353" x2="480.0514705882353" y1="97.77729946950055" y2="125.01739022677503" stroke="#16a34a"/><rect x="477.7919117647059" y="99.13083977033315" width="4.519117647058823" height="1" fill="#16a34a"/>
<line x1="486.50735294117646" x2="486.50735294117646" y1="98.4057552386065" y2="110.66027392410129" stroke="#dc2626"/><rect x="484.24779411764706" y="110.66027392410129" width="4.519117647058823" height="1" fill="#dc2626"/>
<line x1="492.9632352941177" x2="492.9632352941177" y1="96.64135829060012" y2="115.27669461770401" stroke="#16a34a"/><rect x="490.7036764705883" y="97.53572756294867" width="4.519117647058823" height="1" fill="#16a34a"/>
<line x1="499.41911764705884" x2="499.41911764705884" y1="97.87429704419236" y2="108.70261945085343" stroke="#16a34a"/><rect x="497.15955882352944" y="103.38508701014365" width="4.519117647058823" height="1" fill="#16a34a"/>
<line x1="505.875" x2="505.875" y1="96.56907112467013" y2="108.38839156630044" stroke="#dc2626"/><rect x="503.6154411764706" y="105.87456848987668" width="4.519117647058823" height="1" fill="#dc2626"/>
<line x1="512.3308823529412" x2="512.3308823529412" y1="96.61738550598048" y2="104.35174344842221" stroke="#dc2626"/><rect x="510.0713235294118" y="98.69601033853979" width="4.519117647058823" height="1" fill="#dc2626"/>
<line x1="518.7867647058824" x2="518.7867647058824" y1="93.81367614169446" y2="101.35477655889468" stroke="#dc2626"/><rect x="516.527205882353" y="95.21553082383747" width="4.519117647058823" height="1" fill="#dc2626"/>
<line x1="525.2426470588235" x2="525.2426470588235" y1="82.98498492296233" y2="97.26981405970608" stroke="#16a34a"/><rect x="522.9830882352941" y="96.13387288080568" width="4.519117647058823" height="1" fill="#16a34a"/>
<line x1="531.6985294117648" x2="531.6985294117648" y1="78.94870561715516" y2="87.35983371001322" stroke="#16a34a"/><rect x="529.4389705882353" y="79.23859190501742" width="4.519117647058823" height="1" fill="#16a34a"/>
<line x1="538.1544117647059" x2="538.1544117647059" y1="60.07142857142833" y2="83.8793541953109" stroke="#16a34a"/><rect x="535.8948529411764" y="81.77675657813188" width="4.519117647058823" height="1" fill="#16a34a"/>
<line x1="544.6102941176471" x2="544.6102941176471" y1="61.231711347019484" y2="68.14435599511376" stroke="#dc2626"/><rect x="542.3507352941176" y="62.560910051161386" width="4.519117647058823" height="1.063654012970403" fill="#dc2626"/>
<line x1="551.0661764705883" x2="551.0661764705883" y1="65.34064663082773" y2="75.85474115293584" stroke="#16a34a"/><rect x="548.8066176470588" y="68.96643810153228" width="4.519117647058823" height="1" fill="#16a34a"/>
<line x1="557.5220588235294" x2="557.5220588235294" y1="60.9657978437769" y2="68.16869759180446" stroke="#dc2626"/><rect x="555.2624999999999" y="64.59122050241035" width="4.519117647058823" height="1" fill="#dc2626"/>
<line x1="563.9779411764706" x2="563.9779411764706" y1="62.39199412261058" y2="76.6524816626636" stroke="#16a34a"/><rect x="561.7183823529411" y="62.851165151094676" width="4.519117647058823" height="1" fill="#16a34a"/>
<line x1="570.4338235294118" x2="570.4338235294118" y1="66.01741678124404" y2="204.73169364404032" stroke="#16a34a"/><rect x="568.1742647058824" y="76.48319692204177" width="4.519117647058823" height="1.1359411789003957" fill="#16a34a"/>
<line x1="576.8897058823529" x2="576.8897058823529" y1="136.03933897074867" y2="188.44089565273836" stroke="#16a34a"/><rect x="574.6301470588235" y="151.8226515522562" width="4.519117647058823" height="1" fill="#16a34a"/>
<line x1="583.3455882352941" x2="583.3455882352941" y1="207.75300213025855" y2="270.91059405297926" stroke="#dc2626"/><rect x="581.0860294117647" y="211.88627901075756" width="4.519117647058823" height="2.803709364285993" fill="#dc2626"/>
<line x1="589.8014705882354" x2="589.8014705882354" y1="205.74703327570032" y2="223.1737724459027" stroke="#dc2626"/><rect x="587.5419117647059" y="215.72930079132323" width="4.519117647058823" height="1" fill="#dc2626"/>
<line x1="596.2573529411765" x2="596.2573529411765" y1="207.89794527418968" y2="221.45768987920673" stroke="#dc2626"/><rect x="593.997794117647" y="210.991909738409" width="4.519117647058823" height="1.039312416279671" fill="#dc2626"/>
<line x1="602.7132352941177" x2="602.7132352941177" y1="192.98502918041106" y2="214.27913172786984" stroke="#dc2626"/><rect x="600.4536764705882" y="212.707992305105" width="4.519117647058823" height="1.546797826074112" fill="#dc2626"/>
<line x1="609.1691176470588" x2="609.1691176470588" y1="191.02700589509212" y2="232.84218088904368" stroke="#dc2626"/><rect x="606.9095588235293" y="193.75842809344815" width="4.519117647058823" height="1" fill="#dc2626"/>
<line x1="615.625" x2="615.625" y1="179.30431421608253" y2="208.23651475543338" stroke="#dc2626"/><rect x="613.3654411764705" y="207.0039448139122" width="4.519117647058823" height="1" fill="#dc2626"/>
<line x1="622.0808823529412" x2="622.0808823529412" y1="171.15909962646708" y2="180.31965384774256" stroke="#16a34a"/><rect x="619.8213235294118" y="176.64554799572764" width="4.519117647058823" height="1" fill="#16a34a"/>
<line x1="628.5367647058823" x2="628.5367647058823" y1="169.39470267846073" y2="187.20832571121719" stroke="#dc2626"/><rect x="626.2772058823529" y="173.60026672488976" width="4.519117647058823" height="1" fill="#dc2626"/>
<line x1="634.9926470588235" x2="634.9926470588235" y1="168.9111900532859" y2="179.7638540566377" stroke="#16a34a"/><rect x="632.7330882352941" y="172.488298330609" width="4.519117647058823" height="1" fill="#16a34a"/>
<line x1="641.4485294117648" x2="641.4485294117648" y1="168.45201902480184" y2="189.19032178115575" stroke="#dc2626"/><rect x="639.1889705882353" y="170.0954456134967" width="4.519117647058823" height="1" fill="#dc2626"/>
<line x1="647.9044117647059" x2="647.9044117647059" y1="170.699928597983" y2="183.89676212506564" stroke="#dc2626"/><rect x="645.6448529411764" y="174.97777981034204" width="4.519117647058823" height="1" fill="#dc2626"/>
<line x1="654.3602941176471" x2="654.3602941176471" y1="161.6360031393283" y2="172.6815558558505" stroke="#16a34a"/><rect x="652.1007352941176" y="172.19841204274675" width="4.519117647058823" height="1" fill="#16a34a"/>
<line x1="660.8161764705883" x2="660.8161764705883" y1="167.62993691838332" y2="203.3298389618973" stroke="#16a34a"/><rect x="658.5566176470588" y="167.12245150858885" width="4.519117647058823" height="1" fill="#16a34a"/>
<line x1="667.2720588235294" x2="667.2720588235294" y1="181.4316222420233" y2="200.3328720723698" stroke="#16a34a"/><rect x="665.0124999999999" y="197.91567775856677" width="4.519117647058823" height="1" fill="#16a34a"/>
<line x1="673.7279411764706" x2="673.7279411764706" y1="177.39497412414508" y2="195.37788189752337" stroke="#dc2626"/><rect x="671.4683823529411" y="182.68816496816413" width="4.519117647058823" height="1" fill="#dc2626"/>
<line x1="680.1838235294118" x2="680.1838235294118" y1="173.67255389081978" y2="187.30495447383794" stroke="#16a34a"/><rect x="677.9242647058824" y="182.7364793494745" width="4.519117647058823" height="1" fill="#16a34a"/>
<line x1="686.6397058823529" x2="686.6397058823529" y1="168.6935909313537" y2="177.95077391524993" stroke="#16a34a"/><rect x="684.3801470588235" y="177.05640464290136" width="4.519117647058823" height="1" fill="#16a34a"/>
<line x1="693.0955882352941" x2="693.0955882352941" y1="169.82953211025412" y2="183.31662073727006" stroke="#dc2626"/><rect x="690.8360294117647" y="174.97777981034204" width="4.519117647058823" height="1" fill="#dc2626"/>
<line x1="699.5514705882354" x2="699.5514705882354" y1="168.08947675893847" y2="177.6125732460773" stroke="#16a34a"/><rect x="697.2919117647059" y="174.25269527861536" width="4.519117647058823" height="1" fill="#16a34a"/>
<line x1="706.0073529411765" x2="706.0073529411765" y1="154.98890318240552" y2="173.2377244590264" stroke="#16a34a"/><rect x="703.747794117647" y="172.65758307123087" width="4.519117647058823" height="1" fill="#16a34a"/>
<line x1="712.4632352941177" x2="712.4632352941177" y1="153.85296200350513" y2="168.8868484565952" stroke="#16a34a"/><rect x="710.2036764705882" y="153.29716221240028" width="4.519117647058823" height="1" fill="#16a34a"/>
<line x1="718.9191176470589" x2="718.9191176470589" y1="151.36348052377207" y2="164.97117069802843" stroke="#dc2626"/><rect x="716.6595588235294" y="161.75660468656866" width="4.519117647058823" height="1" fill="#dc2626"/>
<line x1="725.375" x2="725.375" y1="146.9886317367212" y2="195.8853673073178" stroke="#dc2626"/><rect x="723.1154411764705" y="151.33913892708134" width="4.519117647058823" height="1" fill="#dc2626"/>
<line x1="731.8308823529412" x2="731.8308823529412" y1="181.8181372925063" y2="268.75931324241884" stroke="#16a34a"/><rect x="729.5713235294118" y="182.27730832099041" width="4.519117647058823" height="1" fill="#16a34a"/>
<line x1="738.2867647058823" x2="738.2867647058823" y1="235.59757587201932" y2="269.291140248904" stroke="#16a34a"/><rect x="736.0272058823529" y="261.1455568472175" width="4.519117647058823" height="1" fill="#16a34a"/>
<line x1="744.7426470588235" x2="744.7426470588235" y1="246.98169806978524" y2="299.7218242330186" stroke="#dc2626"/><rect x="742.4830882352941" y="247.8760673421338" width="4.519117647058823" height="1" fill="#dc2626"/>
<line x1="751.1985294117648" x2="751.1985294117648" y1="291.9148103125758" y2="327.9285714285717" stroke="#16a34a"/><rect x="748.9389705882353" y="304.7734431704858" width="4.519117647058823" height="1" fill="#16a34a"/>
<line x1="757.6544117647059" x2="757.6544117647059" y1="305.7644412054551" y2="325.80163221470195" stroke="#16a34a"/><rect x="755.3948529411764" y="313.88568301045086" width="4.519117647058823" height="1.305225919522286" fill="#16a34a"/>
<line x1="764.1102941176471" x2="764.1102941176471" y1="286.2347356060027" y2="317.9702766975684" stroke="#16a34a"/><rect x="761.8507352941176" y="311.5894590559593" width="4.519117647058823" height="1" fill="#16a34a"/>
<line x1="770.5661764705883" x2="770.5661764705883" y1="287.2497064255916" y2="318.04293267556955" stroke="#16a34a"/><rect x="768.3066176470588" y="289.61858635808426" width="4.519117647058823" height="1" fill="#16a34a"/>
<line x1="777.0220588235294" x2="777.0220588235294" y1="277.33972607589874" y2="316.30250851218284" stroke="#dc2626"/><rect x="774.7624999999999" y="314.8523394487294" width="4.519117647058823" height="1" fill="#dc2626"/>
<line x1="783.4779411764706" x2="783.4779411764706" y1="271.707965750636" y2="291.2620129467791" stroke="#dc2626"/><rect x="781.2183823529411" y="291.0687554215376" width="4.519117647058823" height="1" fill="#dc2626"/>
<line x1="789.9338235294118" x2="789.9338235294118" y1="265.7380047562006" y2="279.49100688645916" stroke="#dc2626"/><rect x="787.6742647058824" y="270.1611679245618" width="4.519117647058823" height="1" fill="#dc2626"/>
<line x1="796.3897058823529" x2="796.3897058823529" y1="246.32926951605964" y2="268.8802836017303" stroke="#dc2626"/><rect x="794.1301470588235" y="252.2265745324939" width="4.519117647058823" height="1" fill="#dc2626"/>
<line x1="802.8455882352941" x2="802.8455882352941" y1="204.63506488141957" y2="250.0273481526942" stroke="#dc2626"/><rect x="800.5860294117647" y="249.08466449903528" width="4.519117647058823" height="1" fill="#dc2626"/>
<line x1="809.3014705882354" x2="809.3014705882354" y1="216.1161846538773" y2="238.61888435823758" stroke="#16a34a"/><rect x="807.0419117647059" y="227.64524999557432" width="4.519117647058823" height="1" fill="#16a34a"/>
<line x1="815.7573529411765" x2="815.7573529411765" y1="210.09754046606045" y2="232.93880965166443" stroke="#16a34a"/><rect x="813.497794117647" y="219.8382360751315" width="4.519117647058823" height="1" fill="#16a34a"/>
<line x1="822.2132352941177" x2="822.2132352941177" y1="195.08762679759005" y2="218.12215350843553" stroke="#dc2626"/><rect x="819.9536764705882" y="217.3004402140881" width="4.519117647058823" height="1" fill="#dc2626"/>
<line x1="828.6691176470589" x2="828.6691176470589" y1="180.51291137298404" y2="209.5173990782649" stroke="#dc2626"/><rect x="826.4095588235294" y="198.0606209024979" width="4.519117647058823" height="1" fill="#dc2626"/>
<line x1="835.125" x2="835.125" y1="184.23533160630933" y2="228.51564648330321" stroke="#dc2626"/><rect x="832.8654411764705" y="184.23533160630933" width="4.519117647058823" height="1" fill="#dc2626"/>
<line x1="841.5808823529412" x2="841.5808823529412" y1="208.21217315874264" y2="240.0930262063106" stroke="#16a34a"/><rect x="839.3213235294118" y="217.56635371733068" width="4.519117647058823" height="1" fill="#16a34a"/>
<line x1="848.0367647058823" x2="848.0367647058823" y1="212.12785091730942" y2="228.6362480305436" stroke="#16a34a"/><rect x="845.7772058823529" y="220.03186241244407" width="4.519117647058823" height="1" fill="#16a34a"/>
<line x1="854.4926470588235" x2="854.4926470588235" y1="218.67795329954035" y2="243.38024819577146" stroke="#dc2626"/><rect x="852.2330882352941" y="218.67795329954035" width="4.519117647058823" height="1" fill="#dc2626"/>
<line x1="860.9485294117648" x2="860.9485294117648" y1="193.92771283406995" y2="220.78091972879042" stroke="#dc2626"/><rect x="858.6889705882353" y="214.56901801573207" width="4.519117647058823" height="1" fill="#dc2626"/>
<line x1="867.4044117647059" x2="867.4044117647059" y1="199.48681718133162" y2="229.11976065571844" stroke="#dc2626"/><rect x="865.1448529411764" y="206.30283306680516" width="4.519117647058823" height="1" fill="#dc2626"/>
<line x1="873.8602941176471" x2="873.8602941176471" y1="197.6257914707045" y2="218.00118314912405" stroke="#16a34a"/><rect x="871.6007352941176" y="211.01625133509972" width="4.519117647058823" height="1" fill="#16a34a"/>
<line x1="880.3161764705883" x2="880.3161764705883" y1="198.97933177153715" y2="209.87994134412824" stroke="#16a34a"/><rect x="878.0566176470588" y="205.48111977245773" width="4.519117647058823" height="1" fill="#16a34a"/>
<line x1="886.7720588235294" x2="886.7720588235294" y1="192.64645969916737" y2="207.5354030083263" stroke="#dc2626"/><rect x="884.5124999999999" y="196.8520237455964" width="4.519117647058823" height="1" fill="#dc2626"/>
<rect x="12" y="370" width="878" height="130" fill="#fafbfc" stroke="#eef1f4"/>
<text x="18" y="385" font-size="11" font-weight="600" fill="#334155">ATR (14)</text>
<polyline fill="none" stroke="#0891b2" stroke-width="1.5" points="15.227941176470589,420.836285937541 21.683823529411764,421.270358823624 28.139705882352942,422.7951624774824 34.595588235294116,428.0291669888389 41.05147058823529,432.4147925085705 47.50735294117647,427.51360041909265 53.963235294117645,431.1882281397614 60.419117647058826,434.05388725559453 66.875,436.5997643926569 73.33088235294119,436.5263433978507 79.78676470588235,440.1610804061332 86.24264705882354,440.32217401335237 92.69852941176471,434.04361256029557 99.15441176470588,437.26607391709274 105.61029411764706,440.3734515046157 112.06617647058823,443.0287991822815 118.52205882352942,446.80317113826374 124.9779411764706,450.1424934298747 131.43382352941177,452.121666442692 137.88970588235293,452.8306024432766 144.34558823529412,452.64759817766196 150.8014705882353,422.1344003459671 157.25735294117646,397.2736656394932 163.71323529411765,397.2410083144779 170.16911764705884,400.6115492642723 176.625,390.4176505518542 183.0808823529412,389.58752094880197 189.53676470588235,396.82671940114903 195.99264705882354,404.89340133821963 202.44852941176472,408.0913644935862 208.90441176470588,413.0525755291827 215.36029411764707,418.27777349789585 221.81617647058823,420.8791395550309 228.27205882352942,424.8047145069201 234.72794117647058,429.98141633207666 241.18382352941177,434.01178417704307 247.63970588235296,438.2720182192369 254.09558823529412,443.3999357133997 260.5514705882353,448.58584500344887 267.00735294117646,452.05676311288903 273.4632352941177,454.5678116364945 279.91911764705884,457.52509995456876 286.375,460.32875427172326 292.83088235294116,462.8602836124954 299.2867647058824,464.7578625145773 305.74264705882354,466.95130322080144 312.1985294117647,470.5053316001975 318.6544117647059,472.40344055819133 325.1102941176471,474.0508782629743 331.56617647058823,477.0905528860053 338.0220588235294,479.3738539502418 344.4779411764706,482.5366928481615 350.93382352941177,482.94268691918154 357.3897058823529,484.894215154094 363.84558823529414,485.4984855126456 370.3014705882353,487.490399535666 376.75735294117646,484.7167131517722 383.2132352941177,482.84574311829 389.66911764705884,481.38160654161334 396.125,482.81190857709004 402.58088235294116,485.2330365738941 409.0367647058824,486.92760012303137 415.49264705882354,488.7886889495328 421.9485294117647,491.0344827586207 428.4044117647059,488.6043926789337 434.8602941176471,485.99558251487196 441.31617647058823,476.1885735375426 447.77205882352945,467.2330343622609 454.2279411764706,465.7049738472106 460.68382352941177,466.1122826641903 467.1397058823529,467.23119043946605 473.59558823529414,470.42719200224803 480.0514705882353,466.71518066904116 486.50735294117646,468.5890981933595 492.9632352941177,468.4309686438689 499.41911764705884,470.5058822499891 505.875,472.23850020833953 512.3308823529412,474.5233197699811 518.7867647058824,477.241683040209 525.2426470588235,477.7597211788161 531.6985294117648,477.3779502846552 538.1544117647059,475.0532792483169 544.6102941176471,473.8653132403001 551.0661764705883,475.2357482628813 557.5220588235294,477.76651769759235 563.9779411764706,478.25430889973916 570.4338235294118,440.7422442721239 576.8897058823529,414.8111978060213 583.3455882352941,388.61123029207016 589.8014705882354,394.525344793234 596.2573529411765,401.16739438377044 602.7132352941177,405.0341584658258 609.1691176470588,402.5200193891608 615.625,404.01794987006264 622.0808823529412,403.2878563800041 628.5367647058823,408.03854840439 634.9926470588235,414.5206843111572 641.4485294117648,417.59898392138325 647.9044117647059,422.52829373096193 654.3602941176471,427.2206020246391 660.8161764705883,424.9409173104379 667.2720588235294,423.564649947943 673.7279411764706,426.06168442902003 680.1838235294118,430.4295242871876 686.6397058823529,434.3632617206989 693.0955882352941,438.18135986051493 699.5514705882354,442.90596384153696 706.0073529411765,444.395387892951 712.4632352941177,445.9150208821854 718.9191176470589,448.8721162487252 725.375,441.1200383274171 731.8308823529412,413.58736311529697 738.2867647058823,397.01637053283827 744.7426470588235,391.8249244303564 751.1985294117648,378.9655172413793 757.6544117647059,384.4972348978296 764.1102941176471,386.44855611698176 770.5661764705883,388.54082152657276 777.0220588235294,388.0533211793647 783.4779411764706,386.25596348110605 789.9338235294118,389.72092738675366 796.3897058823529,393.4993715734913 802.8455882352941,389.98292369389526 809.3014705882354,390.9599279679821 815.7573529411765,395.09553834228007 822.2132352941177,398.36774845120175 828.6691176470589,397.7535655299423 835.125,395.0261273299298 841.5808823529412,389.272245561808 848.0367647058823,395.41233742669027 854.4926470588235,398.6762918203284 860.9485294117648,401.0672431363373 867.4044117647059,402.46048302579106 873.8602941176471,406.50818608950453 880.3161764705883,412.74733564298253 886.7720588235294,417.6923981390903"/>
<text x="890" y="528" font-size="10" fill="#94a3b8" text-anchor="end">foxonivesting.com.br</text>
</svg>