<svg xmlns="http://www.w3.org/2000/svg" viewBox="0 0 960 540" font-family="Inter,system-ui,sans-serif" font-size="12" role="img">
<rect width="960" height="540" fill="#ffffff"/>
<text x="12" y="22" font-size="15" font-weight="700" fill="#0f172a">S&amp;P 500 · 1D</text>
<text x="890" y="22" font-size="11" fill="#64748b" text-anchor="end">Yahoo Finance · 2026-03-02 → 2026-10-07</text>
<line x1="12" x2="890" y1="344" y2="344" stroke="#eef1f4"/><text x="898" y="348" fill="#64748b">6,225</text>
<line x1="12" x2="890" y1="284" y2="284" stroke="#eef1f4"/><text x="898" y="288" fill="#64748b">6,567</text>
<line x1="12" x2="890" y1="223.99999999999994" y2="223.99999999999994" stroke="#eef1f4"/><text x="898" y="227.99999999999994" fill="#64748b">6,910</text>
<line x1="12" x2="890" y1="164.00000000000009" y2="164.00000000000009" stroke="#eef1f4"/><text x="898" y="168.00000000000009" fill="#64748b">7,252</text>
<line x1="12" x2="890" y1="104.00000000000003" y2="104.00000000000003" stroke="#eef1f4"/><text x="898" y="108.00000000000003" fill="#64748b">7,594</text>
<line x1="12" x2="890" y1="44" y2="44" stroke="#eef1f4"/><text x="898" y="48" fill="#64748b">7,936</text>
<text x="14.869281045751634" y="528" fill="#64748b" text-anchor="start">02/03/26</text>
<text x="164.0718954248366" y="528" fill="#64748b" text-anchor="middle">08/04/26</text>
<text x="313.27450980392155" y="528" fill="#64748b" text-anchor="middle">14/05/26</text>
<text x="462.47712418300654" y="528" fill="#64748b" text-anchor="middle">23/06/26</text>
<text x="611.6797385620915" y="528" fill="#64748b" text-anchor="middle">30/07/26</text>
<text x="760.8823529411765" y="528" fill="#64748b" text-anchor="middle">04/09/26</text>
<line x1="14.869281045751634" x2="14.869281045751634" y1="225.51024049746542" y2="243.77400779412977" stroke="#16a34a"/><rect x="12.86078431372549" y="228.910097984846" width="4.0169934640522875" height="10.040238924392753" fill="#16a34a"/>
<line x1="20.607843137254903" x2="20.607843137254903" y1="236.19920065534802" y2="258.9290159528745" stroke="#16a34a"/><rect x="18.599346405228758" y="240.30574219462585" width="4.0169934640522875" height="2.870400960008112" fill="#16a34a"/>
<line x1="26.346405228758172" x2="26.346405228758172" y1="228.15264295611632" y2="241.1806639690792" stroke="#16a34a"/><rect x="24.337908496732027" y="231.0352871702341" width="4.0169934640522875" height="6.629764908972987" fill="#16a34a"/>
<line x1="32.08496732026144" x2="32.08496732026144" y1="230.87218647737438" y2="248.3452792866059" stroke="#dc2626"/><rect x="30.076470588235296" y="234.26510897466488" width="4.0169934640522875" height="3.571776747885764" fill="#dc2626"/>
<line x1="37.82352941176471" x2="37.82352941176471" y1="247.88234729380136" y2="258.72909988052413" stroke="#dc2626"/><rect x="35.815032679738565" y="248.65213119380235" width="4.0169934640522875" height="5.086686805345153" fill="#dc2626"/>
<line x1="43.56209150326798" x2="43.56209150326798" y1="241.39111095230714" y2="271.97107818034084" stroke="#16a34a"/><rect x="41.55359477124183" y="243.92477961571825" width="4.0169934640522875" height="16.866409602090243" fill="#16a34a"/>
<line x1="49.30065359477124" x2="49.30065359477124" y1="235.31717265648138" y2="250.28099769335955" stroke="#dc2626"/><rect x="47.292156862745095" y="243.82486438812384" width="4.0169934640522875" height="2.644200419044637" fill="#dc2626"/>
<line x1="55.03921568627451" x2="55.03921568627451" y1="241.2666235993318" y2="252.76218303670606" stroke="#dc2626"/><rect x="53.030718954248364" y="244.95937739656708" width="4.0169934640522875" height="2.5056718515658645" fill="#dc2626"/>
<line x1="60.77777777777778" x2="60.77777777777778" y1="253.58804617755908" y2="265.946284135277" stroke="#dc2626"/><rect x="58.76928104575163" y="253.58804617755908" width="4.0169934640522875" height="11.968936723894672" fill="#dc2626"/>
<line x1="66.51633986928104" x2="66.51633986928104" y1="254.91716699433306" y2="274.0962673657289" stroke="#dc2626"/><rect x="64.5078431372549" y="265.4044131194716" width="4.0169934640522875" height="7.241756380133779" fill="#dc2626"/>
<line x1="72.25490196078431" x2="72.25490196078431" y1="255.53258315195814" y2="265.2501309942573" stroke="#16a34a"/><rect x="70.24640522875816" y="260.8648199767898" width="4.0169934640522875" height="4.3853110174674725" fill="#16a34a"/>
<line x1="77.99346405228758" x2="77.99346405228758" y1="251.23494410797537" y2="258.8624058011449" stroke="#dc2626"/><rect x="75.98496732026143" y="256.8371318433512" width="4.0169934640522875" height="1.0976976289526306" fill="#dc2626"/>
<line x1="83.73202614379085" x2="83.73202614379085" y1="259.84777371407023" y2="274.49250358964224" stroke="#dc2626"/><rect x="81.7235294117647" y="261.25403559345136" width="4.0169934640522875" height="12.705415548030942" fill="#dc2626"/>
<line x1="89.47058823529412" x2="89.47058823529412" y1="271.8483031705976" y2="285.6865193838396" stroke="#16a34a"/><rect x="87.46209150326797" y="277.1524575664224" width="4.0169934640522875" height="4.09780858879401" fill="#16a34a"/>
<line x1="95.20915032679738" x2="95.20915032679738" y1="279.2267901578164" y2="300.46797986649665" stroke="#dc2626"/><rect x="93.20065359477124" y="279.2267901578164" width="4.0169934640522875" height="15.46186006594121" fill="#dc2626"/>
<line x1="100.94771241830065" x2="100.94771241830065" y1="269.2392057878115" y2="284.3311140984525" stroke="#16a34a"/><rect x="98.93921568627451" y="281.6220158709104" width="4.0169934640522875" height="1.0590842890681529" fill="#16a34a"/>
<line x1="106.68627450980392" x2="106.68627450980392" y1="279.0356926531115" y2="291.4220130398362" stroke="#16a34a"/><rect x="104.67777777777778" y="285.94071673664826" width="4.0169934640522875" height="1" fill="#16a34a"/>
<line x1="112.42483660130719" x2="112.42483660130719" y1="272.3393175924089" y2="283.8295687657636" stroke="#dc2626"/><rect x="110.41633986928105" y="278.5797812675587" width="4.0169934640522875" height="1.1310027048173765" fill="#dc2626"/>
<line x1="118.16339869281046" x2="118.16339869281046" y1="282.9861541067813" y2="300.4206335761284" stroke="#dc2626"/><rect x="116.15490196078431" y="286.0301866705267" width="4.0169934640522875" height="13.799517256195998" fill="#dc2626"/>
<line x1="123.90196078431373" x2="123.90196078431373" y1="303.9099609973875" y2="321.06036272452536" stroke="#dc2626"/><rect x="121.89346405228758" y="303.9099609973875" width="4.0169934640522875" height="14.91125609965195" fill="#dc2626"/>
<line x1="129.640522875817" x2="129.640522875817" y1="308.5706168065804" y2="327.9285714285715" stroke="#dc2626"/><rect x="127.63202614379085" y="312.76834062296876" width="4.0169934640522875" height="10.459249313293299" fill="#dc2626"/>
<line x1="135.37908496732027" x2="135.37908496732027" y1="288.97772869314196" y2="314.08170788200727" stroke="#16a34a"/><rect x="133.37058823529412" y="290.8240627831788" width="4.0169934640522875" height="23.257645098828448" fill="#16a34a"/>
<line x1="141.11764705882354" x2="141.11764705882354" y1="276.5949186100431" y2="286.3054458450905" stroke="#16a34a"/><rect x="139.1091503267974" y="282.6180003118748" width="4.0169934640522875" height="3.2894113489086863" fill="#16a34a"/>
<line x1="146.8562091503268" x2="146.8562091503268" y1="277.9555465422882" y2="300.2190051605459" stroke="#16a34a"/><rect x="144.84771241830066" y="281.3256948745914" width="4.0169934640522875" height="12.288117502362468" fill="#16a34a"/>
<line x1="152.59477124183007" x2="152.59477124183007" y1="275.1115156680548" y2="281.8464184514801" stroke="#16a34a"/><rect x="150.58627450980393" y="276.21614828709744" width="4.0169934640522875" height="4.238049499504882" fill="#16a34a"/>
<line x1="158.33333333333334" x2="158.33333333333334" y1="275.0887415030675" y2="289.76677645450434" stroke="#16a34a"/><rect x="156.3248366013072" y="275.3359182486245" width="4.0169934640522875" height="2.6161179900378215" fill="#16a34a"/>
<line x1="164.0718954248366" x2="164.0718954248366" y1="244.36142713990967" y2="253.69326966917305" stroke="#16a34a"/><rect x="162.06339869281047" y="246.2358436589533" width="4.0169934640522875" height="4.988569538144503" fill="#16a34a"/>
<line x1="169.81045751633988" x2="169.81045751633988" y1="237.03028644305903" y2="249.96370049244712" stroke="#16a34a"/><rect x="167.80196078431374" y="238.89768235485096" width="4.0169934640522875" height="7.1838791788880485" fill="#16a34a"/>
<line x1="175.54901960784315" x2="175.54901960784315" y1="235.19619560713187" y2="241.73828854262013" stroke="#dc2626"/><rect x="173.540522875817" y="236.34115390929105" width="4.0169934640522875" height="3.918954338198745" fill="#dc2626"/>
<line x1="181.28758169934642" x2="181.28758169934642" y1="227.96676809826934" y2="244.97162065067675" stroke="#16a34a"/><rect x="179.27908496732027" y="228.09998840172852" width="4.0169934640522875" height="13.987190074436683" fill="#16a34a"/>
<line x1="187.0261437908497" x2="187.0261437908497" y1="213.514933687796" y2="224.78078228058092" stroke="#16a34a"/><rect x="185.01764705882354" y="213.87264218898653" width="4.0169934640522875" height="10.026112092727743" fill="#16a34a"/>
<line x1="192.76470588235296" x2="192.76470588235296" y1="203.5518358260104" y2="213.91647817572888" stroke="#16a34a"/><rect x="190.7562091503268" y="204.12872426091272" width="4.0169934640522875" height="7.851949890900897" fill="#16a34a"/>
<line x1="198.5032679738562" x2="198.5032679738562" y1="199.17003511216876" y2="206.65896823785954" stroke="#16a34a"/><rect x="196.49477124183005" y="200.9147416313791" width="4.0169934640522875" height="1" fill="#16a34a"/>
<line x1="204.24183006535947" x2="204.24183006535947" y1="182.28615960911085" y2="195.08104509102017" stroke="#16a34a"/><rect x="202.23333333333332" y="186.0490338617016" width="4.0169934640522875" height="9.032011229318584" fill="#16a34a"/>
<line x1="209.98039215686273" x2="209.98039215686273" y1="186.646984118359" y2="193.35209212954538" stroke="#dc2626"/><rect x="207.9718954248366" y="187.62892734482003" width="4.0169934640522875" height="1.3869124008581935" fill="#dc2626"/>
<line x1="215.718954248366" x2="215.718954248366" y1="184.08343506554738" y2="199.35060170599616" stroke="#dc2626"/><rect x="213.71045751633986" y="186.6486964615911" width="4.0169934640522875" height="10.280480679859636" fill="#dc2626"/>
<line x1="221.45751633986927" x2="221.45751633986927" y1="183.8431933100805" y2="190.1082291106112" stroke="#16a34a"/><rect x="219.44901960784313" y="183.97298892707542" width="4.0169934640522875" height="6.135240183535785" fill="#16a34a"/>
<line x1="227.19607843137254" x2="227.19607843137254" y1="182.24061127913637" y2="199.9906756061638" stroke="#dc2626"/><rect x="225.1875816993464" y="187.32207543762357" width="4.0169934640522875" height="1.8235599250495795" fill="#dc2626"/>
<line x1="232.9346405228758" x2="232.9346405228758" y1="178.59169346864346" y2="188.3706288158142" stroke="#16a34a"/><rect x="230.92614379084966" y="179.20710962626853" width="4.0169934640522875" height="5.014854006757588" fill="#16a34a"/>
<line x1="238.67320261437908" x2="238.67320261437908" y1="176.8118839131746" y2="182.42640051982173" stroke="#16a34a"/><rect x="236.66470588235293" y="177.65880887578274" width="4.0169934640522875" height="3.7155279622224953" fill="#16a34a"/>
<line x1="244.41176470588235" x2="244.41176470588235" y1="181.40943987426377" y2="187.95855341700374" stroke="#16a34a"/><rect x="242.4032679738562" y="183.81519649823525" width="4.0169934640522875" height="1" fill="#16a34a"/>
<line x1="250.15032679738562" x2="250.15032679738562" y1="182.61758364168827" y2="189.24032794340954" stroke="#16a34a"/><rect x="248.14183006535947" y="184.3148582533688" width="4.0169934640522875" height="1" fill="#16a34a"/>
<line x1="255.88888888888889" x2="255.88888888888889" y1="169.60702852969305" y2="186.03328030396602" stroke="#16a34a"/><rect x="253.88039215686274" y="171.50430483088553" width="4.0169934640522875" height="8.286713837537008" fill="#16a34a"/>
<line x1="261.62745098039215" x2="261.62745098039215" y1="160.36816623793393" y2="167.94305899387734" stroke="#dc2626"/><rect x="259.61895424836604" y="167.0277259191459" width="4.0169934640522875" height="1" fill="#dc2626"/>
<line x1="267.3660130718954" x2="267.3660130718954" y1="165.27428644945172" y2="177.62199349629208" stroke="#dc2626"/><rect x="265.3575163398693" y="168.1078720299692" width="4.0169934640522875" height="4.844732706646141" fill="#dc2626"/>
<line x1="273.1045751633987" x2="273.1045751633987" y1="160.23845623810064" y2="167.1890286516119" stroke="#16a34a"/><rect x="271.0960784313726" y="162.70020648576255" width="4.0169934640522875" height="4.488822165849342" fill="#16a34a"/>
<line x1="278.843137254902" x2="278.843137254902" y1="143.4123723191269" y2="156.5772095563364" stroke="#16a34a"/><rect x="276.8346405228759" y="144.1312996251338" width="4.0169934640522875" height="12.445909931202607" fill="#16a34a"/>
<line x1="284.58169934640523" x2="284.58169934640523" y1="140.64197220387476" y2="151.82365912680083" stroke="#dc2626"/><rect x="282.5732026143791" y="142.0868474231403" width="4.0169934640522875" height="6.955880677530843" fill="#dc2626"/>
<line x1="290.32026143790847" x2="290.32026143790847" y1="137.75230738250525" y2="144.5082719876857" stroke="#16a34a"/><rect x="288.31176470588235" y="138.2029105040385" width="4.0169934640522875" height="6.305361483647204" fill="#16a34a"/>
<line x1="296.05882352941177" x2="296.05882352941177" y1="132.93557148770432" y2="140.7857234182115" stroke="#16a34a"/><rect x="294.05032679738565" y="135.7639344213638" width="4.0169934640522875" height="4.8271811885168745" fill="#16a34a"/>
<line x1="301.797385620915" x2="301.797385620915" y1="136.33731255264027" y2="148.79195543432672" stroke="#16a34a"/><rect x="299.7888888888889" y="137.84699996324167" width="4.0169934640522875" height="1.8113166709399025" fill="#16a34a"/>
<line x1="307.5359477124183" x2="307.5359477124183" y1="127.48766587754278" y2="142.37614781220753" stroke="#16a34a"/><rect x="305.5274509803922" y="130.25635364956275" width="4.0169934640522875" height="6.159812308916798" fill="#16a34a"/>
<line x1="313.27450980392155" x2="313.27450980392155" y1="117.4790196857827" y2="128.47662971125553" stroke="#16a34a"/><rect x="311.26601307189543" y="120.26346101553821" width="4.0169934640522875" height="8.213168695717314" fill="#16a34a"/>
<line x1="319.01307189542484" x2="319.01307189542484" y1="128.39769068825464" y2="138.4536831703829" stroke="#dc2626"/><rect x="317.0045751633987" y="130.1055818279743" width="4.0169934640522875" height="6.419317925745048" fill="#dc2626"/>
<line x1="324.7516339869281" x2="324.7516339869281" y1="132.04309819512173" y2="146.22669403828294" stroke="#dc2626"/><rect x="322.74313725490197" y="135.37292084430848" width="4.0169934640522875" height="2.1076376672588424" fill="#dc2626"/>
<line x1="330.4901960784314" x2="330.4901960784314" y1="138.83596379695442" y2="149.64410304379282" stroke="#dc2626"/><rect x="328.48169934640526" y="142.26741401696768" width="4.0169934640522875" height="3.88213895870814" fill="#dc2626"/>
<line x1="336.2287581699346" x2="336.2287581699346" y1="131.75730810968034" y2="145.47446165641125" stroke="#16a34a"/><rect x="334.2202614379085" y="132.23419569982664" width="4.0169934640522875" height="11.183484883319807" fill="#16a34a"/>
<line x1="341.9673202614379" x2="341.9673202614379" y1="126.4496434102297" y2="139.8599450497641" stroke="#16a34a"/><rect x="339.9588235294118" y="129.9985603759666" width="4.0169934640522875" height="6.126592850213598" fill="#16a34a"/>
<line x1="347.70588235294116" x2="347.70588235294116" y1="119.37278568334935" y2="126.91779804989218" stroke="#16a34a"/><rect x="345.69738562091504" y="125.13276584756534" width="4.0169934640522875" height="1" fill="#16a34a"/>
<line x1="353.44444444444446" x2="353.44444444444446" y1="113.62676111647514" y2="120.2880331409192" stroke="#16a34a"/><rect x="351.43594771241834" y="117.12833179184386" width="4.0169934640522875" height="1.285284830031685" fill="#16a34a"/>
<line x1="359.1830065359477" x2="359.1830065359477" y1="115.09432488356634" y2="120.52998723961821" stroke="#dc2626"/><rect x="357.1745098039216" y="115.92027364158096" width="4.0169934640522875" height="1" fill="#dc2626"/>
<line x1="364.921568627451" x2="364.921568627451" y1="108.43125489872855" y2="119.07115642301085" stroke="#16a34a"/><rect x="362.9130718954249" y="109.32381380847278" width="4.0169934640522875" height="7.681828590789451" fill="#16a34a"/>
<line x1="370.66013071895424" x2="370.66013071895424" y1="103.05526770431618" y2="109.33785502297619" stroke="#16a34a"/><rect x="368.6516339869281" y="106.44288193758709" width="4.0169934640522875" height="1" fill="#16a34a"/>
<line x1="376.39869281045753" x2="376.39869281045753" y1="99.84993240810476" y2="109.50266805906807" stroke="#16a34a"/><rect x="374.3901960784314" y="102.95355451632807" width="4.0169934640522875" height="3.098313844203716" fill="#16a34a"/>
<line x1="382.1372549019608" x2="382.1372549019608" y1="99.2818625408479" y2="105.92909335078852" stroke="#16a34a"/><rect x="380.12875816993466" y="101.2317077792666" width="4.0169934640522875" height="2.5214254093014006" fill="#16a34a"/>
<line x1="387.87581699346407" x2="387.87581699346407" y1="102.00842666935768" y2="111.49977397069333" stroke="#dc2626"/><rect x="385.86732026143795" y="102.0154472766094" width="4.0169934640522875" height="9.052987433912108" fill="#dc2626"/>
<line x1="393.6143790849673" x2="393.6143790849673" y1="103.26391672715042" y2="117.58073287377081" stroke="#16a34a"/><rect x="391.6058823529412" y="105.69767016296709" width="4.0169934640522875" height="11.883062710803728" fill="#16a34a"/>
<line x1="399.3529411764706" x2="399.3529411764706" y1="113.14978790916726" y2="143.5158834675087" stroke="#dc2626"/><rect x="397.3444444444445" y="113.93010272004577" width="4.0169934640522875" height="26.936272064398736" fill="#dc2626"/>
<line x1="405.09150326797385" x2="405.09150326797385" y1="126.30058393187338" y2="138.86926887281922" stroke="#dc2626"/><rect x="403.08300653594773" y="130.9016501965884" width="4.0169934640522875" height="6.1089557149227005" fill="#dc2626"/>
<line x1="410.83006535947715" x2="410.83006535947715" y1="123.43549123588485" y2="166.44732718061772" stroke="#dc2626"/><rect x="408.82156862745103" y="131.23649891563008" width="4.0169934640522875" height="9.119683202803316" fill="#dc2626"/>
<line x1="416.5686274509804" x2="416.5686274509804" y1="138.61849620647476" y2="161.5236554509707" stroke="#dc2626"/><rect x="414.56013071895427" y="146.68782807069374" width="4.0169934640522875" height="14.64995252242997" fill="#dc2626"/>
<line x1="422.3071895424837" x2="422.3071895424837" y1="135.79193123320903" y2="163.03163051834" stroke="#16a34a"/><rect x="420.29869281045757" y="139.01481804754968" width="4.0169934640522875" height="18.696904517229967" fill="#16a34a"/>
<line x1="428.0457516339869" x2="428.0457516339869" y1="128.1259418173167" y2="144.50133699759562" stroke="#16a34a"/><rect x="426.0372549019608" y="132.49900958067454" width="4.0169934640522875" height="3.6138147742343563" fill="#16a34a"/>
<line x1="433.7843137254902" x2="433.7843137254902" y1="106.81814195690689" y2="117.54391749428015" stroke="#16a34a"/><rect x="431.7758169934641" y="110.9614988756754" width="4.0169934640522875" height="6.582418618604748" fill="#16a34a"/>
<line x1="439.52287581699346" x2="439.52287581699346" y1="109.09059266025758" y2="118.95891232414519" stroke="#dc2626"/><rect x="437.51437908496735" y="111.92768854440092" width="4.0169934640522875" height="6.563069140081751" fill="#dc2626"/>
<line x1="445.26143790849676" x2="445.26143790849676" y1="114.84012753075766" y2="137.55769957417445" stroke="#dc2626"/><rect x="443.25294117647064" y="116.1850019052672" width="4.0169934640522875" height="18.305890940174606" fill="#dc2626"/>
<line x1="451" x2="451" y1="118.53990193524464" y2="126.03585566818714" stroke="#16a34a"/><rect x="448.9915032679739" y="120.37921541802976" width="4.0169934640522875" height="2.3180846504867816" fill="#16a34a"/>
<line x1="456.7385620915033" x2="456.7385620915033" y1="115.21889785370328" y2="127.49297414156237" stroke="#dc2626"/><rect x="454.7300653594772" y="120.40378754341071" width="4.0169934640522875" height="4.848243010272029" fill="#dc2626"/>
<line x1="462.47712418300654" x2="462.47712418300654" y1="133.7772738034545" y2="147.2033290007244" stroke="#dc2626"/><rect x="460.4686274509804" y="143.88763318320267" width="4.0169934640522875" height="1" fill="#dc2626"/>
<line x1="468.21568627450984" x2="468.21568627450984" y1="133.0951618769382" y2="149.09358469466522" stroke="#dc2626"/><rect x="466.2071895424837" y="143.12135958682754" width="4.0169934640522875" height="2.2197961489628995" fill="#dc2626"/>
<line x1="473.9542483660131" x2="473.9542483660131" y1="134.6697470960371" y2="151.42913524611964" stroke="#dc2626"/><rect x="471.94575163398696" y="137.15435712584787" width="4.0169934640522875" height="8.314796266543794" fill="#dc2626"/>
<line x1="479.6928104575163" x2="479.6928104575163" y1="139.2514638822291" y2="156.5701889490847" stroke="#16a34a"/><rect x="477.6843137254902" y="146.07763455992662" width="4.0169934640522875" height="7.238160459346346" fill="#16a34a"/>
<line x1="485.4313725490196" x2="485.4313725490196" y1="130.2441103954531" y2="146.97892642015466" stroke="#16a34a"/><rect x="483.4228758169935" y="130.92613670480776" width="4.0169934640522875" height="8.512999995662057" fill="#16a34a"/>
<line x1="491.16993464052285" x2="491.16993464052285" y1="119.0273204362685" y2="131.3452327108699" stroke="#16a34a"/><rect x="489.16143790849674" y="120.59317270488353" width="4.0169934640522875" height="10.185702481961613" fill="#16a34a"/>
<line x1="496.90849673202615" x2="496.90849673202615" y1="116.65666684855555" y2="129.3130237629861" stroke="#16a34a"/><rect x="494.90000000000003" y="123.42145002138145" width="4.0169934640522875" height="1" fill="#16a34a"/>
<line x1="502.6470588235294" x2="502.6470588235294" y1="113.33566276701418" y2="133.18463181081663" stroke="#dc2626"/><rect x="500.6385620915033" y="121.333076215484" width="4.0169934640522875" height="2.0865758455037167" fill="#dc2626"/>
<line x1="508.3856209150327" x2="508.3856209150327" y1="111.48402041295779" y2="120.31080730590645" stroke="#16a34a"/><rect x="506.3771241830066" y="113.91777384877449" width="4.0169934640522875" height="5.342767735709174" fill="#16a34a"/>
<line x1="514.124183006536" x2="514.124183006536" y1="114.1580156042414" y2="124.22804930087307" stroke="#dc2626"/><rect x="512.1156862745098" y="117.56497931603528" width="4.0169934640522875" height="2.240857970718025" fill="#dc2626"/>
<line x1="519.8627450980392" x2="519.8627450980392" y1="122.49567165293402" y2="134.18934920226494" stroke="#16a34a"/><rect x="517.854248366013" y="123.51263229849198" width="4.0169934640522875" height="1.0818584540554355" fill="#16a34a"/>
<line x1="525.6013071895425" x2="525.6013071895425" y1="112.25902695981674" y2="123.68446594183555" stroke="#16a34a"/><rect x="523.5928104575163" y="112.82889478746736" width="4.0169934640522875" height="9.124905849661246" fill="#16a34a"/>
<line x1="531.3398692810457" x2="531.3398692810457" y1="106.46565610257434" y2="119.05009460125572" stroke="#16a34a"/><rect x="529.3313725490195" y="107.26172447118842" width="4.0169934640522875" height="4.865794528401267" fill="#16a34a"/>
<line x1="537.0784313725491" x2="537.0784313725491" y1="109.01867424450842" y2="119.35694650845221" stroke="#dc2626"/><rect x="535.0699346405229" y="112.14686847811268" width="4.0169934640522875" height="5.644311378886101" fill="#dc2626"/>
<line x1="542.8169934640523" x2="542.8169934640523" y1="110.40918256615407" y2="118.16113161229899" stroke="#16a34a"/><rect x="540.8084967320261" y="112.83771335511278" width="4.0169934640522875" height="1.2080581502629286" fill="#16a34a"/>
<line x1="548.5555555555555" x2="548.5555555555555" y1="106.19039692801053" y2="115.75537498832747" stroke="#16a34a"/><rect x="546.5470588235294" y="107.78604396886453" width="4.0169934640522875" height="1" fill="#16a34a"/>
<line x1="554.2941176470588" x2="554.2941176470588" y1="108.07705670116388" y2="119.77604251451436" stroke="#dc2626"/><rect x="552.2856209150326" y="110.17073877108092" width="4.0169934640522875" height="4.388821321093332" fill="#dc2626"/>
<line x1="560.0326797385621" x2="560.0326797385621" y1="120.74916717332997" y2="132.53411261693304" stroke="#16a34a"/><rect x="558.024183006536" y="127.89974127635321" width="4.0169934640522875" height="1.7832342419331155" fill="#16a34a"/>
<line x1="565.7712418300654" x2="565.7712418300654" y1="118.16113161229899" y2="130.9086708038401" stroke="#dc2626"/><rect x="563.7627450980392" y="122.37811929004874" width="4.0169934640522875" height="8.048355659625457" fill="#dc2626"/>
<line x1="571.5098039215686" x2="571.5098039215686" y1="117.79640250385674" y2="126.11650703442015" stroke="#16a34a"/><rect x="569.5013071895424" y="118.86773004703463" width="4.0169934640522875" height="3.375370979161204" fill="#16a34a"/>
<line x1="577.2483660130719" x2="577.2483660130719" y1="115.93251689569064" y2="122.96202833220275" stroke="#16a34a"/><rect x="575.2398692810457" y="120.663293160239" width="4.0169934640522875" height="1" fill="#16a34a"/>
<line x1="582.9869281045752" x2="582.9869281045752" y1="129.22706413273352" y2="142.22357803022535" stroke="#dc2626"/><rect x="580.978431372549" y="134.80827566351587" width="4.0169934640522875" height="1.751727126462015" fill="#dc2626"/>
<line x1="588.7254901960785" x2="588.7254901960785" y1="127.32285284145092" y2="138.62380447049438" stroke="#16a34a"/><rect x="586.7169934640523" y="135.91470624295224" width="4.0169934640522875" height="1" fill="#16a34a"/>
<line x1="594.4640522875817" x2="594.4640522875817" y1="123.88789231781178" y2="141.04171873141394" stroke="#dc2626"/><rect x="592.4555555555555" y="126.75820766065831" width="4.0169934640522875" height="8.946051599065981" fill="#dc2626"/>
<line x1="600.2026143790849" x2="600.2026143790849" y1="128.88168450281427" y2="141.00490335192328" stroke="#16a34a"/><rect x="598.1941176470588" y="132.96896218073073" width="4.0169934640522875" height="5.826675933107197" fill="#16a34a"/>
<line x1="605.9411764705883" x2="605.9411764705883" y1="129.10086443652605" y2="153.1089439568325" stroke="#dc2626"/><rect x="603.9326797385621" y="134.8310498285031" width="4.0169934640522875" height="17.88688055127406" fill="#dc2626"/>
<line x1="611.6797385620915" x2="611.6797385620915" y1="129.4673058882004" y2="143.10380806869827" stroke="#16a34a"/><rect x="609.6712418300654" y="131.41715112661907" width="4.0169934640522875" height="8.2726726230336" fill="#16a34a"/>
<line x1="617.4183006535948" x2="617.4183006535948" y1="118.3697806351332" y2="138.04511807519833" stroke="#16a34a"/><rect x="615.4098039215686" y="122.28342670931235" width="4.0169934640522875" height="4.837797716556054" fill="#16a34a"/>
<line x1="623.156862745098" x2="623.156862745098" y1="101.18607383213052" y2="119.64282221105518" stroke="#16a34a"/><rect x="621.1483660130718" y="102.85886193559168" width="4.0169934640522875" height="16.7839602754635" fill="#16a34a"/>
<line x1="628.8954248366014" x2="628.8954248366014" y1="75.20537490841815" y2="97.84400792883406" stroke="#16a34a"/><rect x="626.8869281045752" y="79.00857484412535" width="4.0169934640522875" height="18.568906860628744" fill="#16a34a"/>
<line x1="634.6339869281046" x2="634.6339869281046" y1="68.98588743786189" y2="81.87546550050757" stroke="#dc2626"/><rect x="632.6254901960784" y="72.8539851820666" width="4.0169934640522875" height="8.428838325803156" fill="#dc2626"/>
<line x1="640.3725490196078" x2="640.3725490196078" y1="77.89863396106307" y2="85.73654263746062" stroke="#dc2626"/><rect x="638.3640522875817" y="82.99413933405367" width="4.0169934640522875" height="1" fill="#dc2626"/>
<line x1="646.1111111111111" x2="646.1111111111111" y1="74.35142933855832" y2="82.04729914385115" stroke="#16a34a"/><rect x="644.1026143790849" y="75.3052901360125" width="4.0169934640522875" height="3.93821819956014" fill="#16a34a"/>
<line x1="651.8496732026144" x2="651.8496732026144" y1="72.47881077990837" y2="77.85308563108862" stroke="#16a34a"/><rect x="649.8411764705883" y="76.0996461613945" width="4.0169934640522875" height="1" fill="#16a34a"/>
<line x1="657.5882352941177" x2="657.5882352941177" y1="73.57471044846721" y2="82.38745612691247" stroke="#dc2626"/><rect x="655.5797385620915" y="73.57471044846721" width="4.0169934640522875" height="6.892695212265494" fill="#dc2626"/>
<line x1="663.3267973856209" x2="663.3267973856209" y1="73.83772636892132" y2="78.75780217778089" stroke="#dc2626"/><rect x="661.3183006535947" y="73.93413129288984" width="4.0169934640522875" height="2.973826491228351" fill="#dc2626"/>
<line x1="669.0653594771242" x2="669.0653594771242" y1="64.94946635393944" y2="74.333877820429" stroke="#16a34a"/><rect x="667.056862745098" y="68.05480080539485" width="4.0169934640522875" height="6.279077015034147" fill="#16a34a"/>
<line x1="674.8039215686274" x2="674.8039215686274" y1="66.12259270226707" y2="72.03163234483935" stroke="#dc2626"/><rect x="672.7954248366012" y="66.72045734176288" width="4.0169934640522875" height="3.6542260745125077" fill="#dc2626"/>
<line x1="680.5424836601308" x2="680.5424836601308" y1="69.51191927877011" y2="77.54272342026627" stroke="#dc2626"/><rect x="678.5339869281046" y="69.51191927877011" width="4.0169934640522875" height="7.999211408863516" fill="#dc2626"/>
<line x1="686.281045751634" x2="686.281045751634" y1="82.96605690504686" y2="87.40582043729586" stroke="#dc2626"/><rect x="684.2725490196078" y="85.40511860488317" width="4.0169934640522875" height="1.451895826517216" fill="#dc2626"/>
<line x1="692.0196078431372" x2="692.0196078431372" y1="77.70924879959028" y2="85.39989595802518" stroke="#dc2626"/><rect x="690.0111111111111" y="82.47684044362927" width="4.0169934640522875" height="1.5360574963760882" fill="#dc2626"/>
<line x1="697.7581699346405" x2="697.7581699346405" y1="85.41915981938655" y2="96.10640763403705" stroke="#dc2626"/><rect x="695.7496732026143" y="87.0796190515764" width="4.0169934640522875" height="8.649730602747127" fill="#dc2626"/>
<line x1="703.4967320261438" x2="703.4967320261438" y1="85.91890719168168" y2="92.41536618003389" stroke="#16a34a"/><rect x="701.4882352941177" y="89.90618402484219" width="4.0169934640522875" height="1.5237286251048374" fill="#16a34a"/>
<line x1="709.2352941176471" x2="709.2352941176471" y1="90.61988868399112" y2="96.25366915199965" stroke="#dc2626"/><rect x="707.2267973856209" y="91.83325509827361" width="4.0169934640522875" height="1.8446217468047053" fill="#dc2626"/>
<line x1="714.9738562091503" x2="714.9738562091503" y1="87.84769060834532" y2="94.01803382813961" stroke="#16a34a"/><rect x="712.9653594771241" y="89.39599135883105" width="4.0169934640522875" height="1" fill="#16a34a"/>
<line x1="720.7124183006536" x2="720.7124183006536" y1="87.03758102522778" y2="92.88001051607051" stroke="#16a34a"/><rect x="718.7039215686274" y="89.672962876627" width="4.0169934640522875" height="1.5465884072536653" fill="#16a34a"/>
<line x1="726.4509803921569" x2="726.4509803921569" y1="78.17569109602061" y2="87.18484254319037" stroke="#16a34a"/><rect x="724.4424836601307" y="79.97818919931512" width="4.0169934640522875" height="3.620920998647705" fill="#16a34a"/>
<line x1="732.1895424836601" x2="732.1895424836601" y1="72.87855730744752" y2="85.25254882290096" stroke="#dc2626"/><rect x="730.181045751634" y="79.24530629596637" width="4.0169934640522875" height="4.104829196045728" fill="#dc2626"/>
<line x1="737.9281045751634" x2="737.9281045751634" y1="85.84698877593252" y2="91.53864644518683" stroke="#dc2626"/><rect x="735.9196078431372" y="85.84698877593252" width="4.0169934640522875" height="1.9953935683931832" fill="#dc2626"/>
<line x1="743.6666666666666" x2="743.6666666666666" y1="91.78941911153126" y2="100.98264745615427" stroke="#dc2626"/><rect x="741.6581699346405" y="96.72704643852009" width="4.0169934640522875" height="1" fill="#dc2626"/>
<line x1="749.40522875817" x2="749.40522875817" y1="88.71036912868897" y2="97.05144986384585" stroke="#16a34a"/><rect x="747.3967320261438" y="91.268609917481" width="4.0169934640522875" height="5.614516606647129" fill="#16a34a"/>
<line x1="755.1437908496732" x2="755.1437908496732" y1="75.45965787838844" y2="87.74246711673135" stroke="#16a34a"/><rect x="753.135294117647" y="77.04648635159697" width="4.0169934640522875" height="10.69598076513438" fill="#16a34a"/>
<line x1="760.8823529411765" x2="760.8823529411765" y1="76.61163678779928" y2="84.33901370856324" stroke="#dc2626"/><rect x="758.8738562091503" y="76.61163678779928" width="4.0169934640522875" height="5.539087887272103" fill="#dc2626"/>
<line x1="766.6209150326797" x2="766.6209150326797" y1="82.28925324255016" y2="91.2002018053577" stroke="#dc2626"/><rect x="764.6124183006535" y="82.28925324255016" width="4.0169934640522875" height="7.765990260648323" fill="#dc2626"/>
<line x1="772.3594771241831" x2="772.3594771241831" y1="92.30663238479409" y2="98.7101967528036" stroke="#dc2626"/><rect x="770.3509803921569" y="92.30663238479409" width="4.0169934640522875" height="4.264419585279597" fill="#dc2626"/>
<line x1="778.0980392156863" x2="778.0980392156863" y1="100.69163472385495" y2="106.44288193758709" stroke="#dc2626"/><rect x="776.0895424836601" y="103.86880197389792" width="4.0169934640522875" height="1" fill="#dc2626"/>
<line x1="783.8366013071895" x2="783.8366013071895" y1="89.44153968880553" y2="96.50264385795035" stroke="#16a34a"/><rect x="781.8281045751634" y="92.95543923544554" width="4.0169934640522875" height="3.5472046225048075" fill="#16a34a"/>
<line x1="789.5751633986928" x2="789.5751633986928" y1="94.53173679777657" y2="104.30022685123134" stroke="#16a34a"/><rect x="787.5666666666666" y="99.44316527331392" width="4.0169934640522875" height="1.4974441564917242" fill="#16a34a"/>
<line x1="795.3137254901961" x2="795.3137254901961" y1="99.92013848062183" y2="107.73518737487049" stroke="#dc2626"/><rect x="793.30522875817" y="100.7898376082172" width="4.0169934640522875" height="4.658857848799187" fill="#dc2626"/>
<line x1="801.0522875816994" x2="801.0522875816994" y1="98.2490627203928" y2="119.11850271337906" stroke="#dc2626"/><rect x="799.0437908496732" y="102.7273539753646" width="4.0169934640522875" height="8.668994464108494" fill="#dc2626"/>
<line x1="806.7908496732026" x2="806.7908496732026" y1="94.72994052689484" y2="100.87571162130817" stroke="#16a34a"/><rect x="804.7823529411764" y="96.32558756774881" width="4.0169934640522875" height="1.1081429226685486" fill="#16a34a"/>
<line x1="812.5294117647059" x2="812.5294117647059" y1="92.92213415958076" y2="101.10191216227167" stroke="#dc2626"/><rect x="810.5209150326797" y="92.92213415958076" width="4.0169934640522875" height="1.16953042754011" fill="#dc2626"/>
<line x1="818.2679738562092" x2="818.2679738562092" y1="71.52135406166667" y2="86.9569296589948" stroke="#16a34a"/><rect x="816.259477124183" y="74.06735159634906" width="4.0169934640522875" height="12.601990016810646" fill="#16a34a"/>
<line x1="824.0065359477125" x2="824.0065359477125" y1="71.00063048477801" y2="75.54732985187314" stroke="#dc2626"/><rect x="821.9980392156863" y="72.99602405317114" width="4.0169934640522875" height="1.0818584540554639" fill="#dc2626"/>
<line x1="829.7450980392157" x2="829.7450980392157" y1="74.55134541090871" y2="86.30812280834334" stroke="#dc2626"/><rect x="827.7366013071895" y="74.55134541090871" width="4.0169934640522875" height="9.803507472551644" fill="#dc2626"/>
<line x1="835.4836601307189" x2="835.4836601307189" y1="82.07889187648385" y2="91.97529396937824" stroke="#16a34a"/><rect x="833.4751633986928" y="84.68798925926995" width="4.0169934640522875" height="6.5122125460877385" fill="#16a34a"/>
<line x1="841.2222222222222" x2="841.2222222222222" y1="76.28201071561557" y2="86.62550562641735" stroke="#16a34a"/><rect x="839.213725490196" y="77.80043107670082" width="4.0169934640522875" height="5.882840791120827" fill="#16a34a"/>
<line x1="846.9607843137255" x2="846.9607843137255" y1="81.17760001625578" y2="91.268609917481" stroke="#dc2626"/><rect x="844.9522875816994" y="81.6071413160339" width="4.0169934640522875" height="6.664867945231492" fill="#dc2626"/>
<line x1="852.6993464052288" x2="852.6993464052288" y1="85.48225966749027" y2="93.55689979572884" stroke="#dc2626"/><rect x="850.6908496732026" y="85.48225966749027" width="4.0169934640522875" height="5.042936435764432" fill="#dc2626"/>
<line x1="858.437908496732" x2="858.437908496732" y1="81.40029025359343" y2="93.90930003289978" stroke="#dc2626"/><rect x="856.4294117647058" y="87.34263497203051" width="4.0169934640522875" height="6.566665060869269" fill="#dc2626"/>
<line x1="864.1764705882352" x2="864.1764705882352" y1="88.08613440341844" y2="100.0043001504807" stroke="#dc2626"/><rect x="862.1679738562091" y="91.29138408246823" width="4.0169934640522875" height="1" fill="#dc2626"/>
<line x1="869.9150326797386" x2="869.9150326797386" y1="75.82609933006279" y2="85.32275489541803" stroke="#dc2626"/><rect x="867.9065359477124" y="80.8110729474198" width="4.0169934640522875" height="1" fill="#dc2626"/>
<line x1="875.6535947712418" x2="875.6535947712418" y1="68.86842069213822" y2="80.57442711274041" stroke="#16a34a"/><rect x="873.6450980392157" y="72.44542008688194" width="4.0169934640522875" height="7.555628894582014" fill="#16a34a"/>
<line x1="881.3921568627451" x2="881.3921568627451" y1="60.0714285714285" y2="66.83270144062857" stroke="#16a34a"/><rect x="879.3836601307189" y="64.55845277688417" width="4.0169934640522875" height="2.2742486637444017" fill="#16a34a"/>
<line x1="887.1307189542483" x2="887.1307189542483" y1="66.64682658278156" y2="74.30588100858381" stroke="#16a34a"/><rect x="885.1222222222221" y="67.567382304371" width="4.0169934640522875" height="1.5412801432340757" fill="#16a34a"/>
<rect x="12" y="370" width="878" height="130" fill="#fafbfc" stroke="#eef1f4"/>
<text x="18" y="385" font-size="11" font-weight="600" fill="#334155">MACD (12, 26, 9)</text>
<line x1="12" x2="890" y1="443.6263384538143" y2="443.6263384538143" stroke="#94a3b8" stroke-dasharray="4 4"/><text x="898" y="447.6263384538143" fill="#64748b">0</text>
<rect x="12.86078431372549" y="443.6156653625478" width="4.0169934640522875" height="0.5" fill="#16a34a" opacity=".55"/>
<rect x="18.599346405228758" y="443.6263384538143" width="4.0169934640522875" height="1.8820659543973761" fill="#dc2626" opacity=".55"/>
<rect x="24.337908496732027" y="443.6263384538143" width="4.0169934640522875" height="1.5306822473140755" fill="#dc2626" opacity=".55"/>
<rect x="30.076470588235296" y="443.6263384538143" width="4.0169934640522875" height="2.247105585767315" fill="#dc2626" opacity=".55"/>
<rect x="35.815032679738565" y="443.6263384538143" width="4.0169934640522875" height="4.982723203332341" fill="#dc2626" opacity=".55"/>
<rect x="41.55359477124183" y="443.6263384538143" width="4.0169934640522875" height="4.893948303705315" fill="#dc2626" opacity=".55"/>
<rect x="47.292156862745095" y="443.6263384538143" width="4.0169934640522875" height="4.919547957842099" fill="#dc2626" opacity=".55"/>
<rect x="53.030718954248364" y="443.6263384538143" width="4.0169934640522875" height="4.7673498716506515" fill="#dc2626" opacity=".55"/>
<rect x="58.76928104575163" y="443.6263384538143" width="4.0169934640522875" height="7.116955710167531" fill="#dc2626" opacity=".55"/>
<rect x="64.5078431372549" y="443.6263384538143" width="4.0169934640522875" height="9.211541921792161" fill="#dc2626" opacity=".55"/>
<rect x="70.24640522875816" y="443.6263384538143" width="4.0169934640522875" height="8.127800123273119" fill="#dc2626" opacity=".55"/>
<rect x="75.98496732026143" y="443.6263384538143" width="4.0169934640522875" height="6.4447220506568215" fill="#dc2626" opacity=".55"/>
<rect x="81.7235294117647" y="443.6263384538143" width="4.0169934640522875" height="7.360088386694713" fill="#dc2626" opacity=".55"/>
<rect x="87.46209150326797" y="443.6263384538143" width="4.0169934640522875" height="7.875773439200543" fill="#dc2626" opacity=".55"/>
<rect x="93.20065359477124" y="443.6263384538143" width="4.0169934640522875" height="10.290848466275577" fill="#dc2626" opacity=".55"/>
<rect x="98.93921568627451" y="443.6263384538143" width="4.0169934640522875" height="9.06332705677653" fill="#dc2626" opacity=".55"/>
<rect x="104.67777777777778" y="443.6263384538143" width="4.0169934640522875" height="8.256803393698192" fill="#dc2626" opacity=".55"/>
<rect x="110.41633986928105" y="443.6263384538143" width="4.0169934640522875" height="6.123394021267529" fill="#dc2626" opacity=".55"/>
<rect x="116.15490196078431" y="443.6263384538143" width="4.0169934640522875" height="7.28826858272123" fill="#dc2626" opacity=".55"/>
<rect x="121.89346405228758" y="443.6263384538143" width="4.0169934640522875" height="10.270244538136751" fill="#dc2626" opacity=".55"/>
<rect x="127.63202614379085" y="443.6263384538143" width="4.0169934640522875" height="11.979505006878014" fill="#dc2626" opacity=".55"/>
<rect x="133.37058823529412" y="443.6263384538143" width="4.0169934640522875" height="7.141259997518091" fill="#dc2626" opacity=".55"/>
<rect x="139.1091503267974" y="443.6263384538143" width="4.0169934640522875" height="2.1393684786374934" fill="#dc2626" opacity=".55"/>
<rect x="144.84771241830066" y="441.9765635938252" width="4.0169934640522875" height="1.6497748599891224" fill="#16a34a" opacity=".55"/>
<rect x="150.58627450980393" y="438.5658020143027" width="4.0169934640522875" height="5.060536439511623" fill="#16a34a" opacity=".55"/>
<rect x="156.3248366013072" y="436.22973157674153" width="4.0169934640522875" height="7.39660687707277" fill="#16a34a" opacity=".55"/>
<rect x="162.06339869281047" y="430.38819483806657" width="4.0169934640522875" height="13.238143615747731" fill="#16a34a" opacity=".55"/>
<rect x="167.80196078431374" y="426.0160421687415" width="4.0169934640522875" height="17.61029628507282" fill="#16a34a" opacity=".55"/>
<rect x="173.540522875817" y="424.1656233077859" width="4.0169934640522875" height="19.460715146028406" fill="#16a34a" opacity=".55"/>
<rect x="179.27908496732027" y="421.96782891305287" width="4.0169934640522875" height="21.65850954076143" fill="#16a34a" opacity=".55"/>
<rect x="185.01764705882354" y="419.40054221443916" width="4.0169934640522875" height="24.225796239375143" fill="#16a34a" opacity=".55"/>
<rect x="190.7562091503268" y="417.4775446420603" width="4.0169934640522875" height="26.14879381175399" fill="#16a34a" opacity=".55"/>
<rect x="196.49477124183005" y="417.11803253537397" width="4.0169934640522875" height="26.50830591844033" fill="#16a34a" opacity=".55"/>
<rect x="202.23333333333332" y="416.0347254089488" width="4.0169934640522875" height="27.591613044865483" fill="#16a34a" opacity=".55"/>
<rect x="207.9718954248366" y="417.34627838382755" width="4.0169934640522875" height="26.280060069986746" fill="#16a34a" opacity=".55"/>
<rect x="213.71045751633986" y="420.9069769305687" width="4.0169934640522875" height="22.719361523245595" fill="#16a34a" opacity=".55"/>
<rect x="219.44901960784313" y="422.54893251245664" width="4.0169934640522875" height="21.077405941357654" fill="#16a34a" opacity=".55"/>
<rect x="225.1875816993464" y="425.72441293571455" width="4.0169934640522875" height="17.901925518099745" fill="#16a34a" opacity=".55"/>
<rect x="230.92614379084966" y="427.4230070797854" width="4.0169934640522875" height="16.203331374028892" fill="#16a34a" opacity=".55"/>
<rect x="236.66470588235293" y="429.42773091091584" width="4.0169934640522875" height="14.198607542898458" fill="#16a34a" opacity=".55"/>
<rect x="242.4032679738562" y="432.7306221060465" width="4.0169934640522875" height="10.895716347767802" fill="#16a34a" opacity=".55"/>
<rect x="248.14183006535947" y="435.8332416465977" width="4.0169934640522875" height="7.793096807216614" fill="#16a34a" opacity=".55"/>
<rect x="253.88039215686274" y="436.6286382224792" width="4.0169934640522875" height="6.997700231335102" fill="#16a34a" opacity=".55"/>
<rect x="259.61895424836604" y="437.34607979735415" width="4.0169934640522875" height="6.280258656460148" fill="#16a34a" opacity=".55"/>
<rect x="265.3575163398693" y="439.3458698093988" width="4.0169934640522875" height="4.280468644415521" fill="#16a34a" opacity=".55"/>
<rect x="271.0960784313726" y="439.6973808873265" width="4.0169934640522875" height="3.9289575664877816" fill="#16a34a" opacity=".55"/>
<rect x="276.8346405228759" y="437.73366547335996" width="4.0169934640522875" height="5.892672980454336" fill="#16a34a" opacity=".55"/>
<rect x="282.5732026143791" y="438.02829368940553" width="4.0169934640522875" height="5.598044764408769" fill="#16a34a" opacity=".55"/>
<rect x="288.31176470588235" y="437.3253658029724" width="4.0169934640522875" height="6.3009726508419135" fill="#16a34a" opacity=".55"/>
<rect x="294.05032679738565" y="437.33394935574023" width="4.0169934640522875" height="6.292389098074068" fill="#16a34a" opacity=".55"/>
<rect x="299.7888888888889" y="438.4943778609422" width="4.0169934640522875" height="5.131960592872076" fill="#16a34a" opacity=".55"/>
<rect x="305.5274509803922" y="438.8472924654108" width="4.0169934640522875" height="4.779045988403482" fill="#16a34a" opacity=".55"/>
<rect x="311.26601307189543" y="438.31885796568724" width="4.0169934640522875" height="5.307480488127055" fill="#16a34a" opacity=".55"/>
<rect x="317.0045751633987" y="441.29541469242275" width="4.0169934640522875" height="2.3309237613915457" fill="#16a34a" opacity=".55"/>
<rect x="322.74313725490197" y="443.6263384538143" width="4.0169934640522875" height="0.5" fill="#dc2626" opacity=".55"/>
<rect x="328.48169934640526" y="443.6263384538143" width="4.0169934640522875" height="3.883559198648072" fill="#dc2626" opacity=".55"/>
<rect x="334.2202614379085" y="443.6263384538143" width="4.0169934640522875" height="4.302365747141607" fill="#dc2626" opacity=".55"/>
<rect x="339.9588235294118" y="443.6263384538143" width="4.0169934640522875" height="4.524188832262496" fill="#dc2626" opacity=".55"/>
<rect x="345.69738562091504" y="443.6263384538143" width="4.0169934640522875" height="4.198122857650844" fill="#dc2626" opacity=".55"/>
<rect x="351.43594771241834" y="443.6263384538143" width="4.0169934640522875" height="3.05588050591183" fill="#dc2626" opacity=".55"/>
<rect x="357.1745098039216" y="443.6263384538143" width="4.0169934640522875" height="2.6466123398426475" fill="#dc2626" opacity=".55"/>
<rect x="362.9130718954249" y="443.6263384538143" width="4.0169934640522875" height="1.5844136900757917" fill="#dc2626" opacity=".55"/>
<rect x="368.6516339869281" y="443.6263384538143" width="4.0169934640522875" height="0.8852152993716231" fill="#dc2626" opacity=".55"/>
<rect x="374.3901960784314" y="443.6263384538143" width="4.0169934640522875" height="0.5" fill="#dc2626" opacity=".55"/>
<rect x="380.12875816993466" y="443.6263384538143" width="4.0169934640522875" height="0.5" fill="#dc2626" opacity=".55"/>
<rect x="385.86732026143795" y="443.6263384538143" width="4.0169934640522875" height="2.129359770969927" fill="#dc2626" opacity=".55"/>
<rect x="391.6058823529412" y="443.6263384538143" width="4.0169934640522875" height="2.8696680778904806" fill="#dc2626" opacity=".55"/>
<rect x="397.3444444444445" y="443.6263384538143" width="4.0169934640522875" height="9.040728352840404" fill="#dc2626" opacity=".55"/>
<rect x="403.08300653594773" y="443.6263384538143" width="4.0169934640522875" height="12.299801643034186" fill="#dc2626" opacity=".55"/>
<rect x="408.82156862745103" y="443.6263384538143" width="4.0169934640522875" height="14.6368139998159" fill="#dc2626" opacity=".55"/>
<rect x="414.56013071895427" y="443.6263384538143" width="4.0169934640522875" height="18.938802930619772" fill="#dc2626" opacity=".55"/>
<rect x="420.29869281045757" y="443.6263384538143" width="4.0169934640522875" height="17.576977756244617" fill="#dc2626" opacity=".55"/>
<rect x="426.0372549019608" y="443.6263384538143" width="4.0169934640522875" height="15.115422982462235" fill="#dc2626" opacity=".55"/>
<rect x="431.7758169934641" y="443.6263384538143" width="4.0169934640522875" height="9.760449805413714" fill="#dc2626" opacity=".55"/>
<rect x="437.51437908496735" y="443.6263384538143" width="4.0169934640522875" height="7.298391324851821" fill="#dc2626" opacity=".55"/>
<rect x="443.25294117647064" y="443.6263384538143" width="4.0169934640522875" height="8.058254018967887" fill="#dc2626" opacity=".55"/>
<rect x="448.9915032679739" y="443.6263384538143" width="4.0169934640522875" height="6.171452875177863" fill="#dc2626" opacity=".55"/>
<rect x="454.7300653594772" y="443.6263384538143" width="4.0169934640522875" height="5.615745710234876" fill="#dc2626" opacity=".55"/>
<rect x="460.4686274509804" y="443.6263384538143" width="4.0169934640522875" height="8.044912433986553" fill="#dc2626" opacity=".55"/>
<rect x="466.2071895424837" y="443.6263384538143" width="4.0169934640522875" height="9.513614443527615" fill="#dc2626" opacity=".55"/>
<rect x="471.94575163398696" y="443.6263384538143" width="4.0169934640522875" height="10.10696887347882" fill="#dc2626" opacity=".55"/>
<rect x="477.6843137254902" y="443.6263384538143" width="4.0169934640522875" height="10.171058609562692" fill="#dc2626" opacity=".55"/>
<rect x="483.4228758169935" y="443.6263384538143" width="4.0169934640522875" height="7.465181210540607" fill="#dc2626" opacity=".55"/>
<rect x="489.16143790849674" y="443.6263384538143" width="4.0169934640522875" height="3.885336819523502" fill="#dc2626" opacity=".55"/>
<rect x="494.90000000000003" y="443.6263384538143" width="4.0169934640522875" height="1.9505299795616793" fill="#dc2626" opacity=".55"/>
<rect x="500.6385620915033" y="443.6263384538143" width="4.0169934640522875" height="0.7107047245328317" fill="#dc2626" opacity=".55"/>
<rect x="506.3771241830066" y="442.1424297844107" width="4.0169934640522875" height="1.483908669403604" fill="#16a34a" opacity=".55"/>
<rect x="512.1156862745098" y="441.8228682765079" width="4.0169934640522875" height="1.8034701773063944" fill="#16a34a" opacity=".55"/>
<rect x="517.854248366013" y="442.36562374877616" width="4.0169934640522875" height="1.26071470503814" fill="#16a34a" opacity=".55"/>
<rect x="523.5928104575163" y="441.2211528482694" width="4.0169934640522875" height="2.4051856055448866" fill="#16a34a" opacity=".55"/>
<rect x="529.3313725490195" y="439.86760790912" width="4.0169934640522875" height="3.758730544694288" fill="#16a34a" opacity=".55"/>
<rect x="535.0699346405229" y="440.92574989716303" width="4.0169934640522875" height="2.700588556651269" fill="#16a34a" opacity=".55"/>
<rect x="540.8084967320261" y="441.07688052944945" width="4.0169934640522875" height="2.5494579243648445" fill="#16a34a" opacity=".55"/>
<rect x="546.5470588235294" y="440.64237459567903" width="4.0169934640522875" height="2.9839638581352688" fill="#16a34a" opacity=".55"/>
<rect x="552.2856209150326" y="441.6799470281408" width="4.0169934640522875" height="1.9463914256734824" fill="#16a34a" opacity=".55"/>
<rect x="558.024183006536" y="443.6263384538143" width="4.0169934640522875" height="0.9687692116416997" fill="#dc2626" opacity=".55"/>
<rect x="563.7627450980392" y="443.6263384538143" width="4.0169934640522875" height="3.250997371323706" fill="#dc2626" opacity=".55"/>
<rect x="569.5013071895424" y="443.6263384538143" width="4.0169934640522875" height="2.854017932898728" fill="#dc2626" opacity=".55"/>
<rect x="575.2398692810457" y="443.6263384538143" width="4.0169934640522875" height="2.8356300509956895" fill="#dc2626" opacity=".55"/>
<rect x="580.978431372549" y="443.6263384538143" width="4.0169934640522875" height="5.206884510353007" fill="#dc2626" opacity=".55"/>
<rect x="586.7169934640523" y="443.6263384538143" width="4.0169934640522875" height="6.408384393416043" fill="#dc2626" opacity=".55"/>
<rect x="592.4555555555555" y="443.6263384538143" width="4.0169934640522875" height="6.8656576151308855" fill="#dc2626" opacity=".55"/>
<rect x="598.1941176470588" y="443.6263384538143" width="4.0169934640522875" height="6.430476048974413" fill="#dc2626" opacity=".55"/>
<rect x="603.9326797385621" y="443.6263384538143" width="4.0169934640522875" height="8.884763629102224" fill="#dc2626" opacity=".55"/>
<rect x="609.6712418300654" y="443.6263384538143" width="4.0169934640522875" height="6.719511864579658" fill="#dc2626" opacity=".55"/>
<rect x="615.4098039215686" y="443.6263384538143" width="4.0169934640522875" height="3.6188937554263134" fill="#dc2626" opacity=".55"/>
<rect x="621.1483660130718" y="442.13786578539606" width="4.0169934640522875" height="1.4884726684182397" fill="#16a34a" opacity=".55"/>
<rect x="626.8869281045752" y="435.3665852055432" width="4.0169934640522875" height="8.259753248271124" fill="#16a34a" opacity=".55"/>
<rect x="632.6254901960784" y="431.9239262179698" width="4.0169934640522875" height="11.70241223584452" fill="#16a34a" opacity=".55"/>
<rect x="638.3640522875817" y="430.791350834233" width="4.0169934640522875" height="12.834987619581284" fill="#16a34a" opacity=".55"/>
<rect x="644.1026143790849" y="429.55130355505275" width="4.0169934640522875" height="14.075034898761544" fill="#16a34a" opacity=".55"/>
<rect x="649.8411764705883" y="429.7419040379352" width="4.0169934640522875" height="13.88443441587907" fill="#16a34a" opacity=".55"/>
<rect x="655.5797385620915" y="431.39768569603797" width="4.0169934640522875" height="12.22865275777633" fill="#16a34a" opacity=".55"/>
<rect x="661.3183006535947" y="432.69981536845853" width="4.0169934640522875" height="10.926523085355768" fill="#16a34a" opacity=".55"/>
<rect x="667.056862745098" y="432.9268496038009" width="4.0169934640522875" height="10.699488850013381" fill="#16a34a" opacity=".55"/>
<rect x="672.7954248366012" y="434.2022895451829" width="4.0169934640522875" height="9.424048908631391" fill="#16a34a" opacity=".55"/>
<rect x="678.5339869281046" y="436.8265300164493" width="4.0169934640522875" height="6.799808437365016" fill="#16a34a" opacity=".55"/>
<rect x="684.2725490196078" y="440.51220573251425" width="4.0169934640522875" height="3.1141327213000523" fill="#16a34a" opacity=".55"/>
<rect x="690.0111111111111" y="442.81166529945943" width="4.0169934640522875" height="0.814673154354864" fill="#16a34a" opacity=".55"/>
<rect x="695.7496732026143" y="443.6263384538143" width="4.0169934640522875" height="2.725399502377627" fill="#dc2626" opacity=".55"/>
<rect x="701.4882352941177" y="443.6263384538143" width="4.0169934640522875" height="4.167251898353186" fill="#dc2626" opacity=".55"/>
<rect x="707.2267973856209" y="443.6263384538143" width="4.0169934640522875" height="5.677164735494841" fill="#dc2626" opacity=".55"/>
<rect x="712.9653594771241" y="443.6263384538143" width="4.0169934640522875" height="5.9052349949271274" fill="#dc2626" opacity=".55"/>
<rect x="718.7039215686274" y="443.6263384538143" width="4.0169934640522875" height="6.002081542798919" fill="#dc2626" opacity=".55"/>
<rect x="724.4424836601307" y="443.6263384538143" width="4.0169934640522875" height="4.47198263208611" fill="#dc2626" opacity=".55"/>
<rect x="730.181045751634" y="443.6263384538143" width="4.0169934640522875" height="3.9917165672187025" fill="#dc2626" opacity=".55"/>
<rect x="735.9196078431372" y="443.6263384538143" width="4.0169934640522875" height="4.3569793525222735" fill="#dc2626" opacity=".55"/>
<rect x="741.6581699346405" y="443.6263384538143" width="4.0169934640522875" height="6.002609880749219" fill="#dc2626" opacity=".55"/>
<rect x="747.3967320261438" y="443.6263384538143" width="4.0169934640522875" height="5.941271361036172" fill="#dc2626" opacity=".55"/>
<rect x="753.135294117647" y="443.6263384538143" width="4.0169934640522875" height="3.56596543606895" fill="#dc2626" opacity=".55"/>
<rect x="758.8738562091503" y="443.6263384538143" width="4.0169934640522875" height="2.814142857978993" fill="#dc2626" opacity=".55"/>
<rect x="764.6124183006535" y="443.6263384538143" width="4.0169934640522875" height="3.54140278593286" fill="#dc2626" opacity=".55"/>
<rect x="770.3509803921569" y="443.6263384538143" width="4.0169934640522875" height="4.937017900952242" fill="#dc2626" opacity=".55"/>
<rect x="776.0895424836601" y="443.6263384538143" width="4.0169934640522875" height="6.868360967885337" fill="#dc2626" opacity=".55"/>
<rect x="781.8281045751634" y="443.6263384538143" width="4.0169934640522875" height="6.0686663421797675" fill="#dc2626" opacity=".55"/>
<rect x="787.5666666666666" y="443.6263384538143" width="4.0169934640522875" height="6.3296966759638735" fill="#dc2626" opacity=".55"/>
<rect x="793.30522875817" y="443.6263384538143" width="4.0169934640522875" height="7.153669873575836" fill="#dc2626" opacity=".55"/>
<rect x="799.0437908496732" y="443.6263384538143" width="4.0169934640522875" height="8.262129315826428" fill="#dc2626" opacity=".55"/>
<rect x="804.7823529411764" y="443.6263384538143" width="4.0169934640522875" height="6.2555888997274565" fill="#dc2626" opacity=".55"/>
<rect x="810.5209150326797" y="443.6263384538143" width="4.0169934640522875" height="4.351930287078517" fill="#dc2626" opacity=".55"/>
<rect x="816.259477124183" y="443.5065692988162" width="4.0169934640522875" height="0.5" fill="#16a34a" opacity=".55"/>
<rect x="821.9980392156863" y="440.7258182949181" width="4.0169934640522875" height="2.9005201588961995" fill="#16a34a" opacity=".55"/>
<rect x="827.7366013071895" y="440.72833961229924" width="4.0169934640522875" height="2.8979988415150615" fill="#16a34a" opacity=".55"/>
<rect x="833.4751633986928" y="440.9601660386023" width="4.0169934640522875" height="2.6661724152119746" fill="#16a34a" opacity=".55"/>
<rect x="839.213725490196" y="440.22468366862176" width="4.0169934640522875" height="3.401654785192534" fill="#16a34a" opacity=".55"/>
<rect x="844.9522875816994" y="441.5856251089308" width="4.0169934640522875" height="2.0407133448834998" fill="#16a34a" opacity=".55"/>
<rect x="850.6908496732026" y="442.93624202360735" width="4.0169934640522875" height="0.6900964302069497" fill="#16a34a" opacity=".55"/>
<rect x="856.4294117647058" y="443.6263384538143" width="4.0169934640522875" height="0.7578807294913759" fill="#dc2626" opacity=".55"/>
<rect x="862.1679738562091" y="443.6263384538143" width="4.0169934640522875" height="1.2713184227476404" fill="#dc2626" opacity=".55"/>
<rect x="867.9065359477124" y="443.6263384538143" width="4.0169934640522875" height="0.5" fill="#dc2626" opacity=".55"/>
<rect x="873.6450980392157" y="441.59106671638665" width="4.0169934640522875" height="2.0352717374276494" fill="#16a34a" opacity=".55"/>
<rect x="879.3836601307189" y="439.225218444176" width="4.0169934640522875" height="4.401120009638305" fill="#16a34a" opacity=".55"/>
<rect x="885.1222222222221" y="438.49082309597225" width="4.0169934640522875" height="5.135515357842053" fill="#16a34a" opacity=".55"/>
<polyline fill="none" stroke="#2563eb" stroke-width="1.5" points="14.869281045751634,445.3861307050892 20.607843137254903,447.7493862393524 26.346405228758172,447.78067309409766 32.08496732026144,449.0588728289927 37.82352941176471,453.04017124739084 43.56209150326798,454.1748834236901 49.30065359477124,455.4303700672874 55.03921568627451,456.47000944900867 60.77777777777778,460.59885421506743 66.51633986928104,464.99632590714003 72.25490196078431,465.94453413943927 77.99346405228758,465.8726365794872 83.73202614379085,468.6280250121988 89.47058823529412,471.11265342450474 95.20915032679738,476.1004405681487 100.94771241830065,477.13875092284377 106.68627450980392,478.39642810819 112.42483660130719,477.79386724107616 118.16339869281046,480.7808089482102 123.90196078431373,486.33034603815986 129.640522875817,491.0344827586207 135.37908496732027,487.9815527486403 141.11764705882354,483.51450334941904 146.8562091503268,479.31291629579516 152.59477124183007,474.63702060639474 158.33333333333334,470.45179844956544 164.0718954248366,461.3007258069535 169.81045751633988,452.5259990663602 175.54901960784315,445.8104014188976 181.28758169934642,438.1979796389742 187.0261437908497,429.5742438805167 192.76470588235296,421.1140478551993 198.5032679738562,414.1274592689029 204.24183006535947,406.1462488812614 209.98039215686273,400.8877868386435 215.718954248366,398.76864500457316 221.45751633986927,395.14124910112173 227.19607843137254,393.84124814485466 232.9346405228758,391.48900944541833 238.67320261437908,389.9440813908242 244.41176470588235,390.52304349901283 250.15032679738562,391.67738883775985 255.88888888888889,390.7233603558076 261.62745098039215,389.87073726656746 267.3660130718954,390.80041011750825 273.1045751633987,390.16968180381406 278.843137254902,386.7327981447339 284.58169934640523,385.6279151696772 290.32026143790847,383.3497441205336 296.05882352941177,381.7852303987829 301.797385620915,381.66266875576684 307.5359477124183,380.8208218631346 313.27450980392155,378.9655172413793 319.01307189542484,381.35934302776695 324.7516339869281,384.12724421238863 330.4901960784314,388.6321112721146 336.2287581699346,390.12650925739354 341.9673202614379,391.47937955058 347.70588235294116,392.20284429038105 353.44444444444446,391.82457206512004 359.1830065359477,392.0769569840115 364.921568627451,391.41086175676355 370.66013071895424,390.9329671909023 376.39869281045753,390.4915936594998 382.1372549019608,390.42195235653344 387.87581699346407,392.8553063811187 393.6143790849673,394.31303170751187 399.3529411764706,402.74427407067185 405.09150326797385,409.0782977716242 410.83006535947715,415.07451362835985 416.5686274509804,424.1112032918187 422.3071895424837,427.1436225565047 428.0457516339869,428.4609235283379 433.7843137254902,425.5460628026428 439.52287581699346,424.9086021532938 445.26143790849676,427.6830283521519 451,427.3390904271563 456.7385620915033,428.18731968977204 462.47712418300654,432.62771452202037 468.21568627450984,436.47482014244326 473.9542483660131,439.5949167907642 479.6928104575163,442.2017711792388 485.4313725490196,441.36218908285184 491.16993464052285,438.75367889671554 496.90849673202615,437.3065045516442 502.6470588235294,436.2443554777485 508.3856209150327,433.6787649164612 514.124183006536,432.90833586423184 519.8627450980392,433.1359126602406 525.6013071895425,431.3901453583476 531.3398692810457,429.0969177830246 537.0784313725491,429.47991263190477 542.8169934640523,428.9936787831 548.5555555555555,427.81318188479577 554.2941176470588,428.3641564608392 560.0326797385621,431.5215094010648 565.7712418300654,434.61648690357777 571.5098039215686,434.9330119483774 577.2483660130719,435.6235315792233 582.9869281045752,439.29650716616885 588.7254901960785,442.1001031475859 594.4640522875817,444.27379077308353 600.2026143790849,445.4462282191706 605.9411764705883,450.12170670657395 611.6797385620915,449.6363329081963 617.4183006535948,447.4404382378995 623.156862745098,441.96095364695043 628.8954248366014,433.12473475502975 634.6339869281046,426.75647270849527 640.3725490196078,422.41515041986315 646.1111111111111,417.65634441599246 651.8496732026144,414.3758362949052 657.5882352941177,412.9744547635638 663.3267973856209,411.54495366464545 669.0653594771242,409.0971156874845 674.8039215686274,408.01654340170865 680.5424836601308,408.9408317636337 686.281045751634,411.84797429937373 692.0196078431372,413.9437655777301 697.7581699346405,418.16518811005704 703.4967320261438,420.6488534806209 709.2352941176471,423.5780575016363 714.9738562091503,425.28243650980033 720.7124183006536,426.8798034433719 726.4509803921569,426.46770019068055 732.1895424836601,426.9853632676178 737.9281045751634,428.43987089105195 743.6666666666666,431.5861538894662 749.40522875817,433.0101332100122 755.1437908496732,431.5263186440622 760.8823529411765,431.47803178046695 766.6209150326797,433.0906424049041 772.3594771241831,435.72051199516153 778.0980392156863,439.3689453040659 783.8366013071895,440.0864172639053 789.5751633986928,441.9298717666804 795.3137254901961,444.5422624326863 801.0522875816994,447.71625420389347 806.7908496732026,447.2736110127264 812.5294117647059,446.45793497184707 818.2679738562092,441.95629324102094 824.0065359477125,438.45041219739875 829.7450980392157,437.7284338044011 835.4836601307189,437.29371712690124 841.2222222222222,435.70782106062256 846.9607843137255,436.5585841647107 852.6993464052288,437.73667697183555 858.437908496732,439.3741243139067 864.1764705882352,440.2053916128499 869.9150326797386,439.0083404415114 875.6535947712418,436.4048369685995 881.3921568627451,432.93870869397927 887.1307189542483,430.920434506315"/>
<polyline fill="none" stroke="#ea580c" stroke-width="1.5" points="14.869281045751634,445.3968037963557 20.607843137254903,445.86732028495504 26.346405228758172,446.2499908467836 32.08496732026144,446.8117672432254 37.82352941176471,448.0574480440585 43.56209150326798,449.2809351199848 49.30065359477124,450.5108221094453 55.03921568627451,451.702659577358 60.77777777777778,453.4818985048999 66.51633986928104,455.78478398534793 72.25490196078431,457.8167340161662 77.99346405228758,459.4279145288304 83.73202614379085,461.2679366255041 89.47058823529412,463.2368799853042 95.20915032679738,465.80959210187314 100.94771241830065,468.07542386606724 106.68627450980392,470.1396247144918 112.42483660130719,471.6704732198087 118.16339869281046,473.492540365489 123.90196078431373,476.06010150002317 129.640522875817,479.0549777517427 135.37908496732027,480.8402927511222 141.11764705882354,481.37513487078155 146.8562091503268,480.9626911557843 152.59477124183007,479.69755704590636 158.33333333333334,477.8484053266382 164.0718954248366,474.5388694227013 169.81045751633988,470.13629535143303 175.54901960784315,465.27111656492593 181.28758169934642,459.8564891797356 187.0261437908497,453.80004011989183 192.76470588235296,447.2628416669533 198.5032679738562,440.6357651873432 204.24183006535947,433.73786192612687 209.98039215686273,427.16784690863017 215.718954248366,421.48800652781875 221.45751633986927,416.2186550424794 227.19607843137254,411.7431736629544 232.9346405228758,407.69234081944717 238.67320261437908,404.1426889337226 244.41176470588235,401.41875984678063 250.15032679738562,399.47048564497646 255.88888888888889,397.7210605871427 261.62745098039215,396.1509959230276 267.3660130718954,395.08087876192377 273.1045751633987,394.0986393703018 278.843137254902,392.6254711251882 284.58169934640523,391.225959934086 290.32026143790847,389.6507167713755 296.05882352941177,388.077619496857 301.797385620915,386.794629348639 307.5359477124183,385.5998678515381 313.27450980392155,384.2729977295063 319.01307189542484,383.69026678915844 324.7516339869281,383.7776622738045 330.4901960784314,384.7485520734665 336.2287581699346,385.8241435102519 341.9673202614379,386.95519071831757 347.70588235294116,388.0047214327302 353.44444444444446,388.76869155920815 359.1830065359477,389.4303446441688 364.921568627451,389.8264480666878 370.66013071895424,390.04775189153065 376.39869281045753,390.1365202451245 382.1372549019608,390.1936066674063 387.87581699346407,390.72594661014875 393.6143790849673,391.4433636296214 399.3529411764706,393.7035457178315 405.09150326797385,396.77849612859 410.83006535947715,400.437699628544 416.5686274509804,405.1724003611989 422.3071895424837,409.56664480026006 428.0457516339869,413.34550054587567 433.7843137254902,415.78561299722907 439.52287581699346,417.610210828442 445.26143790849676,419.624774333184 451,421.16763755197843 456.7385620915033,422.57157397953716 462.47712418300654,424.5828020880338 468.21568627450984,426.9612056989157 473.9542483660131,429.4879479172854 479.6928104575163,432.0307125696761 485.4313725490196,433.89700787231124 491.16993464052285,434.8683420771921 496.90849673202615,435.3559745720825 502.6470588235294,435.53365075321574 508.3856209150327,435.1626735858648 514.124183006536,434.71180604153824 519.8627450980392,434.3966273652787 525.6013071895425,433.79533096389247 531.3398692810457,432.8556483277189 537.0784313725491,432.18050118855604 542.8169934640523,431.54313670746484 548.5555555555555,430.79714574293104 554.2941176470588,430.31054788651267 560.0326797385621,430.55274018942305 565.7712418300654,431.365489532254 571.5098039215686,432.0789940154787 577.2483660130719,432.7879015282276 582.9869281045752,434.08962265581584 588.7254901960785,435.69171875416987 594.4640522875817,437.4081331579526 600.2026143790849,439.0157521701962 605.9411764705883,441.2369430774718 611.6797385620915,442.91682104361666 617.4183006535948,443.82154448247326 623.156862745098,443.44942631536867 628.8954248366014,441.3844880033009 634.6339869281046,438.45888494433973 640.3725490196078,435.25013803944444 646.1111111111111,431.731379314754 651.8496732026144,428.26027071078425 657.5882352941177,425.20310752134014 663.3267973856209,422.4714767500012 669.0653594771242,419.7966045374979 674.8039215686274,417.44059231034004 680.5424836601308,415.74064020099877 686.281045751634,414.9621070206738 692.0196078431372,414.75843873208504 697.7581699346405,415.4397886076794 703.4967320261438,416.48160158226773 709.2352941176471,417.9008927661414 714.9738562091503,419.3772015148732 720.7124183006536,420.87772190057296 726.4509803921569,421.99571755859444 732.1895424836601,422.9936467003991 737.9281045751634,424.0828915385297 743.6666666666666,425.583544008717 749.40522875817,427.06886184897604 755.1437908496732,427.96035320799325 760.8823529411765,428.663888922488 766.6209150326797,429.5492396189712 772.3594771241831,430.78349409420923 778.0980392156863,432.5005843361806 783.8366013071895,434.01775092172556 789.5751633986928,435.6001750907165 795.3137254901961,437.38859255911046 801.0522875816994,439.45412488806704 806.7908496732026,441.0180221129989 812.5294117647059,442.10600468476855 818.2679738562092,442.07606239601904 824.0065359477125,441.35093235629495 829.7450980392157,440.6264326459162 835.4836601307189,439.9598895421132 841.2222222222222,439.1094758458151 846.9607843137255,438.5992975095942 852.6993464052288,438.42677340204244 858.437908496732,438.6162435844153 864.1764705882352,438.9340731901022 869.9150326797386,438.94892664038406 875.6535947712418,438.44010870602716 881.3921568627451,437.33982870361757 887.1307189542483,436.05594986415707"/>
<text x="890" y="528" font-size="10" fill="#94a3b8" text-anchor="end">foxonivesting.com.br</text>
</svg>